<svg width="740" height="210" viewBox="0 0 740 210" fill="none" xmlns="http://www.w3.org/2000/svg">
<path d="M43.9555 54.84C39.6995 54.84 35.9475 54.0187 32.6995 52.376C29.4889 50.7333 27.0062 48.3813 25.2515 45.32C23.4969 42.2213 22.6195 38.6 22.6195 34.456C22.6195 30.312 23.4969 26.7093 25.2515 23.648C27.0062 20.5493 29.4889 18.1787 32.6995 16.536C35.9475 14.856 39.6995 14.016 43.9555 14.016C46.7555 14.016 49.2569 14.296 51.4595 14.856C53.6622 15.416 55.6969 16.2933 57.5635 17.488V26.896C55.9209 25.5893 54.0542 24.6373 51.9635 24.04C49.9102 23.4427 47.5395 23.144 44.8515 23.144C41.0062 23.144 38.0382 24.152 35.9475 26.168C33.8569 28.1467 32.8115 30.9093 32.8115 34.456C32.8115 38.0027 33.8569 40.784 35.9475 42.8C38.0755 44.816 41.0435 45.824 44.8515 45.824C47.5395 45.824 49.9475 45.5067 52.0755 44.872C54.2035 44.2373 56.1822 43.2293 58.0115 41.848V51.2C54.4649 53.6267 49.7795 54.84 43.9555 54.84ZM75.3514 14.856H92.9354C97.5274 14.856 101.111 16.0133 103.687 18.328C106.301 20.6427 107.607 23.9653 107.607 28.296C107.607 31.208 106.973 33.6907 105.703 35.744C104.434 37.7973 102.642 39.328 100.327 40.336L107.271 54H97.0794L90.8634 41.736H85.2634V54H75.3514V14.856ZM91.1994 33.392C93.1781 33.392 94.7088 33.0187 95.7914 32.272C96.8741 31.488 97.4154 30.1627 97.4154 28.296C97.4154 26.3547 96.8741 25.0293 95.7914 24.32C94.7461 23.5733 93.2154 23.2 91.1994 23.2H85.2634V33.392H91.1994ZM124.995 14.856H152.771V23.2H134.907V30.536H147.955V38.32H134.907V45.656H152.771V54H124.995V14.856ZM184.713 14.856H194.457L210.081 54H199.945L196.809 45.936H182.361L179.225 54H169.033L184.713 14.856ZM194.345 38.32L189.585 25.16L184.769 38.32H194.345ZM229.525 23.2H218.493V14.856H250.525V23.2H239.437V54H229.525V23.2ZM267.033 14.856H276.945V54H267.033V14.856ZM295.403 14.856H305.203L319.595 38.152V14.856H329.507V54H319.763L305.315 30.648V54H295.403V14.856ZM368.215 54.84C363.959 54.84 360.207 54.0187 356.959 52.376C353.749 50.7333 351.266 48.3813 349.511 45.32C347.757 42.2213 346.879 38.6 346.879 34.456C346.879 30.312 347.757 26.7093 349.511 23.648C351.266 20.5493 353.749 18.1787 356.959 16.536C360.207 14.856 363.959 14.016 368.215 14.016C371.053 14.016 373.554 14.296 375.719 14.856C377.922 15.3787 379.957 16.2373 381.823 17.432V26.84C380.181 25.5333 378.314 24.6 376.223 24.04C374.17 23.4427 371.799 23.144 369.111 23.144C366.797 23.144 364.725 23.6107 362.895 24.544C361.103 25.44 359.685 26.7467 358.639 28.464C357.594 30.1813 357.071 32.1787 357.071 34.456C357.071 38.0027 358.098 40.8027 360.151 42.856C362.242 44.9093 365.061 45.936 368.607 45.936C370.586 45.936 372.247 45.6 373.591 44.928V38.656H367.599V31.712H382.999V51.2C379.005 53.6267 374.077 54.84 368.215 54.84ZM432.848 14.856H446.904C451.197 14.856 454.949 15.64 458.16 17.208C461.371 18.776 463.835 21.0347 465.552 23.984C467.307 26.896 468.184 30.312 468.184 34.232C468.184 40.728 466.28 45.656 462.472 49.016C458.664 52.3387 453.381 54 446.624 54H432.848V14.856ZM447.464 45.656C450.861 45.656 453.456 44.6293 455.248 42.576C457.077 40.5227 457.992 37.7413 457.992 34.232C457.992 31.0213 457.077 28.3893 455.248 26.336C453.456 24.2453 450.973 23.2 447.8 23.2H442.76V45.656H447.464ZM485.554 14.856H495.466V54H485.554V14.856ZM534.139 54.84C529.883 54.84 526.131 54.0187 522.883 52.376C519.673 50.7333 517.19 48.3813 515.435 45.32C513.681 42.2213 512.803 38.6 512.803 34.456C512.803 30.312 513.681 26.7093 515.435 23.648C517.19 20.5493 519.673 18.1787 522.883 16.536C526.131 14.856 529.883 14.016 534.139 14.016C536.977 14.016 539.478 14.296 541.643 14.856C543.846 15.3787 545.881 16.2373 547.747 17.432V26.84C546.105 25.5333 544.238 24.6 542.147 24.04C540.094 23.4427 537.723 23.144 535.035 23.144C532.721 23.144 530.649 23.6107 528.819 24.544C527.027 25.44 525.609 26.7467 524.563 28.464C523.518 30.1813 522.995 32.1787 522.995 34.456C522.995 38.0027 524.022 40.8027 526.075 42.856C528.166 44.9093 530.985 45.936 534.531 45.936C536.51 45.936 538.171 45.6 539.515 44.928V38.656H533.523V31.712H548.923V51.2C544.929 53.6267 540.001 54.84 534.139 54.84ZM566.301 14.856H576.213V54H566.301V14.856ZM603.742 23.2H592.71V14.856H624.742V23.2H613.654V54H603.742V23.2ZM648.811 14.856H658.555L674.179 54H664.043L660.907 45.936H646.459L643.323 54H633.131L648.811 14.856ZM658.443 38.32L653.683 25.16L648.867 38.32H658.443ZM691.55 14.856H701.462V45.656H718.486V54H691.55V14.856ZM74.8511 124.84C72.3871 124.84 69.9418 124.597 67.5151 124.112C65.0885 123.664 63.0911 123.029 61.5231 122.208V113.304C63.5391 114.349 65.6298 115.133 67.7951 115.656C69.9978 116.179 72.0885 116.44 74.0671 116.44C75.8965 116.44 77.2778 116.16 78.2111 115.6C79.1445 115.04 79.6111 114.237 79.6111 113.192C79.6111 112.408 79.3498 111.736 78.8271 111.176C78.3418 110.579 77.6138 110.037 76.6431 109.552C75.6725 109.067 74.1605 108.395 72.1071 107.536C68.4858 106.005 65.8538 104.307 64.2111 102.44C62.5685 100.573 61.7471 98.2773 61.7471 95.552C61.7471 93.312 62.3631 91.3147 63.5951 89.56C64.8645 87.8053 66.6191 86.4427 68.8591 85.472C71.0991 84.5013 73.6751 84.016 76.5871 84.016C78.9765 84.016 81.1045 84.2027 82.9711 84.576C84.8378 84.9493 86.6298 85.5467 88.3471 86.368V95.048C85.0618 93.3307 81.7578 92.472 78.4351 92.472C76.6431 92.472 75.2058 92.7707 74.1231 93.368C73.0778 93.928 72.5551 94.7493 72.5551 95.832C72.5551 96.9147 73.0965 97.792 74.1791 98.464C75.2618 99.136 77.2591 100.051 80.1711 101.208C82.8218 102.291 84.8751 103.355 86.3311 104.4C87.8245 105.445 88.9071 106.659 89.5791 108.04C90.2511 109.421 90.5871 111.176 90.5871 113.304C90.5871 116.925 89.2618 119.763 86.6111 121.816C83.9978 123.832 80.0778 124.84 74.8511 124.84ZM107.966 84.856H135.742V93.2H117.878V100.536H130.926V108.32H117.878V115.656H135.742V124H107.966V84.856ZM153.125 84.856H170.709C175.301 84.856 178.885 86.0133 181.461 88.328C184.074 90.6427 185.381 93.9653 185.381 98.296C185.381 101.208 184.746 103.691 183.477 105.744C182.207 107.797 180.415 109.328 178.101 110.336L185.045 124H174.853L168.637 111.736H163.037V124H153.125V84.856ZM168.973 103.392C170.951 103.392 172.482 103.019 173.565 102.272C174.647 101.488 175.189 100.163 175.189 98.296C175.189 96.3547 174.647 95.0293 173.565 94.32C172.519 93.5733 170.989 93.2 168.973 93.2H163.037V103.392H168.973ZM197.984 84.856H208.568L218.536 110.896L228.504 84.856H239.032L223.408 124H213.664L197.984 84.856ZM256.403 84.856H266.315V124H256.403V84.856ZM304.989 124.84C300.733 124.84 296.981 124.019 293.733 122.376C290.522 120.733 288.039 118.381 286.285 115.32C284.53 112.221 283.653 108.6 283.653 104.456C283.653 100.312 284.53 96.7093 286.285 93.648C288.039 90.5493 290.522 88.1787 293.733 86.536C296.981 84.856 300.733 84.016 304.989 84.016C307.789 84.016 310.29 84.296 312.493 84.856C314.695 85.416 316.73 86.2933 318.597 87.488V96.896C316.954 95.5893 315.087 94.6373 312.997 94.04C310.943 93.4427 308.573 93.144 305.885 93.144C302.039 93.144 299.071 94.152 296.981 96.168C294.89 98.1467 293.845 100.909 293.845 104.456C293.845 108.003 294.89 110.784 296.981 112.8C299.109 114.816 302.077 115.824 305.885 115.824C308.573 115.824 310.981 115.507 313.109 114.872C315.237 114.237 317.215 113.229 319.045 111.848V121.2C315.498 123.627 310.813 124.84 304.989 124.84ZM336.385 84.856H364.161V93.2H346.297V100.536H359.345V108.32H346.297V115.656H364.161V124H336.385V84.856ZM393.751 124.84C391.287 124.84 388.842 124.597 386.415 124.112C383.989 123.664 381.991 123.029 380.423 122.208V113.304C382.439 114.349 384.53 115.133 386.695 115.656C388.898 116.179 390.989 116.44 392.967 116.44C394.797 116.44 396.178 116.16 397.111 115.6C398.045 115.04 398.511 114.237 398.511 113.192C398.511 112.408 398.25 111.736 397.727 111.176C397.242 110.579 396.514 110.037 395.543 109.552C394.573 109.067 393.061 108.395 391.007 107.536C387.386 106.005 384.754 104.307 383.111 102.44C381.469 100.573 380.647 98.2773 380.647 95.552C380.647 93.312 381.263 91.3147 382.495 89.56C383.765 87.8053 385.519 86.4427 387.759 85.472C389.999 84.5013 392.575 84.016 395.487 84.016C397.877 84.016 400.005 84.2027 401.871 84.576C403.738 84.9493 405.53 85.5467 407.247 86.368V95.048C403.962 93.3307 400.658 92.472 397.335 92.472C395.543 92.472 394.106 92.7707 393.023 93.368C391.978 93.928 391.455 94.7493 391.455 95.832C391.455 96.9147 391.997 97.792 393.079 98.464C394.162 99.136 396.159 100.051 399.071 101.208C401.722 102.291 403.775 103.355 405.231 104.4C406.725 105.445 407.807 106.659 408.479 108.04C409.151 109.421 409.487 111.176 409.487 113.304C409.487 116.925 408.162 119.763 405.511 121.816C402.898 123.832 398.978 124.84 393.751 124.84ZM471.546 124.84C469.082 124.84 466.636 124.597 464.21 124.112C461.783 123.664 459.786 123.029 458.218 122.208V113.304C460.234 114.349 462.324 115.133 464.49 115.656C466.692 116.179 468.783 116.44 470.762 116.44C472.591 116.44 473.972 116.16 474.906 115.6C475.839 115.04 476.306 114.237 476.306 113.192C476.306 112.408 476.044 111.736 475.522 111.176C475.036 110.579 474.308 110.037 473.338 109.552C472.367 109.067 470.855 108.395 468.802 107.536C465.18 106.005 462.548 104.307 460.906 102.44C459.263 100.573 458.442 98.2773 458.442 95.552C458.442 93.312 459.058 91.3147 460.29 89.56C461.559 87.8053 463.314 86.4427 465.554 85.472C467.794 84.5013 470.37 84.016 473.282 84.016C475.671 84.016 477.799 84.2027 479.666 84.576C481.532 84.9493 483.324 85.5467 485.042 86.368V95.048C481.756 93.3307 478.452 92.472 475.13 92.472C473.338 92.472 471.9 92.7707 470.818 93.368C469.772 93.928 469.25 94.7493 469.25 95.832C469.25 96.9147 469.791 97.792 470.874 98.464C471.956 99.136 473.954 100.051 476.866 101.208C479.516 102.291 481.57 103.355 483.026 104.4C484.519 105.445 485.602 106.659 486.274 108.04C486.946 109.421 487.282 111.176 487.282 113.304C487.282 116.925 485.956 119.763 483.306 121.816C480.692 123.832 476.772 124.84 471.546 124.84ZM504.66 84.856H514.572V124H504.66V84.856ZM533.03 84.856H542.83L557.222 108.152V84.856H567.134V124H557.39L542.942 100.648V124H533.03V84.856ZM605.842 124.84C601.586 124.84 597.834 124.019 594.586 122.376C591.376 120.733 588.893 118.381 587.138 115.32C585.384 112.221 584.506 108.6 584.506 104.456C584.506 100.312 585.384 96.7093 587.138 93.648C588.893 90.5493 591.376 88.1787 594.586 86.536C597.834 84.856 601.586 84.016 605.842 84.016C608.642 84.016 611.144 84.296 613.346 84.856C615.549 85.416 617.584 86.2933 619.45 87.488V96.896C617.808 95.5893 615.941 94.6373 613.85 94.04C611.797 93.4427 609.426 93.144 606.738 93.144C602.893 93.144 599.925 94.152 597.834 96.168C595.744 98.1467 594.698 100.909 594.698 104.456C594.698 108.003 595.744 110.784 597.834 112.8C599.962 114.816 602.93 115.824 606.738 115.824C609.426 115.824 611.834 115.507 613.962 114.872C616.09 114.237 618.069 113.229 619.898 111.848V121.2C616.352 123.627 611.666 124.84 605.842 124.84ZM637.238 84.856H665.014V93.2H647.15V100.536H660.198V108.32H647.15V115.656H665.014V124H637.238V84.856ZM287.037 188.344L293.253 182.688L295.941 180.28C298.144 178.339 299.824 176.789 300.981 175.632C302.176 174.475 303.146 173.299 303.893 172.104C304.677 170.909 305.069 169.733 305.069 168.576C305.069 165.104 303.109 163.368 299.189 163.368C297.285 163.368 295.4 163.704 293.533 164.376C291.704 165.048 290.005 165.981 288.437 167.176V157.712C290.117 156.555 292.077 155.659 294.317 155.024C296.557 154.352 298.946 154.016 301.485 154.016C304.397 154.016 306.917 154.557 309.045 155.64C311.173 156.723 312.797 158.216 313.917 160.12C315.037 162.024 315.597 164.171 315.597 166.56C315.597 169.435 314.925 171.955 313.581 174.12C312.274 176.248 310.146 178.656 307.197 181.344L302.213 185.88H316.829V194H287.037V188.344ZM351.103 194.84C347.481 194.84 344.308 194.037 341.583 192.432C338.857 190.789 336.748 188.437 335.255 185.376C333.799 182.315 333.071 178.675 333.071 174.456C333.071 170.237 333.799 166.597 335.255 163.536C336.711 160.475 338.783 158.123 341.471 156.48C344.196 154.837 347.407 154.016 351.103 154.016C354.799 154.016 357.991 154.837 360.679 156.48C363.404 158.123 365.495 160.475 366.951 163.536C368.407 166.597 369.135 170.237 369.135 174.456C369.135 178.675 368.388 182.315 366.895 185.376C365.439 188.437 363.348 190.789 360.623 192.432C357.897 194.037 354.724 194.84 351.103 194.84ZM351.103 185.544C353.604 185.544 355.545 184.573 356.927 182.632C358.308 180.691 358.999 178.003 358.999 174.568C358.999 171.096 358.308 168.371 356.927 166.392C355.583 164.376 353.641 163.368 351.103 163.368C348.564 163.368 346.604 164.376 345.223 166.392C343.879 168.371 343.207 171.096 343.207 174.568C343.207 178.003 343.897 180.691 345.279 182.632C346.66 184.573 348.601 185.544 351.103 185.544ZM393.345 165.888L385.393 171.656V161.912L395.025 154.856H403.257V194H393.345V165.888ZM433.087 194.84C430.324 194.84 427.954 194.523 425.975 193.888V185.488C427.692 186.384 429.802 186.832 432.303 186.832C435.14 186.832 437.455 186.085 439.247 184.592C441.076 183.099 442.178 180.877 442.551 177.928C441.655 178.861 440.423 179.608 438.855 180.168C437.287 180.691 435.588 180.952 433.759 180.952C431.183 180.952 428.906 180.429 426.927 179.384C424.948 178.339 423.399 176.827 422.279 174.848C421.159 172.869 420.599 170.517 420.599 167.792C420.599 165.141 421.196 162.789 422.391 160.736C423.623 158.645 425.434 157.003 427.823 155.808C430.25 154.613 433.18 154.016 436.615 154.016C441.804 154.016 445.818 155.621 448.655 158.832C451.53 162.005 452.967 166.392 452.967 171.992C452.967 176.845 452.108 180.989 450.391 184.424C448.711 187.859 446.378 190.453 443.391 192.208C440.404 193.963 436.97 194.84 433.087 194.84ZM436.615 173.336C438.258 173.336 439.639 172.776 440.759 171.656C441.879 170.536 442.439 169.173 442.439 167.568C442.439 165.925 441.879 164.544 440.759 163.424C439.639 162.304 438.258 161.744 436.615 161.744C435.01 161.744 433.647 162.323 432.527 163.48C431.407 164.6 430.847 165.963 430.847 167.568C430.847 169.173 431.407 170.536 432.527 171.656C433.647 172.776 435.01 173.336 436.615 173.336Z" fill="#202831"/>
<mask id="mask0_1701_77583" style="mask-type:alpha" maskUnits="userSpaceOnUse" x="22" y="14" width="697" height="181">
<path d="M43.9555 54.84C39.6995 54.84 35.9475 54.0187 32.6995 52.376C29.4889 50.7333 27.0062 48.3813 25.2515 45.32C23.4969 42.2213 22.6195 38.6 22.6195 34.456C22.6195 30.312 23.4969 26.7093 25.2515 23.648C27.0062 20.5493 29.4889 18.1787 32.6995 16.536C35.9475 14.856 39.6995 14.016 43.9555 14.016C46.7555 14.016 49.2569 14.296 51.4595 14.856C53.6622 15.416 55.6969 16.2933 57.5635 17.488V26.896C55.9209 25.5893 54.0542 24.6373 51.9635 24.04C49.9102 23.4427 47.5395 23.144 44.8515 23.144C41.0062 23.144 38.0382 24.152 35.9475 26.168C33.8569 28.1467 32.8115 30.9093 32.8115 34.456C32.8115 38.0027 33.8569 40.784 35.9475 42.8C38.0755 44.816 41.0435 45.824 44.8515 45.824C47.5395 45.824 49.9475 45.5067 52.0755 44.872C54.2035 44.2373 56.1822 43.2293 58.0115 41.848V51.2C54.4649 53.6267 49.7795 54.84 43.9555 54.84ZM75.3514 14.856H92.9354C97.5274 14.856 101.111 16.0133 103.687 18.328C106.301 20.6427 107.607 23.9653 107.607 28.296C107.607 31.208 106.973 33.6907 105.703 35.744C104.434 37.7973 102.642 39.328 100.327 40.336L107.271 54H97.0794L90.8634 41.736H85.2634V54H75.3514V14.856ZM91.1994 33.392C93.1781 33.392 94.7088 33.0187 95.7914 32.272C96.8741 31.488 97.4154 30.1627 97.4154 28.296C97.4154 26.3547 96.8741 25.0293 95.7914 24.32C94.7461 23.5733 93.2154 23.2 91.1994 23.2H85.2634V33.392H91.1994ZM124.995 14.856H152.771V23.2H134.907V30.536H147.955V38.32H134.907V45.656H152.771V54H124.995V14.856ZM184.713 14.856H194.457L210.081 54H199.945L196.809 45.936H182.361L179.225 54H169.033L184.713 14.856ZM194.345 38.32L189.585 25.16L184.769 38.32H194.345ZM229.525 23.2H218.493V14.856H250.525V23.2H239.437V54H229.525V23.2ZM267.033 14.856H276.945V54H267.033V14.856ZM295.403 14.856H305.203L319.595 38.152V14.856H329.507V54H319.763L305.315 30.648V54H295.403V14.856ZM368.215 54.84C363.959 54.84 360.207 54.0187 356.959 52.376C353.749 50.7333 351.266 48.3813 349.511 45.32C347.757 42.2213 346.879 38.6 346.879 34.456C346.879 30.312 347.757 26.7093 349.511 23.648C351.266 20.5493 353.749 18.1787 356.959 16.536C360.207 14.856 363.959 14.016 368.215 14.016C371.053 14.016 373.554 14.296 375.719 14.856C377.922 15.3787 379.957 16.2373 381.823 17.432V26.84C380.181 25.5333 378.314 24.6 376.223 24.04C374.17 23.4427 371.799 23.144 369.111 23.144C366.797 23.144 364.725 23.6107 362.895 24.544C361.103 25.44 359.685 26.7467 358.639 28.464C357.594 30.1813 357.071 32.1787 357.071 34.456C357.071 38.0027 358.098 40.8027 360.151 42.856C362.242 44.9093 365.061 45.936 368.607 45.936C370.586 45.936 372.247 45.6 373.591 44.928V38.656H367.599V31.712H382.999V51.2C379.005 53.6267 374.077 54.84 368.215 54.84ZM432.848 14.856H446.904C451.197 14.856 454.949 15.64 458.16 17.208C461.371 18.776 463.835 21.0347 465.552 23.984C467.307 26.896 468.184 30.312 468.184 34.232C468.184 40.728 466.28 45.656 462.472 49.016C458.664 52.3387 453.381 54 446.624 54H432.848V14.856ZM447.464 45.656C450.861 45.656 453.456 44.6293 455.248 42.576C457.077 40.5227 457.992 37.7413 457.992 34.232C457.992 31.0213 457.077 28.3893 455.248 26.336C453.456 24.2453 450.973 23.2 447.8 23.2H442.76V45.656H447.464ZM485.554 14.856H495.466V54H485.554V14.856ZM534.139 54.84C529.883 54.84 526.131 54.0187 522.883 52.376C519.673 50.7333 517.19 48.3813 515.435 45.32C513.681 42.2213 512.803 38.6 512.803 34.456C512.803 30.312 513.681 26.7093 515.435 23.648C517.19 20.5493 519.673 18.1787 522.883 16.536C526.131 14.856 529.883 14.016 534.139 14.016C536.977 14.016 539.478 14.296 541.643 14.856C543.846 15.3787 545.881 16.2373 547.747 17.432V26.84C546.105 25.5333 544.238 24.6 542.147 24.04C540.094 23.4427 537.723 23.144 535.035 23.144C532.721 23.144 530.649 23.6107 528.819 24.544C527.027 25.44 525.609 26.7467 524.563 28.464C523.518 30.1813 522.995 32.1787 522.995 34.456C522.995 38.0027 524.022 40.8027 526.075 42.856C528.166 44.9093 530.985 45.936 534.531 45.936C536.51 45.936 538.171 45.6 539.515 44.928V38.656H533.523V31.712H548.923V51.2C544.929 53.6267 540.001 54.84 534.139 54.84ZM566.301 14.856H576.213V54H566.301V14.856ZM603.742 23.2H592.71V14.856H624.742V23.2H613.654V54H603.742V23.2ZM648.811 14.856H658.555L674.179 54H664.043L660.907 45.936H646.459L643.323 54H633.131L648.811 14.856ZM658.443 38.32L653.683 25.16L648.867 38.32H658.443ZM691.55 14.856H701.462V45.656H718.486V54H691.55V14.856ZM74.8511 124.84C72.3871 124.84 69.9418 124.597 67.5151 124.112C65.0885 123.664 63.0911 123.029 61.5231 122.208V113.304C63.5391 114.349 65.6298 115.133 67.7951 115.656C69.9978 116.179 72.0885 116.44 74.0671 116.44C75.8965 116.44 77.2778 116.16 78.2111 115.6C79.1445 115.04 79.6111 114.237 79.6111 113.192C79.6111 112.408 79.3498 111.736 78.8271 111.176C78.3418 110.579 77.6138 110.037 76.6431 109.552C75.6725 109.067 74.1605 108.395 72.1071 107.536C68.4858 106.005 65.8538 104.307 64.2111 102.44C62.5685 100.573 61.7471 98.2773 61.7471 95.552C61.7471 93.312 62.3631 91.3147 63.5951 89.56C64.8645 87.8053 66.6191 86.4427 68.8591 85.472C71.0991 84.5013 73.6751 84.016 76.5871 84.016C78.9765 84.016 81.1045 84.2027 82.9711 84.576C84.8378 84.9493 86.6298 85.5467 88.3471 86.368V95.048C85.0618 93.3307 81.7578 92.472 78.4351 92.472C76.6431 92.472 75.2058 92.7707 74.1231 93.368C73.0778 93.928 72.5551 94.7493 72.5551 95.832C72.5551 96.9147 73.0965 97.792 74.1791 98.464C75.2618 99.136 77.2591 100.051 80.1711 101.208C82.8218 102.291 84.8751 103.355 86.3311 104.4C87.8245 105.445 88.9071 106.659 89.5791 108.04C90.2511 109.421 90.5871 111.176 90.5871 113.304C90.5871 116.925 89.2618 119.763 86.6111 121.816C83.9978 123.832 80.0778 124.84 74.8511 124.84ZM107.966 84.856H135.742V93.2H117.878V100.536H130.926V108.32H117.878V115.656H135.742V124H107.966V84.856ZM153.125 84.856H170.709C175.301 84.856 178.885 86.0133 181.461 88.328C184.074 90.6427 185.381 93.9653 185.381 98.296C185.381 101.208 184.746 103.691 183.477 105.744C182.207 107.797 180.415 109.328 178.101 110.336L185.045 124H174.853L168.637 111.736H163.037V124H153.125V84.856ZM168.973 103.392C170.951 103.392 172.482 103.019 173.565 102.272C174.647 101.488 175.189 100.163 175.189 98.296C175.189 96.3547 174.647 95.0293 173.565 94.32C172.519 93.5733 170.989 93.2 168.973 93.2H163.037V103.392H168.973ZM197.984 84.856H208.568L218.536 110.896L228.504 84.856H239.032L223.408 124H213.664L197.984 84.856ZM256.403 84.856H266.315V124H256.403V84.856ZM304.989 124.84C300.733 124.84 296.981 124.019 293.733 122.376C290.522 120.733 288.039 118.381 286.285 115.32C284.53 112.221 283.653 108.6 283.653 104.456C283.653 100.312 284.53 96.7093 286.285 93.648C288.039 90.5493 290.522 88.1787 293.733 86.536C296.981 84.856 300.733 84.016 304.989 84.016C307.789 84.016 310.29 84.296 312.493 84.856C314.695 85.416 316.73 86.2933 318.597 87.488V96.896C316.954 95.5893 315.087 94.6373 312.997 94.04C310.943 93.4427 308.573 93.144 305.885 93.144C302.039 93.144 299.071 94.152 296.981 96.168C294.89 98.1467 293.845 100.909 293.845 104.456C293.845 108.003 294.89 110.784 296.981 112.8C299.109 114.816 302.077 115.824 305.885 115.824C308.573 115.824 310.981 115.507 313.109 114.872C315.237 114.237 317.215 113.229 319.045 111.848V121.2C315.498 123.627 310.813 124.84 304.989 124.84ZM336.385 84.856H364.161V93.2H346.297V100.536H359.345V108.32H346.297V115.656H364.161V124H336.385V84.856ZM393.751 124.84C391.287 124.84 388.842 124.597 386.415 124.112C383.989 123.664 381.991 123.029 380.423 122.208V113.304C382.439 114.349 384.53 115.133 386.695 115.656C388.898 116.179 390.989 116.44 392.967 116.44C394.797 116.44 396.178 116.16 397.111 115.6C398.045 115.04 398.511 114.237 398.511 113.192C398.511 112.408 398.25 111.736 397.727 111.176C397.242 110.579 396.514 110.037 395.543 109.552C394.573 109.067 393.061 108.395 391.007 107.536C387.386 106.005 384.754 104.307 383.111 102.44C381.469 100.573 380.647 98.2773 380.647 95.552C380.647 93.312 381.263 91.3147 382.495 89.56C383.765 87.8053 385.519 86.4427 387.759 85.472C389.999 84.5013 392.575 84.016 395.487 84.016C397.877 84.016 400.005 84.2027 401.871 84.576C403.738 84.9493 405.53 85.5467 407.247 86.368V95.048C403.962 93.3307 400.658 92.472 397.335 92.472C395.543 92.472 394.106 92.7707 393.023 93.368C391.978 93.928 391.455 94.7493 391.455 95.832C391.455 96.9147 391.997 97.792 393.079 98.464C394.162 99.136 396.159 100.051 399.071 101.208C401.722 102.291 403.775 103.355 405.231 104.4C406.725 105.445 407.807 106.659 408.479 108.04C409.151 109.421 409.487 111.176 409.487 113.304C409.487 116.925 408.162 119.763 405.511 121.816C402.898 123.832 398.978 124.84 393.751 124.84ZM471.546 124.84C469.082 124.84 466.636 124.597 464.21 124.112C461.783 123.664 459.786 123.029 458.218 122.208V113.304C460.234 114.349 462.324 115.133 464.49 115.656C466.692 116.179 468.783 116.44 470.762 116.44C472.591 116.44 473.972 116.16 474.906 115.6C475.839 115.04 476.306 114.237 476.306 113.192C476.306 112.408 476.044 111.736 475.522 111.176C475.036 110.579 474.308 110.037 473.338 109.552C472.367 109.067 470.855 108.395 468.802 107.536C465.18 106.005 462.548 104.307 460.906 102.44C459.263 100.573 458.442 98.2773 458.442 95.552C458.442 93.312 459.058 91.3147 460.29 89.56C461.559 87.8053 463.314 86.4427 465.554 85.472C467.794 84.5013 470.37 84.016 473.282 84.016C475.671 84.016 477.799 84.2027 479.666 84.576C481.532 84.9493 483.324 85.5467 485.042 86.368V95.048C481.756 93.3307 478.452 92.472 475.13 92.472C473.338 92.472 471.9 92.7707 470.818 93.368C469.772 93.928 469.25 94.7493 469.25 95.832C469.25 96.9147 469.791 97.792 470.874 98.464C471.956 99.136 473.954 100.051 476.866 101.208C479.516 102.291 481.57 103.355 483.026 104.4C484.519 105.445 485.602 106.659 486.274 108.04C486.946 109.421 487.282 111.176 487.282 113.304C487.282 116.925 485.956 119.763 483.306 121.816C480.692 123.832 476.772 124.84 471.546 124.84ZM504.66 84.856H514.572V124H504.66V84.856ZM533.03 84.856H542.83L557.222 108.152V84.856H567.134V124H557.39L542.942 100.648V124H533.03V84.856ZM605.842 124.84C601.586 124.84 597.834 124.019 594.586 122.376C591.376 120.733 588.893 118.381 587.138 115.32C585.384 112.221 584.506 108.6 584.506 104.456C584.506 100.312 585.384 96.7093 587.138 93.648C588.893 90.5493 591.376 88.1787 594.586 86.536C597.834 84.856 601.586 84.016 605.842 84.016C608.642 84.016 611.144 84.296 613.346 84.856C615.549 85.416 617.584 86.2933 619.45 87.488V96.896C617.808 95.5893 615.941 94.6373 613.85 94.04C611.797 93.4427 609.426 93.144 606.738 93.144C602.893 93.144 599.925 94.152 597.834 96.168C595.744 98.1467 594.698 100.909 594.698 104.456C594.698 108.003 595.744 110.784 597.834 112.8C599.962 114.816 602.93 115.824 606.738 115.824C609.426 115.824 611.834 115.507 613.962 114.872C616.09 114.237 618.069 113.229 619.898 111.848V121.2C616.352 123.627 611.666 124.84 605.842 124.84ZM637.238 84.856H665.014V93.2H647.15V100.536H660.198V108.32H647.15V115.656H665.014V124H637.238V84.856ZM287.037 188.344L293.253 182.688L295.941 180.28C298.144 178.339 299.824 176.789 300.981 175.632C302.176 174.475 303.146 173.299 303.893 172.104C304.677 170.909 305.069 169.733 305.069 168.576C305.069 165.104 303.109 163.368 299.189 163.368C297.285 163.368 295.4 163.704 293.533 164.376C291.704 165.048 290.005 165.981 288.437 167.176V157.712C290.117 156.555 292.077 155.659 294.317 155.024C296.557 154.352 298.946 154.016 301.485 154.016C304.397 154.016 306.917 154.557 309.045 155.64C311.173 156.723 312.797 158.216 313.917 160.12C315.037 162.024 315.597 164.171 315.597 166.56C315.597 169.435 314.925 171.955 313.581 174.12C312.274 176.248 310.146 178.656 307.197 181.344L302.213 185.88H316.829V194H287.037V188.344ZM351.103 194.84C347.481 194.84 344.308 194.037 341.583 192.432C338.857 190.789 336.748 188.437 335.255 185.376C333.799 182.315 333.071 178.675 333.071 174.456C333.071 170.237 333.799 166.597 335.255 163.536C336.711 160.475 338.783 158.123 341.471 156.48C344.196 154.837 347.407 154.016 351.103 154.016C354.799 154.016 357.991 154.837 360.679 156.48C363.404 158.123 365.495 160.475 366.951 163.536C368.407 166.597 369.135 170.237 369.135 174.456C369.135 178.675 368.388 182.315 366.895 185.376C365.439 188.437 363.348 190.789 360.623 192.432C357.897 194.037 354.724 194.84 351.103 194.84ZM351.103 185.544C353.604 185.544 355.545 184.573 356.927 182.632C358.308 180.691 358.999 178.003 358.999 174.568C358.999 171.096 358.308 168.371 356.927 166.392C355.583 164.376 353.641 163.368 351.103 163.368C348.564 163.368 346.604 164.376 345.223 166.392C343.879 168.371 343.207 171.096 343.207 174.568C343.207 178.003 343.897 180.691 345.279 182.632C346.66 184.573 348.601 185.544 351.103 185.544ZM393.345 165.888L385.393 171.656V161.912L395.025 154.856H403.257V194H393.345V165.888ZM433.087 194.84C430.324 194.84 427.954 194.523 425.975 193.888V185.488C427.692 186.384 429.802 186.832 432.303 186.832C435.14 186.832 437.455 186.085 439.247 184.592C441.076 183.099 442.178 180.877 442.551 177.928C441.655 178.861 440.423 179.608 438.855 180.168C437.287 180.691 435.588 180.952 433.759 180.952C431.183 180.952 428.906 180.429 426.927 179.384C424.948 178.339 423.399 176.827 422.279 174.848C421.159 172.869 420.599 170.517 420.599 167.792C420.599 165.141 421.196 162.789 422.391 160.736C423.623 158.645 425.434 157.003 427.823 155.808C430.25 154.613 433.18 154.016 436.615 154.016C441.804 154.016 445.818 155.621 448.655 158.832C451.53 162.005 452.967 166.392 452.967 171.992C452.967 176.845 452.108 180.989 450.391 184.424C448.711 187.859 446.378 190.453 443.391 192.208C440.404 193.963 436.97 194.84 433.087 194.84ZM436.615 173.336C438.258 173.336 439.639 172.776 440.759 171.656C441.879 170.536 442.439 169.173 442.439 167.568C442.439 165.925 441.879 164.544 440.759 163.424C439.639 162.304 438.258 161.744 436.615 161.744C435.01 161.744 433.647 162.323 432.527 163.48C431.407 164.6 430.847 165.963 430.847 167.568C430.847 169.173 431.407 170.536 432.527 171.656C433.647 172.776 435.01 173.336 436.615 173.336Z" fill="#202831"/>
</mask>
<g mask="url(#mask0_1701_77583)">
<path d="M270.256 -72.0783L210.11 137.61L248.989 155.566L309.135 -54.1222L270.256 -72.0783Z" fill="#EA4136"/>
<path fill-rule="evenodd" clip-rule="evenodd" d="M309.135 -54.1222L323.014 -102.512L424.896 -55.4579L396.866 -13.6036L309.135 -54.1222ZM248.989 155.566L275.4 167.765L247.37 209.619L235.109 203.956L248.989 155.566Z" fill="#EA4136"/>
<path fill-rule="evenodd" clip-rule="evenodd" d="M501.219 -7.4595L490.568 29.6727L416.542 287.751L455.421 305.707L543.327 -0.760944L507.74 -17.1966L501.219 -7.4595Z" fill="#EA4136"/>
<path d="M315.134 240.916L330.214 247.88L479.71 24.6577L438.336 5.54923L316.87 186.917L288.84 228.772L315.134 240.916Z" fill="#EA4136"/>
<path d="M438.336 5.54923L479.71 24.6577L501.219 -7.4595L504.448 -18.717L466.366 -36.305L438.336 5.54923Z" fill="#EA4136"/>
<path d="M479.71 24.6577L490.568 29.6727L501.219 -7.4595L479.71 24.6577Z" fill="#EA4136"/>
<path d="M507.74 -17.1966L504.448 -18.717L501.219 -7.4595L507.74 -17.1966Z" fill="#EA4136"/>
<path d="M210.11 137.61L196.23 186L235.109 203.956L248.989 155.566L210.11 137.61Z" fill="#EA4136"/>
<path d="M284.136 -120.468L270.256 -72.0783L309.135 -54.1222L323.014 -102.512L284.136 -120.468Z" fill="#EA4136"/>
<path d="M74.0259 -72.0783L13.8798 137.61L52.7585 155.566L112.905 -54.1222L74.0259 -72.0783Z" fill="#EA4136"/>
<path fill-rule="evenodd" clip-rule="evenodd" d="M112.905 -54.1222L126.784 -102.512L228.666 -55.4579L200.636 -13.6036L112.905 -54.1222ZM52.7585 155.566L79.1702 167.765L51.1397 209.619L38.8787 203.956L52.7585 155.566Z" fill="#EA4136"/>
<path fill-rule="evenodd" clip-rule="evenodd" d="M304.989 -7.4595L294.338 29.6727L220.312 287.751L259.191 305.707L347.097 -0.760944L311.51 -17.1966L304.989 -7.4595Z" fill="#EA4136"/>
<path d="M118.904 240.916L133.984 247.88L283.48 24.6577L242.106 5.54923L120.64 186.917L92.6097 228.772L118.904 240.916Z" fill="#EA4136"/>
<path d="M242.106 5.54923L283.48 24.6577L304.989 -7.4595L308.218 -18.717L270.136 -36.305L242.106 5.54923Z" fill="#EA4136"/>
<path d="M283.48 24.6577L294.338 29.6727L304.989 -7.4595L283.48 24.6577Z" fill="#EA4136"/>
<path d="M311.51 -17.1966L308.218 -18.717L304.989 -7.4595L311.51 -17.1966Z" fill="#EA4136"/>
<path d="M13.8798 137.61L0 186L38.8787 203.956L52.7585 155.566L13.8798 137.61Z" fill="#EA4136"/>
<path d="M87.9057 -120.468L74.0259 -72.0783L112.905 -54.1222L126.784 -102.512L87.9057 -120.468Z" fill="#EA4136"/>
<path d="M467.274 -72.0783L407.128 137.61L446.007 155.566L506.153 -54.1222L467.274 -72.0783Z" fill="#EA4136"/>
<path fill-rule="evenodd" clip-rule="evenodd" d="M506.153 -54.1222L520.032 -102.512L621.914 -55.4579L593.884 -13.6036L506.153 -54.1222ZM446.007 155.566L472.418 167.765L444.388 209.619L432.127 203.956L446.007 155.566Z" fill="#EA4136"/>
<path fill-rule="evenodd" clip-rule="evenodd" d="M698.237 -7.4595L687.586 29.6727L613.56 287.751L652.439 305.707L740.345 -0.760944L704.758 -17.1966L698.237 -7.4595Z" fill="#EA4136"/>
<path d="M512.152 240.916L527.232 247.88L676.728 24.6577L635.354 5.54923L513.888 186.917L485.858 228.772L512.152 240.916Z" fill="#EA4136"/>
<path d="M635.354 5.54923L676.728 24.6577L698.237 -7.4595L701.466 -18.717L663.384 -36.305L635.354 5.54923Z" fill="#EA4136"/>
<path d="M676.728 24.6577L687.586 29.6727L698.237 -7.4595L676.728 24.6577Z" fill="#EA4136"/>
<path d="M704.758 -17.1966L701.466 -18.717L698.237 -7.4595L704.758 -17.1966Z" fill="#EA4136"/>
<path d="M407.128 137.61L393.248 186L432.127 203.956L446.007 155.566L407.128 137.61Z" fill="#EA4136"/>
<path d="M481.154 -120.468L467.274 -72.0783L506.153 -54.1222L520.032 -102.512L481.154 -120.468Z" fill="#EA4136"/>
</g>
</svg>
