<svg width="520" height="150" viewBox="0 0 520 150" fill="none" xmlns="http://www.w3.org/2000/svg">
<path d="M27.1111 38.6C24.0711 38.6 21.3911 38.0133 19.0711 36.84C16.7778 35.6667 15.0044 33.9867 13.7511 31.8C12.4978 29.5867 11.8711 27 11.8711 24.04C11.8711 21.08 12.4978 18.5067 13.7511 16.32C15.0044 14.1067 16.7778 12.4133 19.0711 11.24C21.3911 10.04 24.0711 9.44 27.1111 9.44C29.1111 9.44 30.8978 9.64 32.4711 10.04C34.0444 10.44 35.4978 11.0667 36.8311 11.92V18.64C35.6578 17.7067 34.3244 17.0267 32.8311 16.6C31.3644 16.1733 29.6711 15.96 27.7511 15.96C25.0044 15.96 22.8844 16.68 21.3911 18.12C19.8978 19.5333 19.1511 21.5067 19.1511 24.04C19.1511 26.5733 19.8978 28.56 21.3911 30C22.9111 31.44 25.0311 32.16 27.7511 32.16C29.6711 32.16 31.3911 31.9333 32.9111 31.48C34.4311 31.0267 35.8444 30.3067 37.1511 29.32V36C34.6178 37.7333 31.2711 38.6 27.1111 38.6ZM49.5367 10.04H62.0967C65.3767 10.04 67.9367 10.8667 69.7767 12.52C71.6434 14.1733 72.5767 16.5467 72.5767 19.64C72.5767 21.72 72.1234 23.4933 71.2167 24.96C70.3101 26.4267 69.0301 27.52 67.3767 28.24L72.3367 38H65.0567L60.6167 29.24H56.6167V38H49.5367V10.04ZM60.8567 23.28C62.2701 23.28 63.3634 23.0133 64.1367 22.48C64.9101 21.92 65.2967 20.9733 65.2967 19.64C65.2967 18.2533 64.9101 17.3067 64.1367 16.8C63.3901 16.2667 62.2967 16 60.8567 16H56.6167V23.28H60.8567ZM84.9961 10.04H104.836V16H92.0761V21.24H101.396V26.8H92.0761V32.04H104.836V38H84.9961V10.04ZM127.652 10.04H134.612L145.772 38H138.532L136.292 32.24H125.972L123.732 38H116.452L127.652 10.04ZM134.532 26.8L131.132 17.4L127.692 26.8H134.532ZM159.66 16H151.78V10.04H174.66V16H166.74V38H159.66V16ZM186.452 10.04H193.532V38H186.452V10.04ZM206.716 10.04H213.716L223.996 26.68V10.04H231.076V38H224.116L213.796 21.32V38H206.716V10.04ZM258.725 38.6C255.685 38.6 253.005 38.0133 250.685 36.84C248.392 35.6667 246.618 33.9867 245.365 31.8C244.112 29.5867 243.485 27 243.485 24.04C243.485 21.08 244.112 18.5067 245.365 16.32C246.618 14.1067 248.392 12.4133 250.685 11.24C253.005 10.04 255.685 9.44 258.725 9.44C260.752 9.44 262.538 9.64 264.085 10.04C265.658 10.4133 267.112 11.0267 268.445 11.88V18.6C267.272 17.6667 265.938 17 264.445 16.6C262.978 16.1733 261.285 15.96 259.365 15.96C257.712 15.96 256.232 16.2933 254.925 16.96C253.645 17.6 252.632 18.5333 251.885 19.76C251.138 20.9867 250.765 22.4133 250.765 24.04C250.765 26.5733 251.498 28.5733 252.965 30.04C254.458 31.5067 256.472 32.24 259.005 32.24C260.418 32.24 261.605 32 262.565 31.52V27.04H258.285V22.08H269.285V36C266.432 37.7333 262.912 38.6 258.725 38.6ZM304.891 10.04H314.931C317.998 10.04 320.678 10.6 322.971 11.72C325.265 12.84 327.025 14.4533 328.251 16.56C329.505 18.64 330.131 21.08 330.131 23.88C330.131 28.52 328.771 32.04 326.051 34.44C323.331 36.8133 319.558 38 314.731 38H304.891V10.04ZM315.331 32.04C317.758 32.04 319.611 31.3067 320.891 29.84C322.198 28.3733 322.851 26.3867 322.851 23.88C322.851 21.5867 322.198 19.7067 320.891 18.24C319.611 16.7467 317.838 16 315.571 16H311.971V32.04H315.331ZM342.538 10.04H349.618V38H342.538V10.04ZM377.242 38.6C374.202 38.6 371.522 38.0133 369.202 36.84C366.909 35.6667 365.136 33.9867 363.882 31.8C362.629 29.5867 362.002 27 362.002 24.04C362.002 21.08 362.629 18.5067 363.882 16.32C365.136 14.1067 366.909 12.4133 369.202 11.24C371.522 10.04 374.202 9.44 377.242 9.44C379.269 9.44 381.056 9.64 382.602 10.04C384.176 10.4133 385.629 11.0267 386.962 11.88V18.6C385.789 17.6667 384.456 17 382.962 16.6C381.496 16.1733 379.802 15.96 377.882 15.96C376.229 15.96 374.749 16.2933 373.442 16.96C372.162 17.6 371.149 18.5333 370.402 19.76C369.656 20.9867 369.282 22.4133 369.282 24.04C369.282 26.5733 370.016 28.5733 371.482 30.04C372.976 31.5067 374.989 32.24 377.522 32.24C378.936 32.24 380.122 32 381.082 31.52V27.04H376.802V22.08H387.802V36C384.949 37.7333 381.429 38.6 377.242 38.6ZM400.215 10.04H407.295V38H400.215V10.04ZM426.959 16H419.079V10.04H441.959V16H434.039V38H426.959V16ZM459.151 10.04H466.111L477.271 38H470.031L467.791 32.24H457.471L455.231 38H447.951L459.151 10.04ZM466.031 26.8L462.631 17.4L459.191 26.8H466.031ZM489.679 10.04H496.759V32.04H508.919V38H489.679V10.04ZM49.1794 88.6C47.4194 88.6 45.6727 88.4267 43.9394 88.08C42.206 87.76 40.7794 87.3067 39.6594 86.72V80.36C41.0994 81.1067 42.5927 81.6667 44.1394 82.04C45.7127 82.4133 47.206 82.6 48.6194 82.6C49.926 82.6 50.9127 82.4 51.5794 82C52.246 81.6 52.5794 81.0267 52.5794 80.28C52.5794 79.72 52.3927 79.24 52.0194 78.84C51.6727 78.4133 51.1527 78.0267 50.4594 77.68C49.766 77.3333 48.686 76.8533 47.2194 76.24C44.6327 75.1467 42.7527 73.9333 41.5794 72.6C40.406 71.2667 39.8194 69.6267 39.8194 67.68C39.8194 66.08 40.2594 64.6533 41.1394 63.4C42.046 62.1467 43.2994 61.1733 44.8994 60.48C46.4994 59.7867 48.3394 59.44 50.4194 59.44C52.126 59.44 53.646 59.5733 54.9794 59.84C56.3127 60.1067 57.5927 60.5333 58.8194 61.12V67.32C56.4727 66.0933 54.1127 65.48 51.7394 65.48C50.4594 65.48 49.4327 65.6933 48.6594 66.12C47.9127 66.52 47.5394 67.1067 47.5394 67.88C47.5394 68.6533 47.926 69.28 48.6994 69.76C49.4727 70.24 50.8994 70.8933 52.9794 71.72C54.8727 72.4933 56.3394 73.2533 57.3794 74C58.446 74.7467 59.2194 75.6133 59.6994 76.6C60.1794 77.5867 60.4194 78.84 60.4194 80.36C60.4194 82.9467 59.4727 84.9733 57.5794 86.44C55.7127 87.88 52.9127 88.6 49.1794 88.6ZM72.8328 60.04H92.6728V66H79.9128V71.24H89.2328V76.8H79.9128V82.04H92.6728V88H72.8328V60.04ZM105.089 60.04H117.649C120.929 60.04 123.489 60.8667 125.329 62.52C127.196 64.1733 128.129 66.5467 128.129 69.64C128.129 71.72 127.676 73.4933 126.769 74.96C125.862 76.4267 124.582 77.52 122.929 78.24L127.889 88H120.609L116.169 79.24H112.169V88H105.089V60.04ZM116.409 73.28C117.822 73.28 118.916 73.0133 119.689 72.48C120.462 71.92 120.849 70.9733 120.849 69.64C120.849 68.2533 120.462 67.3067 119.689 66.8C118.942 66.2667 117.849 66 116.409 66H112.169V73.28H116.409ZM137.131 60.04H144.691L151.811 78.64L158.931 60.04H166.451L155.291 88H148.331L137.131 60.04ZM178.859 60.04H185.939V88H178.859V60.04ZM213.563 88.6C210.523 88.6 207.843 88.0133 205.523 86.84C203.23 85.6667 201.457 83.9867 200.203 81.8C198.95 79.5867 198.323 77 198.323 74.04C198.323 71.08 198.95 68.5067 200.203 66.32C201.457 64.1067 203.23 62.4133 205.523 61.24C207.843 60.04 210.523 59.44 213.563 59.44C215.563 59.44 217.35 59.64 218.923 60.04C220.497 60.44 221.95 61.0667 223.283 61.92V68.64C222.11 67.7067 220.777 67.0267 219.283 66.6C217.817 66.1733 216.123 65.96 214.203 65.96C211.457 65.96 209.337 66.68 207.843 68.12C206.35 69.5333 205.603 71.5067 205.603 74.04C205.603 76.5733 206.35 78.56 207.843 80C209.363 81.44 211.483 82.16 214.203 82.16C216.123 82.16 217.843 81.9333 219.363 81.48C220.883 81.0267 222.297 80.3067 223.603 79.32V86C221.07 87.7333 217.723 88.6 213.563 88.6ZM235.989 60.04H255.829V66H243.069V71.24H252.389V76.8H243.069V82.04H255.829V88H235.989V60.04ZM276.965 88.6C275.205 88.6 273.459 88.4267 271.725 88.08C269.992 87.76 268.565 87.3067 267.445 86.72V80.36C268.885 81.1067 270.379 81.6667 271.925 82.04C273.499 82.4133 274.992 82.6 276.405 82.6C277.712 82.6 278.699 82.4 279.365 82C280.032 81.6 280.365 81.0267 280.365 80.28C280.365 79.72 280.179 79.24 279.805 78.84C279.459 78.4133 278.939 78.0267 278.245 77.68C277.552 77.3333 276.472 76.8533 275.005 76.24C272.419 75.1467 270.539 73.9333 269.365 72.6C268.192 71.2667 267.605 69.6267 267.605 67.68C267.605 66.08 268.045 64.6533 268.925 63.4C269.832 62.1467 271.085 61.1733 272.685 60.48C274.285 59.7867 276.125 59.44 278.205 59.44C279.912 59.44 281.432 59.5733 282.765 59.84C284.099 60.1067 285.379 60.5333 286.605 61.12V67.32C284.259 66.0933 281.899 65.48 279.525 65.48C278.245 65.48 277.219 65.6933 276.445 66.12C275.699 66.52 275.325 67.1067 275.325 67.88C275.325 68.6533 275.712 69.28 276.485 69.76C277.259 70.24 278.685 70.8933 280.765 71.72C282.659 72.4933 284.125 73.2533 285.165 74C286.232 74.7467 287.005 75.6133 287.485 76.6C287.965 77.5867 288.205 78.84 288.205 80.36C288.205 82.9467 287.259 84.9733 285.365 86.44C283.499 87.88 280.699 88.6 276.965 88.6ZM332.533 88.6C330.773 88.6 329.026 88.4267 327.293 88.08C325.559 87.76 324.133 87.3067 323.013 86.72V80.36C324.453 81.1067 325.946 81.6667 327.493 82.04C329.066 82.4133 330.559 82.6 331.973 82.6C333.279 82.6 334.266 82.4 334.933 82C335.599 81.6 335.933 81.0267 335.933 80.28C335.933 79.72 335.746 79.24 335.373 78.84C335.026 78.4133 334.506 78.0267 333.813 77.68C333.119 77.3333 332.039 76.8533 330.573 76.24C327.986 75.1467 326.106 73.9333 324.933 72.6C323.759 71.2667 323.173 69.6267 323.173 67.68C323.173 66.08 323.613 64.6533 324.493 63.4C325.399 62.1467 326.653 61.1733 328.253 60.48C329.853 59.7867 331.693 59.44 333.773 59.44C335.479 59.44 336.999 59.5733 338.333 59.84C339.666 60.1067 340.946 60.5333 342.173 61.12V67.32C339.826 66.0933 337.466 65.48 335.093 65.48C333.813 65.48 332.786 65.6933 332.013 66.12C331.266 66.52 330.893 67.1067 330.893 67.88C330.893 68.6533 331.279 69.28 332.053 69.76C332.826 70.24 334.253 70.8933 336.333 71.72C338.226 72.4933 339.693 73.2533 340.733 74C341.799 74.7467 342.573 75.6133 343.053 76.6C343.533 77.5867 343.773 78.84 343.773 80.36C343.773 82.9467 342.826 84.9733 340.933 86.44C339.066 87.88 336.266 88.6 332.533 88.6ZM356.186 60.04H363.266V88H356.186V60.04ZM376.45 60.04H383.45L393.73 76.68V60.04H400.81V88H393.85L383.53 71.32V88H376.45V60.04ZM428.459 88.6C425.419 88.6 422.739 88.0133 420.419 86.84C418.125 85.6667 416.352 83.9867 415.099 81.8C413.845 79.5867 413.219 77 413.219 74.04C413.219 71.08 413.845 68.5067 415.099 66.32C416.352 64.1067 418.125 62.4133 420.419 61.24C422.739 60.04 425.419 59.44 428.459 59.44C430.459 59.44 432.245 59.64 433.819 60.04C435.392 60.44 436.845 61.0667 438.179 61.92V68.64C437.005 67.7067 435.672 67.0267 434.179 66.6C432.712 66.1733 431.019 65.96 429.099 65.96C426.352 65.96 424.232 66.68 422.739 68.12C421.245 69.5333 420.499 71.5067 420.499 74.04C420.499 76.5733 421.245 78.56 422.739 80C424.259 81.44 426.379 82.16 429.099 82.16C431.019 82.16 432.739 81.9333 434.259 81.48C435.779 81.0267 437.192 80.3067 438.499 79.32V86C435.965 87.7333 432.619 88.6 428.459 88.6ZM450.884 60.04H470.724V66H457.964V71.24H467.284V76.8H457.964V82.04H470.724V88H450.884V60.04ZM200.741 133.96L205.181 129.92L207.101 128.2C208.674 126.813 209.874 125.707 210.701 124.88C211.554 124.053 212.247 123.213 212.781 122.36C213.341 121.507 213.621 120.667 213.621 119.84C213.621 117.36 212.221 116.12 209.421 116.12C208.061 116.12 206.714 116.36 205.381 116.84C204.074 117.32 202.861 117.987 201.741 118.84V112.08C202.941 111.253 204.341 110.613 205.941 110.16C207.541 109.68 209.247 109.44 211.061 109.44C213.141 109.44 214.941 109.827 216.461 110.6C217.981 111.373 219.141 112.44 219.941 113.8C220.741 115.16 221.141 116.693 221.141 118.4C221.141 120.453 220.661 122.253 219.701 123.8C218.767 125.32 217.247 127.04 215.141 128.96L211.581 132.2H222.021V138H200.741V133.96ZM246.502 138.6C243.915 138.6 241.649 138.027 239.702 136.88C237.755 135.707 236.249 134.027 235.182 131.84C234.142 129.653 233.622 127.053 233.622 124.04C233.622 121.027 234.142 118.427 235.182 116.24C236.222 114.053 237.702 112.373 239.622 111.2C241.569 110.027 243.862 109.44 246.502 109.44C249.142 109.44 251.422 110.027 253.342 111.2C255.289 112.373 256.782 114.053 257.822 116.24C258.862 118.427 259.382 121.027 259.382 124.04C259.382 127.053 258.849 129.653 257.782 131.84C256.742 134.027 255.249 135.707 253.302 136.88C251.355 138.027 249.089 138.6 246.502 138.6ZM246.502 131.96C248.289 131.96 249.675 131.267 250.662 129.88C251.649 128.493 252.142 126.573 252.142 124.12C252.142 121.64 251.649 119.693 250.662 118.28C249.702 116.84 248.315 116.12 246.502 116.12C244.689 116.12 243.289 116.84 242.302 118.28C241.342 119.693 240.862 121.64 240.862 124.12C240.862 126.573 241.355 128.493 242.342 129.88C243.329 131.267 244.715 131.96 246.502 131.96ZM276.675 117.92L270.995 122.04V115.08L277.875 110.04H283.755V138H276.675V117.92ZM305.062 138.6C303.089 138.6 301.396 138.373 299.982 137.92V131.92C301.209 132.56 302.716 132.88 304.502 132.88C306.529 132.88 308.182 132.347 309.462 131.28C310.769 130.213 311.556 128.627 311.822 126.52C311.182 127.187 310.302 127.72 309.182 128.12C308.062 128.493 306.849 128.68 305.542 128.68C303.702 128.68 302.076 128.307 300.662 127.56C299.249 126.813 298.142 125.733 297.342 124.32C296.542 122.907 296.142 121.227 296.142 119.28C296.142 117.387 296.569 115.707 297.422 114.24C298.302 112.747 299.596 111.573 301.302 110.72C303.036 109.867 305.129 109.44 307.582 109.44C311.289 109.44 314.156 110.587 316.182 112.88C318.236 115.147 319.262 118.28 319.262 122.28C319.262 125.747 318.649 128.707 317.422 131.16C316.222 133.613 314.556 135.467 312.422 136.72C310.289 137.973 307.836 138.6 305.062 138.6ZM307.582 123.24C308.756 123.24 309.742 122.84 310.542 122.04C311.342 121.24 311.742 120.267 311.742 119.12C311.742 117.947 311.342 116.96 310.542 116.16C309.742 115.36 308.756 114.96 307.582 114.96C306.436 114.96 305.462 115.373 304.662 116.2C303.862 117 303.462 117.973 303.462 119.12C303.462 120.267 303.862 121.24 304.662 122.04C305.462 122.84 306.436 123.24 307.582 123.24Z" fill="#202831"/>
<mask id="mask0_1701_77412" style="mask-type:alpha" maskUnits="userSpaceOnUse" x="11" y="9" width="498" height="130">
<path d="M27.1111 38.6C24.0711 38.6 21.3911 38.0133 19.0711 36.84C16.7778 35.6667 15.0044 33.9867 13.7511 31.8C12.4978 29.5867 11.8711 27 11.8711 24.04C11.8711 21.08 12.4978 18.5067 13.7511 16.32C15.0044 14.1067 16.7778 12.4133 19.0711 11.24C21.3911 10.04 24.0711 9.44 27.1111 9.44C29.1111 9.44 30.8978 9.64 32.4711 10.04C34.0444 10.44 35.4978 11.0667 36.8311 11.92V18.64C35.6578 17.7067 34.3244 17.0267 32.8311 16.6C31.3644 16.1733 29.6711 15.96 27.7511 15.96C25.0044 15.96 22.8844 16.68 21.3911 18.12C19.8978 19.5333 19.1511 21.5067 19.1511 24.04C19.1511 26.5733 19.8978 28.56 21.3911 30C22.9111 31.44 25.0311 32.16 27.7511 32.16C29.6711 32.16 31.3911 31.9333 32.9111 31.48C34.4311 31.0267 35.8444 30.3067 37.1511 29.32V36C34.6178 37.7333 31.2711 38.6 27.1111 38.6ZM49.5367 10.04H62.0967C65.3767 10.04 67.9367 10.8667 69.7767 12.52C71.6434 14.1733 72.5767 16.5467 72.5767 19.64C72.5767 21.72 72.1234 23.4933 71.2167 24.96C70.3101 26.4267 69.0301 27.52 67.3767 28.24L72.3367 38H65.0567L60.6167 29.24H56.6167V38H49.5367V10.04ZM60.8567 23.28C62.2701 23.28 63.3634 23.0133 64.1367 22.48C64.9101 21.92 65.2967 20.9733 65.2967 19.64C65.2967 18.2533 64.9101 17.3067 64.1367 16.8C63.3901 16.2667 62.2967 16 60.8567 16H56.6167V23.28H60.8567ZM84.9961 10.04H104.836V16H92.0761V21.24H101.396V26.8H92.0761V32.04H104.836V38H84.9961V10.04ZM127.652 10.04H134.612L145.772 38H138.532L136.292 32.24H125.972L123.732 38H116.452L127.652 10.04ZM134.532 26.8L131.132 17.4L127.692 26.8H134.532ZM159.66 16H151.78V10.04H174.66V16H166.74V38H159.66V16ZM186.452 10.04H193.532V38H186.452V10.04ZM206.716 10.04H213.716L223.996 26.68V10.04H231.076V38H224.116L213.796 21.32V38H206.716V10.04ZM258.725 38.6C255.685 38.6 253.005 38.0133 250.685 36.84C248.392 35.6667 246.618 33.9867 245.365 31.8C244.112 29.5867 243.485 27 243.485 24.04C243.485 21.08 244.112 18.5067 245.365 16.32C246.618 14.1067 248.392 12.4133 250.685 11.24C253.005 10.04 255.685 9.44 258.725 9.44C260.752 9.44 262.538 9.64 264.085 10.04C265.658 10.4133 267.112 11.0267 268.445 11.88V18.6C267.272 17.6667 265.938 17 264.445 16.6C262.978 16.1733 261.285 15.96 259.365 15.96C257.712 15.96 256.232 16.2933 254.925 16.96C253.645 17.6 252.632 18.5333 251.885 19.76C251.138 20.9867 250.765 22.4133 250.765 24.04C250.765 26.5733 251.498 28.5733 252.965 30.04C254.458 31.5067 256.472 32.24 259.005 32.24C260.418 32.24 261.605 32 262.565 31.52V27.04H258.285V22.08H269.285V36C266.432 37.7333 262.912 38.6 258.725 38.6ZM304.891 10.04H314.931C317.998 10.04 320.678 10.6 322.971 11.72C325.265 12.84 327.025 14.4533 328.251 16.56C329.505 18.64 330.131 21.08 330.131 23.88C330.131 28.52 328.771 32.04 326.051 34.44C323.331 36.8133 319.558 38 314.731 38H304.891V10.04ZM315.331 32.04C317.758 32.04 319.611 31.3067 320.891 29.84C322.198 28.3733 322.851 26.3867 322.851 23.88C322.851 21.5867 322.198 19.7067 320.891 18.24C319.611 16.7467 317.838 16 315.571 16H311.971V32.04H315.331ZM342.538 10.04H349.618V38H342.538V10.04ZM377.242 38.6C374.202 38.6 371.522 38.0133 369.202 36.84C366.909 35.6667 365.136 33.9867 363.882 31.8C362.629 29.5867 362.002 27 362.002 24.04C362.002 21.08 362.629 18.5067 363.882 16.32C365.136 14.1067 366.909 12.4133 369.202 11.24C371.522 10.04 374.202 9.44 377.242 9.44C379.269 9.44 381.056 9.64 382.602 10.04C384.176 10.4133 385.629 11.0267 386.962 11.88V18.6C385.789 17.6667 384.456 17 382.962 16.6C381.496 16.1733 379.802 15.96 377.882 15.96C376.229 15.96 374.749 16.2933 373.442 16.96C372.162 17.6 371.149 18.5333 370.402 19.76C369.656 20.9867 369.282 22.4133 369.282 24.04C369.282 26.5733 370.016 28.5733 371.482 30.04C372.976 31.5067 374.989 32.24 377.522 32.24C378.936 32.24 380.122 32 381.082 31.52V27.04H376.802V22.08H387.802V36C384.949 37.7333 381.429 38.6 377.242 38.6ZM400.215 10.04H407.295V38H400.215V10.04ZM426.959 16H419.079V10.04H441.959V16H434.039V38H426.959V16ZM459.151 10.04H466.111L477.271 38H470.031L467.791 32.24H457.471L455.231 38H447.951L459.151 10.04ZM466.031 26.8L462.631 17.4L459.191 26.8H466.031ZM489.679 10.04H496.759V32.04H508.919V38H489.679V10.04ZM49.1794 88.6C47.4194 88.6 45.6727 88.4267 43.9394 88.08C42.206 87.76 40.7794 87.3067 39.6594 86.72V80.36C41.0994 81.1067 42.5927 81.6667 44.1394 82.04C45.7127 82.4133 47.206 82.6 48.6194 82.6C49.926 82.6 50.9127 82.4 51.5794 82C52.246 81.6 52.5794 81.0267 52.5794 80.28C52.5794 79.72 52.3927 79.24 52.0194 78.84C51.6727 78.4133 51.1527 78.0267 50.4594 77.68C49.766 77.3333 48.686 76.8533 47.2194 76.24C44.6327 75.1467 42.7527 73.9333 41.5794 72.6C40.406 71.2667 39.8194 69.6267 39.8194 67.68C39.8194 66.08 40.2594 64.6533 41.1394 63.4C42.046 62.1467 43.2994 61.1733 44.8994 60.48C46.4994 59.7867 48.3394 59.44 50.4194 59.44C52.126 59.44 53.646 59.5733 54.9794 59.84C56.3127 60.1067 57.5927 60.5333 58.8194 61.12V67.32C56.4727 66.0933 54.1127 65.48 51.7394 65.48C50.4594 65.48 49.4327 65.6933 48.6594 66.12C47.9127 66.52 47.5394 67.1067 47.5394 67.88C47.5394 68.6533 47.926 69.28 48.6994 69.76C49.4727 70.24 50.8994 70.8933 52.9794 71.72C54.8727 72.4933 56.3394 73.2533 57.3794 74C58.446 74.7467 59.2194 75.6133 59.6994 76.6C60.1794 77.5867 60.4194 78.84 60.4194 80.36C60.4194 82.9467 59.4727 84.9733 57.5794 86.44C55.7127 87.88 52.9127 88.6 49.1794 88.6ZM72.8328 60.04H92.6728V66H79.9128V71.24H89.2328V76.8H79.9128V82.04H92.6728V88H72.8328V60.04ZM105.089 60.04H117.649C120.929 60.04 123.489 60.8667 125.329 62.52C127.196 64.1733 128.129 66.5467 128.129 69.64C128.129 71.72 127.676 73.4933 126.769 74.96C125.862 76.4267 124.582 77.52 122.929 78.24L127.889 88H120.609L116.169 79.24H112.169V88H105.089V60.04ZM116.409 73.28C117.822 73.28 118.916 73.0133 119.689 72.48C120.462 71.92 120.849 70.9733 120.849 69.64C120.849 68.2533 120.462 67.3067 119.689 66.8C118.942 66.2667 117.849 66 116.409 66H112.169V73.28H116.409ZM137.131 60.04H144.691L151.811 78.64L158.931 60.04H166.451L155.291 88H148.331L137.131 60.04ZM178.859 60.04H185.939V88H178.859V60.04ZM213.563 88.6C210.523 88.6 207.843 88.0133 205.523 86.84C203.23 85.6667 201.457 83.9867 200.203 81.8C198.95 79.5867 198.323 77 198.323 74.04C198.323 71.08 198.95 68.5067 200.203 66.32C201.457 64.1067 203.23 62.4133 205.523 61.24C207.843 60.04 210.523 59.44 213.563 59.44C215.563 59.44 217.35 59.64 218.923 60.04C220.497 60.44 221.95 61.0667 223.283 61.92V68.64C222.11 67.7067 220.777 67.0267 219.283 66.6C217.817 66.1733 216.123 65.96 214.203 65.96C211.457 65.96 209.337 66.68 207.843 68.12C206.35 69.5333 205.603 71.5067 205.603 74.04C205.603 76.5733 206.35 78.56 207.843 80C209.363 81.44 211.483 82.16 214.203 82.16C216.123 82.16 217.843 81.9333 219.363 81.48C220.883 81.0267 222.297 80.3067 223.603 79.32V86C221.07 87.7333 217.723 88.6 213.563 88.6ZM235.989 60.04H255.829V66H243.069V71.24H252.389V76.8H243.069V82.04H255.829V88H235.989V60.04ZM276.965 88.6C275.205 88.6 273.459 88.4267 271.725 88.08C269.992 87.76 268.565 87.3067 267.445 86.72V80.36C268.885 81.1067 270.379 81.6667 271.925 82.04C273.499 82.4133 274.992 82.6 276.405 82.6C277.712 82.6 278.699 82.4 279.365 82C280.032 81.6 280.365 81.0267 280.365 80.28C280.365 79.72 280.179 79.24 279.805 78.84C279.459 78.4133 278.939 78.0267 278.245 77.68C277.552 77.3333 276.472 76.8533 275.005 76.24C272.419 75.1467 270.539 73.9333 269.365 72.6C268.192 71.2667 267.605 69.6267 267.605 67.68C267.605 66.08 268.045 64.6533 268.925 63.4C269.832 62.1467 271.085 61.1733 272.685 60.48C274.285 59.7867 276.125 59.44 278.205 59.44C279.912 59.44 281.432 59.5733 282.765 59.84C284.099 60.1067 285.379 60.5333 286.605 61.12V67.32C284.259 66.0933 281.899 65.48 279.525 65.48C278.245 65.48 277.219 65.6933 276.445 66.12C275.699 66.52 275.325 67.1067 275.325 67.88C275.325 68.6533 275.712 69.28 276.485 69.76C277.259 70.24 278.685 70.8933 280.765 71.72C282.659 72.4933 284.125 73.2533 285.165 74C286.232 74.7467 287.005 75.6133 287.485 76.6C287.965 77.5867 288.205 78.84 288.205 80.36C288.205 82.9467 287.259 84.9733 285.365 86.44C283.499 87.88 280.699 88.6 276.965 88.6ZM332.533 88.6C330.773 88.6 329.026 88.4267 327.293 88.08C325.559 87.76 324.133 87.3067 323.013 86.72V80.36C324.453 81.1067 325.946 81.6667 327.493 82.04C329.066 82.4133 330.559 82.6 331.973 82.6C333.279 82.6 334.266 82.4 334.933 82C335.599 81.6 335.933 81.0267 335.933 80.28C335.933 79.72 335.746 79.24 335.373 78.84C335.026 78.4133 334.506 78.0267 333.813 77.68C333.119 77.3333 332.039 76.8533 330.573 76.24C327.986 75.1467 326.106 73.9333 324.933 72.6C323.759 71.2667 323.173 69.6267 323.173 67.68C323.173 66.08 323.613 64.6533 324.493 63.4C325.399 62.1467 326.653 61.1733 328.253 60.48C329.853 59.7867 331.693 59.44 333.773 59.44C335.479 59.44 336.999 59.5733 338.333 59.84C339.666 60.1067 340.946 60.5333 342.173 61.12V67.32C339.826 66.0933 337.466 65.48 335.093 65.48C333.813 65.48 332.786 65.6933 332.013 66.12C331.266 66.52 330.893 67.1067 330.893 67.88C330.893 68.6533 331.279 69.28 332.053 69.76C332.826 70.24 334.253 70.8933 336.333 71.72C338.226 72.4933 339.693 73.2533 340.733 74C341.799 74.7467 342.573 75.6133 343.053 76.6C343.533 77.5867 343.773 78.84 343.773 80.36C343.773 82.9467 342.826 84.9733 340.933 86.44C339.066 87.88 336.266 88.6 332.533 88.6ZM356.186 60.04H363.266V88H356.186V60.04ZM376.45 60.04H383.45L393.73 76.68V60.04H400.81V88H393.85L383.53 71.32V88H376.45V60.04ZM428.459 88.6C425.419 88.6 422.739 88.0133 420.419 86.84C418.125 85.6667 416.352 83.9867 415.099 81.8C413.845 79.5867 413.219 77 413.219 74.04C413.219 71.08 413.845 68.5067 415.099 66.32C416.352 64.1067 418.125 62.4133 420.419 61.24C422.739 60.04 425.419 59.44 428.459 59.44C430.459 59.44 432.245 59.64 433.819 60.04C435.392 60.44 436.845 61.0667 438.179 61.92V68.64C437.005 67.7067 435.672 67.0267 434.179 66.6C432.712 66.1733 431.019 65.96 429.099 65.96C426.352 65.96 424.232 66.68 422.739 68.12C421.245 69.5333 420.499 71.5067 420.499 74.04C420.499 76.5733 421.245 78.56 422.739 80C424.259 81.44 426.379 82.16 429.099 82.16C431.019 82.16 432.739 81.9333 434.259 81.48C435.779 81.0267 437.192 80.3067 438.499 79.32V86C435.965 87.7333 432.619 88.6 428.459 88.6ZM450.884 60.04H470.724V66H457.964V71.24H467.284V76.8H457.964V82.04H470.724V88H450.884V60.04ZM200.741 133.96L205.181 129.92L207.101 128.2C208.674 126.813 209.874 125.707 210.701 124.88C211.554 124.053 212.247 123.213 212.781 122.36C213.341 121.507 213.621 120.667 213.621 119.84C213.621 117.36 212.221 116.12 209.421 116.12C208.061 116.12 206.714 116.36 205.381 116.84C204.074 117.32 202.861 117.987 201.741 118.84V112.08C202.941 111.253 204.341 110.613 205.941 110.16C207.541 109.68 209.247 109.44 211.061 109.44C213.141 109.44 214.941 109.827 216.461 110.6C217.981 111.373 219.141 112.44 219.941 113.8C220.741 115.16 221.141 116.693 221.141 118.4C221.141 120.453 220.661 122.253 219.701 123.8C218.767 125.32 217.247 127.04 215.141 128.96L211.581 132.2H222.021V138H200.741V133.96ZM246.502 138.6C243.915 138.6 241.649 138.027 239.702 136.88C237.755 135.707 236.249 134.027 235.182 131.84C234.142 129.653 233.622 127.053 233.622 124.04C233.622 121.027 234.142 118.427 235.182 116.24C236.222 114.053 237.702 112.373 239.622 111.2C241.569 110.027 243.862 109.44 246.502 109.44C249.142 109.44 251.422 110.027 253.342 111.2C255.289 112.373 256.782 114.053 257.822 116.24C258.862 118.427 259.382 121.027 259.382 124.04C259.382 127.053 258.849 129.653 257.782 131.84C256.742 134.027 255.249 135.707 253.302 136.88C251.355 138.027 249.089 138.6 246.502 138.6ZM246.502 131.96C248.289 131.96 249.675 131.267 250.662 129.88C251.649 128.493 252.142 126.573 252.142 124.12C252.142 121.64 251.649 119.693 250.662 118.28C249.702 116.84 248.315 116.12 246.502 116.12C244.689 116.12 243.289 116.84 242.302 118.28C241.342 119.693 240.862 121.64 240.862 124.12C240.862 126.573 241.355 128.493 242.342 129.88C243.329 131.267 244.715 131.96 246.502 131.96ZM276.675 117.92L270.995 122.04V115.08L277.875 110.04H283.755V138H276.675V117.92ZM305.062 138.6C303.089 138.6 301.396 138.373 299.982 137.92V131.92C301.209 132.56 302.716 132.88 304.502 132.88C306.529 132.88 308.182 132.347 309.462 131.28C310.769 130.213 311.556 128.627 311.822 126.52C311.182 127.187 310.302 127.72 309.182 128.12C308.062 128.493 306.849 128.68 305.542 128.68C303.702 128.68 302.076 128.307 300.662 127.56C299.249 126.813 298.142 125.733 297.342 124.32C296.542 122.907 296.142 121.227 296.142 119.28C296.142 117.387 296.569 115.707 297.422 114.24C298.302 112.747 299.596 111.573 301.302 110.72C303.036 109.867 305.129 109.44 307.582 109.44C311.289 109.44 314.156 110.587 316.182 112.88C318.236 115.147 319.262 118.28 319.262 122.28C319.262 125.747 318.649 128.707 317.422 131.16C316.222 133.613 314.556 135.467 312.422 136.72C310.289 137.973 307.836 138.6 305.062 138.6ZM307.582 123.24C308.756 123.24 309.742 122.84 310.542 122.04C311.342 121.24 311.742 120.267 311.742 119.12C311.742 117.947 311.342 116.96 310.542 116.16C309.742 115.36 308.756 114.96 307.582 114.96C306.436 114.96 305.462 115.373 304.662 116.2C303.862 117 303.462 117.973 303.462 119.12C303.462 120.267 303.862 121.24 304.662 122.04C305.462 122.84 306.436 123.24 307.582 123.24Z" fill="#202831"/>
</mask>
<g mask="url(#mask0_1701_77412)">
<path d="M189.91 -137.078L147.645 72.6103L174.965 90.5664L217.23 -119.122L189.91 -137.078Z" fill="#EA4136"/>
<path fill-rule="evenodd" clip-rule="evenodd" d="M217.23 -119.122L226.983 -167.512L298.576 -120.458L278.879 -78.6036L217.23 -119.122ZM174.965 90.5664L193.524 102.765L173.827 144.619L165.211 138.956L174.965 90.5664Z" fill="#EA4136"/>
<path fill-rule="evenodd" clip-rule="evenodd" d="M352.208 -72.4595L344.724 -35.3273L292.705 222.751L320.026 240.707L381.797 -65.7609L356.79 -82.1966L352.208 -72.4595Z" fill="#EA4136"/>
<path d="M221.445 175.916L232.042 182.88L337.093 -40.3423L308.02 -59.4508L222.666 121.917L202.968 163.772L221.445 175.916Z" fill="#EA4136"/>
<path d="M308.02 -59.4508L337.093 -40.3423L352.208 -72.4595L354.477 -83.717L327.717 -101.305L308.02 -59.4508Z" fill="#EA4136"/>
<path d="M337.093 -40.3423L344.724 -35.3273L352.208 -72.4595L337.093 -40.3423Z" fill="#EA4136"/>
<path d="M356.79 -82.1966L354.477 -83.717L352.208 -72.4595L356.79 -82.1966Z" fill="#EA4136"/>
<path d="M147.645 72.6103L137.891 121L165.211 138.956L174.965 90.5664L147.645 72.6103Z" fill="#EA4136"/>
<path d="M199.663 -185.468L189.91 -137.078L217.23 -119.122L226.983 -167.512L199.663 -185.468Z" fill="#EA4136"/>
<path d="M52.0182 -137.078L9.75341 72.6103L37.0735 90.5664L79.3383 -119.122L52.0182 -137.078Z" fill="#EA4136"/>
<path fill-rule="evenodd" clip-rule="evenodd" d="M79.3383 -119.122L89.0917 -167.512L160.684 -120.458L140.987 -78.6036L79.3383 -119.122ZM37.0735 90.5664L55.6331 102.765L35.936 144.619L27.3201 138.956L37.0735 90.5664Z" fill="#EA4136"/>
<path fill-rule="evenodd" clip-rule="evenodd" d="M214.317 -72.4595L206.832 -35.3273L154.814 222.751L182.134 240.707L243.906 -65.7609L218.899 -82.1966L214.317 -72.4595Z" fill="#EA4136"/>
<path d="M83.5541 175.916L94.1506 182.88L199.202 -40.3423L170.128 -59.4508L84.7742 121.917L65.0771 163.772L83.5541 175.916Z" fill="#EA4136"/>
<path d="M170.128 -59.4508L199.202 -40.3423L214.317 -72.4595L216.586 -83.717L189.826 -101.305L170.128 -59.4508Z" fill="#EA4136"/>
<path d="M199.202 -40.3423L206.832 -35.3273L214.317 -72.4595L199.202 -40.3423Z" fill="#EA4136"/>
<path d="M218.899 -82.1966L216.586 -83.717L214.317 -72.4595L218.899 -82.1966Z" fill="#EA4136"/>
<path d="M9.75341 72.6103L0 121L27.3201 138.956L37.0735 90.5664L9.75341 72.6103Z" fill="#EA4136"/>
<path d="M61.7716 -185.468L52.0182 -137.078L79.3383 -119.122L89.0917 -167.512L61.7716 -185.468Z" fill="#EA4136"/>
<path d="M328.354 -137.078L286.09 72.6103L313.41 90.5664L355.674 -119.122L328.354 -137.078Z" fill="#EA4136"/>
<path fill-rule="evenodd" clip-rule="evenodd" d="M355.674 -119.122L365.428 -167.512L437.021 -120.458L417.324 -78.6036L355.674 -119.122ZM313.41 90.5664L331.969 102.765L312.272 144.619L303.656 138.956L313.41 90.5664Z" fill="#EA4136"/>
<path fill-rule="evenodd" clip-rule="evenodd" d="M490.653 -72.4595L483.168 -35.3273L431.15 222.751L458.47 240.707L520.242 -65.7609L495.235 -82.1966L490.653 -72.4595Z" fill="#EA4136"/>
<path d="M359.89 175.916L370.487 182.88L475.538 -40.3423L446.465 -59.4508L361.11 121.917L341.413 163.772L359.89 175.916Z" fill="#EA4136"/>
<path d="M446.465 -59.4508L475.538 -40.3423L490.653 -72.4595L492.922 -83.717L466.162 -101.305L446.465 -59.4508Z" fill="#EA4136"/>
<path d="M475.538 -40.3423L483.168 -35.3273L490.653 -72.4595L475.538 -40.3423Z" fill="#EA4136"/>
<path d="M495.235 -82.1966L492.922 -83.717L490.653 -72.4595L495.235 -82.1966Z" fill="#EA4136"/>
<path d="M286.09 72.6103L276.336 121L303.656 138.956L313.41 90.5664L286.09 72.6103Z" fill="#EA4136"/>
<path d="M338.108 -185.468L328.354 -137.078L355.674 -119.122L365.428 -167.512L338.108 -185.468Z" fill="#EA4136"/>
</g>
</svg>
