<svg width="520" height="100" viewBox="0 0 520 100" fill="none" xmlns="http://www.w3.org/2000/svg">
<path d="M22.8031 10.04H35.1231C38.3765 10.04 40.9765 10.8933 42.9231 12.6C44.8698 14.3067 45.8431 16.6933 45.8431 19.76C45.8431 22.9067 44.8698 25.3467 42.9231 27.08C41.0031 28.7867 38.4031 29.64 35.1231 29.64H29.8831V38H22.8031V10.04ZM34.0031 23.68C35.4165 23.68 36.5231 23.3867 37.3231 22.8C38.1498 22.2133 38.5631 21.2 38.5631 19.76C38.5631 18.32 38.1631 17.3333 37.3631 16.8C36.5631 16.2667 35.4431 16 34.0031 16H29.8831V23.68H34.0031ZM57.8328 10.04H70.3928C73.6728 10.04 76.2328 10.8667 78.0728 12.52C79.9395 14.1733 80.8728 16.5467 80.8728 19.64C80.8728 21.72 80.4195 23.4933 79.5128 24.96C78.6061 26.4267 77.3261 27.52 75.6728 28.24L80.6328 38H73.3528L68.9128 29.24H64.9128V38H57.8328V10.04ZM69.1528 23.28C70.5661 23.28 71.6595 23.0133 72.4328 22.48C73.2061 21.92 73.5928 20.9733 73.5928 19.64C73.5928 18.2533 73.2061 17.3067 72.4328 16.8C71.6861 16.2667 70.5928 16 69.1528 16H64.9128V23.28H69.1528ZM106.946 38.6C104.12 38.6 101.56 37.9867 99.2663 36.76C96.9996 35.5333 95.1996 33.8267 93.8663 31.64C92.5596 29.4267 91.9063 26.8933 91.9063 24.04C91.9063 21.1867 92.5596 18.6533 93.8663 16.44C95.1996 14.2267 96.9996 12.5067 99.2663 11.28C101.56 10.0533 104.12 9.44 106.946 9.44C109.746 9.44 112.28 10.0533 114.546 11.28C116.84 12.5067 118.64 14.2267 119.946 16.44C121.253 18.6533 121.906 21.1867 121.906 24.04C121.906 26.8933 121.253 29.4267 119.946 31.64C118.64 33.8267 116.84 35.5333 114.546 36.76C112.28 37.9867 109.746 38.6 106.946 38.6ZM106.946 31.96C108.36 31.96 109.653 31.64 110.826 31C112 30.36 112.933 29.44 113.626 28.24C114.32 27.04 114.666 25.64 114.666 24.04C114.666 22.44 114.32 21.0533 113.626 19.88C112.96 18.68 112.04 17.76 110.866 17.12C109.693 16.4533 108.386 16.12 106.946 16.12C105.48 16.12 104.16 16.4533 102.986 17.12C101.813 17.76 100.88 18.68 100.186 19.88C99.5196 21.0533 99.1863 22.44 99.1863 24.04C99.1863 25.64 99.5196 27.04 100.186 28.24C100.88 29.44 101.813 30.36 102.986 31C104.186 31.64 105.506 31.96 106.946 31.96ZM134.298 10.04H144.338C147.405 10.04 150.085 10.6 152.378 11.72C154.672 12.84 156.432 14.4533 157.658 16.56C158.912 18.64 159.538 21.08 159.538 23.88C159.538 28.52 158.178 32.04 155.458 34.44C152.738 36.8133 148.965 38 144.138 38H134.298V10.04ZM144.738 32.04C147.165 32.04 149.018 31.3067 150.298 29.84C151.605 28.3733 152.258 26.3867 152.258 23.88C152.258 21.5867 151.605 19.7067 150.298 18.24C149.018 16.7467 147.245 16 144.978 16H141.378V32.04H144.738ZM184.465 38.6C180.252 38.6 177.079 37.48 174.945 35.24C172.812 32.9733 171.745 29.9867 171.745 26.28V10.04H178.825V26.36C178.825 28.2267 179.319 29.64 180.305 30.6C181.319 31.56 182.705 32.04 184.465 32.04C186.225 32.04 187.599 31.56 188.585 30.6C189.572 29.64 190.065 28.2267 190.065 26.36V10.04H197.145V26.28C197.145 30.0133 196.079 33 193.945 35.24C191.839 37.48 188.679 38.6 184.465 38.6ZM224.579 38.6C221.539 38.6 218.859 38.0133 216.539 36.84C214.246 35.6667 212.472 33.9867 211.219 31.8C209.966 29.5867 209.339 27 209.339 24.04C209.339 21.08 209.966 18.5067 211.219 16.32C212.472 14.1067 214.246 12.4133 216.539 11.24C218.859 10.04 221.539 9.44 224.579 9.44C226.579 9.44 228.366 9.64 229.939 10.04C231.512 10.44 232.966 11.0667 234.299 11.92V18.64C233.126 17.7067 231.792 17.0267 230.299 16.6C228.832 16.1733 227.139 15.96 225.219 15.96C222.472 15.96 220.352 16.68 218.859 18.12C217.366 19.5333 216.619 21.5067 216.619 24.04C216.619 26.5733 217.366 28.56 218.859 30C220.379 31.44 222.499 32.16 225.219 32.16C227.139 32.16 228.859 31.9333 230.379 31.48C231.899 31.0267 233.312 30.3067 234.619 29.32V36C232.086 37.7333 228.739 38.6 224.579 38.6ZM253.289 16H245.409V10.04H268.289V16H260.369V38H253.289V16ZM303.275 10.04H313.315C316.382 10.04 319.062 10.6 321.355 11.72C323.648 12.84 325.408 14.4533 326.635 16.56C327.888 18.64 328.515 21.08 328.515 23.88C328.515 28.52 327.155 32.04 324.435 34.44C321.715 36.8133 317.942 38 313.115 38H303.275V10.04ZM313.715 32.04C316.142 32.04 317.995 31.3067 319.275 29.84C320.582 28.3733 321.235 26.3867 321.235 23.88C321.235 21.5867 320.582 19.7067 319.275 18.24C317.995 16.7467 316.222 16 313.955 16H310.355V32.04H313.715ZM340.922 10.04H360.762V16H348.002V21.24H357.322V26.8H348.002V32.04H360.762V38H340.922V10.04ZM381.898 38.6C380.138 38.6 378.391 38.4267 376.658 38.08C374.925 37.76 373.498 37.3067 372.378 36.72V30.36C373.818 31.1067 375.311 31.6667 376.858 32.04C378.431 32.4133 379.925 32.6 381.338 32.6C382.645 32.6 383.631 32.4 384.298 32C384.965 31.6 385.298 31.0267 385.298 30.28C385.298 29.72 385.111 29.24 384.738 28.84C384.391 28.4133 383.871 28.0267 383.178 27.68C382.485 27.3333 381.405 26.8533 379.938 26.24C377.351 25.1467 375.471 23.9333 374.298 22.6C373.125 21.2667 372.538 19.6267 372.538 17.68C372.538 16.08 372.978 14.6533 373.858 13.4C374.765 12.1467 376.018 11.1733 377.618 10.48C379.218 9.78667 381.058 9.44 383.138 9.44C384.845 9.44 386.365 9.57333 387.698 9.84C389.031 10.1067 390.311 10.5333 391.538 11.12V17.32C389.191 16.0933 386.831 15.48 384.458 15.48C383.178 15.48 382.151 15.6933 381.378 16.12C380.631 16.52 380.258 17.1067 380.258 17.88C380.258 18.6533 380.645 19.28 381.418 19.76C382.191 20.24 383.618 20.8933 385.698 21.72C387.591 22.4933 389.058 23.2533 390.098 24C391.165 24.7467 391.938 25.6133 392.418 26.6C392.898 27.5867 393.138 28.84 393.138 30.36C393.138 32.9467 392.191 34.9733 390.298 36.44C388.431 37.88 385.631 38.6 381.898 38.6ZM405.552 10.04H412.632V38H405.552V10.04ZM440.256 38.6C437.216 38.6 434.536 38.0133 432.216 36.84C429.922 35.6667 428.149 33.9867 426.896 31.8C425.642 29.5867 425.016 27 425.016 24.04C425.016 21.08 425.642 18.5067 426.896 16.32C428.149 14.1067 429.922 12.4133 432.216 11.24C434.536 10.04 437.216 9.44 440.256 9.44C442.282 9.44 444.069 9.64 445.616 10.04C447.189 10.4133 448.642 11.0267 449.976 11.88V18.6C448.802 17.6667 447.469 17 445.976 16.6C444.509 16.1733 442.816 15.96 440.896 15.96C439.242 15.96 437.762 16.2933 436.456 16.96C435.176 17.6 434.162 18.5333 433.416 19.76C432.669 20.9867 432.296 22.4133 432.296 24.04C432.296 26.5733 433.029 28.5733 434.496 30.04C435.989 31.5067 438.002 32.24 440.536 32.24C441.949 32.24 443.136 32 444.096 31.52V27.04H439.816V22.08H450.816V36C447.962 37.7333 444.442 38.6 440.256 38.6ZM463.228 10.04H470.228L480.508 26.68V10.04H487.588V38H480.628L470.308 21.32V38H463.228V10.04ZM166.677 60.04H173.637L184.797 88H177.557L175.317 82.24H164.997L162.757 88H155.477L166.677 60.04ZM173.557 76.8L170.157 67.4L166.717 76.8H173.557ZM209.457 88.6C206.417 88.6 203.737 88.0133 201.417 86.84C199.124 85.6667 197.351 83.9867 196.097 81.8C194.844 79.5867 194.217 77 194.217 74.04C194.217 71.08 194.844 68.5067 196.097 66.32C197.351 64.1067 199.124 62.4133 201.417 61.24C203.737 60.04 206.417 59.44 209.457 59.44C211.484 59.44 213.271 59.64 214.817 60.04C216.391 60.4133 217.844 61.0267 219.177 61.88V68.6C218.004 67.6667 216.671 67 215.177 66.6C213.711 66.1733 212.017 65.96 210.097 65.96C208.444 65.96 206.964 66.2933 205.657 66.96C204.377 67.6 203.364 68.5333 202.617 69.76C201.871 70.9867 201.497 72.4133 201.497 74.04C201.497 76.5733 202.231 78.5733 203.697 80.04C205.191 81.5067 207.204 82.24 209.737 82.24C211.151 82.24 212.337 82 213.297 81.52V77.04H209.017V72.08H220.017V86C217.164 87.7333 213.644 88.6 209.457 88.6ZM232.43 60.04H252.27V66H239.51V71.24H248.83V76.8H239.51V82.04H252.27V88H232.43V60.04ZM264.686 60.04H271.686L281.966 76.68V60.04H289.046V88H282.086L271.766 71.32V88H264.686V60.04ZM316.695 88.6C313.655 88.6 310.975 88.0133 308.655 86.84C306.361 85.6667 304.588 83.9867 303.335 81.8C302.081 79.5867 301.455 77 301.455 74.04C301.455 71.08 302.081 68.5067 303.335 66.32C304.588 64.1067 306.361 62.4133 308.655 61.24C310.975 60.04 313.655 59.44 316.695 59.44C318.695 59.44 320.481 59.64 322.055 60.04C323.628 60.44 325.081 61.0667 326.415 61.92V68.64C325.241 67.7067 323.908 67.0267 322.415 66.6C320.948 66.1733 319.255 65.96 317.335 65.96C314.588 65.96 312.468 66.68 310.975 68.12C309.481 69.5333 308.735 71.5067 308.735 74.04C308.735 76.5733 309.481 78.56 310.975 80C312.495 81.44 314.615 82.16 317.335 82.16C319.255 82.16 320.975 81.9333 322.495 81.48C324.015 81.0267 325.428 80.3067 326.735 79.32V86C324.201 87.7333 320.855 88.6 316.695 88.6ZM346.843 77.36L336.523 60.04H344.083L350.403 70.88L357.003 60.04H364.523L353.923 77.36V88H346.843V77.36Z" fill="#202831"/>
<mask id="mask0_2742_162687" style="mask-type:alpha" maskUnits="userSpaceOnUse" x="22" y="9" width="466" height="80">
<path d="M22.8031 10.04H35.1231C38.3765 10.04 40.9765 10.8933 42.9231 12.6C44.8698 14.3067 45.8431 16.6933 45.8431 19.76C45.8431 22.9067 44.8698 25.3467 42.9231 27.08C41.0031 28.7867 38.4031 29.64 35.1231 29.64H29.8831V38H22.8031V10.04ZM34.0031 23.68C35.4165 23.68 36.5231 23.3867 37.3231 22.8C38.1498 22.2133 38.5631 21.2 38.5631 19.76C38.5631 18.32 38.1631 17.3333 37.3631 16.8C36.5631 16.2667 35.4431 16 34.0031 16H29.8831V23.68H34.0031ZM57.8328 10.04H70.3928C73.6728 10.04 76.2328 10.8667 78.0728 12.52C79.9395 14.1733 80.8728 16.5467 80.8728 19.64C80.8728 21.72 80.4195 23.4933 79.5128 24.96C78.6061 26.4267 77.3261 27.52 75.6728 28.24L80.6328 38H73.3528L68.9128 29.24H64.9128V38H57.8328V10.04ZM69.1528 23.28C70.5661 23.28 71.6595 23.0133 72.4328 22.48C73.2061 21.92 73.5928 20.9733 73.5928 19.64C73.5928 18.2533 73.2061 17.3067 72.4328 16.8C71.6861 16.2667 70.5928 16 69.1528 16H64.9128V23.28H69.1528ZM106.946 38.6C104.12 38.6 101.56 37.9867 99.2663 36.76C96.9996 35.5333 95.1996 33.8267 93.8663 31.64C92.5596 29.4267 91.9063 26.8933 91.9063 24.04C91.9063 21.1867 92.5596 18.6533 93.8663 16.44C95.1996 14.2267 96.9996 12.5067 99.2663 11.28C101.56 10.0533 104.12 9.44 106.946 9.44C109.746 9.44 112.28 10.0533 114.546 11.28C116.84 12.5067 118.64 14.2267 119.946 16.44C121.253 18.6533 121.906 21.1867 121.906 24.04C121.906 26.8933 121.253 29.4267 119.946 31.64C118.64 33.8267 116.84 35.5333 114.546 36.76C112.28 37.9867 109.746 38.6 106.946 38.6ZM106.946 31.96C108.36 31.96 109.653 31.64 110.826 31C112 30.36 112.933 29.44 113.626 28.24C114.32 27.04 114.666 25.64 114.666 24.04C114.666 22.44 114.32 21.0533 113.626 19.88C112.96 18.68 112.04 17.76 110.866 17.12C109.693 16.4533 108.386 16.12 106.946 16.12C105.48 16.12 104.16 16.4533 102.986 17.12C101.813 17.76 100.88 18.68 100.186 19.88C99.5196 21.0533 99.1863 22.44 99.1863 24.04C99.1863 25.64 99.5196 27.04 100.186 28.24C100.88 29.44 101.813 30.36 102.986 31C104.186 31.64 105.506 31.96 106.946 31.96ZM134.298 10.04H144.338C147.405 10.04 150.085 10.6 152.378 11.72C154.672 12.84 156.432 14.4533 157.658 16.56C158.912 18.64 159.538 21.08 159.538 23.88C159.538 28.52 158.178 32.04 155.458 34.44C152.738 36.8133 148.965 38 144.138 38H134.298V10.04ZM144.738 32.04C147.165 32.04 149.018 31.3067 150.298 29.84C151.605 28.3733 152.258 26.3867 152.258 23.88C152.258 21.5867 151.605 19.7067 150.298 18.24C149.018 16.7467 147.245 16 144.978 16H141.378V32.04H144.738ZM184.465 38.6C180.252 38.6 177.079 37.48 174.945 35.24C172.812 32.9733 171.745 29.9867 171.745 26.28V10.04H178.825V26.36C178.825 28.2267 179.319 29.64 180.305 30.6C181.319 31.56 182.705 32.04 184.465 32.04C186.225 32.04 187.599 31.56 188.585 30.6C189.572 29.64 190.065 28.2267 190.065 26.36V10.04H197.145V26.28C197.145 30.0133 196.079 33 193.945 35.24C191.839 37.48 188.679 38.6 184.465 38.6ZM224.579 38.6C221.539 38.6 218.859 38.0133 216.539 36.84C214.246 35.6667 212.472 33.9867 211.219 31.8C209.966 29.5867 209.339 27 209.339 24.04C209.339 21.08 209.966 18.5067 211.219 16.32C212.472 14.1067 214.246 12.4133 216.539 11.24C218.859 10.04 221.539 9.44 224.579 9.44C226.579 9.44 228.366 9.64 229.939 10.04C231.512 10.44 232.966 11.0667 234.299 11.92V18.64C233.126 17.7067 231.792 17.0267 230.299 16.6C228.832 16.1733 227.139 15.96 225.219 15.96C222.472 15.96 220.352 16.68 218.859 18.12C217.366 19.5333 216.619 21.5067 216.619 24.04C216.619 26.5733 217.366 28.56 218.859 30C220.379 31.44 222.499 32.16 225.219 32.16C227.139 32.16 228.859 31.9333 230.379 31.48C231.899 31.0267 233.312 30.3067 234.619 29.32V36C232.086 37.7333 228.739 38.6 224.579 38.6ZM253.289 16H245.409V10.04H268.289V16H260.369V38H253.289V16ZM303.275 10.04H313.315C316.382 10.04 319.062 10.6 321.355 11.72C323.648 12.84 325.408 14.4533 326.635 16.56C327.888 18.64 328.515 21.08 328.515 23.88C328.515 28.52 327.155 32.04 324.435 34.44C321.715 36.8133 317.942 38 313.115 38H303.275V10.04ZM313.715 32.04C316.142 32.04 317.995 31.3067 319.275 29.84C320.582 28.3733 321.235 26.3867 321.235 23.88C321.235 21.5867 320.582 19.7067 319.275 18.24C317.995 16.7467 316.222 16 313.955 16H310.355V32.04H313.715ZM340.922 10.04H360.762V16H348.002V21.24H357.322V26.8H348.002V32.04H360.762V38H340.922V10.04ZM381.898 38.6C380.138 38.6 378.391 38.4267 376.658 38.08C374.925 37.76 373.498 37.3067 372.378 36.72V30.36C373.818 31.1067 375.311 31.6667 376.858 32.04C378.431 32.4133 379.925 32.6 381.338 32.6C382.645 32.6 383.631 32.4 384.298 32C384.965 31.6 385.298 31.0267 385.298 30.28C385.298 29.72 385.111 29.24 384.738 28.84C384.391 28.4133 383.871 28.0267 383.178 27.68C382.485 27.3333 381.405 26.8533 379.938 26.24C377.351 25.1467 375.471 23.9333 374.298 22.6C373.125 21.2667 372.538 19.6267 372.538 17.68C372.538 16.08 372.978 14.6533 373.858 13.4C374.765 12.1467 376.018 11.1733 377.618 10.48C379.218 9.78667 381.058 9.44 383.138 9.44C384.845 9.44 386.365 9.57333 387.698 9.84C389.031 10.1067 390.311 10.5333 391.538 11.12V17.32C389.191 16.0933 386.831 15.48 384.458 15.48C383.178 15.48 382.151 15.6933 381.378 16.12C380.631 16.52 380.258 17.1067 380.258 17.88C380.258 18.6533 380.645 19.28 381.418 19.76C382.191 20.24 383.618 20.8933 385.698 21.72C387.591 22.4933 389.058 23.2533 390.098 24C391.165 24.7467 391.938 25.6133 392.418 26.6C392.898 27.5867 393.138 28.84 393.138 30.36C393.138 32.9467 392.191 34.9733 390.298 36.44C388.431 37.88 385.631 38.6 381.898 38.6ZM405.552 10.04H412.632V38H405.552V10.04ZM440.256 38.6C437.216 38.6 434.536 38.0133 432.216 36.84C429.922 35.6667 428.149 33.9867 426.896 31.8C425.642 29.5867 425.016 27 425.016 24.04C425.016 21.08 425.642 18.5067 426.896 16.32C428.149 14.1067 429.922 12.4133 432.216 11.24C434.536 10.04 437.216 9.44 440.256 9.44C442.282 9.44 444.069 9.64 445.616 10.04C447.189 10.4133 448.642 11.0267 449.976 11.88V18.6C448.802 17.6667 447.469 17 445.976 16.6C444.509 16.1733 442.816 15.96 440.896 15.96C439.242 15.96 437.762 16.2933 436.456 16.96C435.176 17.6 434.162 18.5333 433.416 19.76C432.669 20.9867 432.296 22.4133 432.296 24.04C432.296 26.5733 433.029 28.5733 434.496 30.04C435.989 31.5067 438.002 32.24 440.536 32.24C441.949 32.24 443.136 32 444.096 31.52V27.04H439.816V22.08H450.816V36C447.962 37.7333 444.442 38.6 440.256 38.6ZM463.228 10.04H470.228L480.508 26.68V10.04H487.588V38H480.628L470.308 21.32V38H463.228V10.04ZM166.677 60.04H173.637L184.797 88H177.557L175.317 82.24H164.997L162.757 88H155.477L166.677 60.04ZM173.557 76.8L170.157 67.4L166.717 76.8H173.557ZM209.457 88.6C206.417 88.6 203.737 88.0133 201.417 86.84C199.124 85.6667 197.351 83.9867 196.097 81.8C194.844 79.5867 194.217 77 194.217 74.04C194.217 71.08 194.844 68.5067 196.097 66.32C197.351 64.1067 199.124 62.4133 201.417 61.24C203.737 60.04 206.417 59.44 209.457 59.44C211.484 59.44 213.271 59.64 214.817 60.04C216.391 60.4133 217.844 61.0267 219.177 61.88V68.6C218.004 67.6667 216.671 67 215.177 66.6C213.711 66.1733 212.017 65.96 210.097 65.96C208.444 65.96 206.964 66.2933 205.657 66.96C204.377 67.6 203.364 68.5333 202.617 69.76C201.871 70.9867 201.497 72.4133 201.497 74.04C201.497 76.5733 202.231 78.5733 203.697 80.04C205.191 81.5067 207.204 82.24 209.737 82.24C211.151 82.24 212.337 82 213.297 81.52V77.04H209.017V72.08H220.017V86C217.164 87.7333 213.644 88.6 209.457 88.6ZM232.43 60.04H252.27V66H239.51V71.24H248.83V76.8H239.51V82.04H252.27V88H232.43V60.04ZM264.686 60.04H271.686L281.966 76.68V60.04H289.046V88H282.086L271.766 71.32V88H264.686V60.04ZM316.695 88.6C313.655 88.6 310.975 88.0133 308.655 86.84C306.361 85.6667 304.588 83.9867 303.335 81.8C302.081 79.5867 301.455 77 301.455 74.04C301.455 71.08 302.081 68.5067 303.335 66.32C304.588 64.1067 306.361 62.4133 308.655 61.24C310.975 60.04 313.655 59.44 316.695 59.44C318.695 59.44 320.481 59.64 322.055 60.04C323.628 60.44 325.081 61.0667 326.415 61.92V68.64C325.241 67.7067 323.908 67.0267 322.415 66.6C320.948 66.1733 319.255 65.96 317.335 65.96C314.588 65.96 312.468 66.68 310.975 68.12C309.481 69.5333 308.735 71.5067 308.735 74.04C308.735 76.5733 309.481 78.56 310.975 80C312.495 81.44 314.615 82.16 317.335 82.16C319.255 82.16 320.975 81.9333 322.495 81.48C324.015 81.0267 325.428 80.3067 326.735 79.32V86C324.201 87.7333 320.855 88.6 316.695 88.6ZM346.843 77.36L336.523 60.04H344.083L350.403 70.88L357.003 60.04H364.523L353.923 77.36V88H346.843V77.36Z" fill="#202831"/>
</mask>
<g mask="url(#mask0_2742_162687)">
<path d="M189.91 -162.078L147.645 47.6103L174.965 65.5664L217.23 -144.122L189.91 -162.078Z" fill="#EA4136"/>
<path fill-rule="evenodd" clip-rule="evenodd" d="M217.23 -144.122L226.983 -192.512L298.576 -145.458L278.879 -103.604L217.23 -144.122ZM174.965 65.5664L193.524 77.7646L173.827 119.619L165.211 113.956L174.965 65.5664Z" fill="#EA4136"/>
<path fill-rule="evenodd" clip-rule="evenodd" d="M352.208 -97.4595L344.724 -60.3273L292.705 197.751L320.026 215.707L381.797 -90.7609L356.79 -107.197L352.208 -97.4595Z" fill="#EA4136"/>
<path d="M221.445 150.916L232.042 157.88L337.093 -65.3423L308.02 -84.4508L222.666 96.9175L202.968 138.772L221.445 150.916Z" fill="#EA4136"/>
<path d="M308.02 -84.4508L337.093 -65.3423L352.208 -97.4595L354.477 -108.717L327.717 -126.305L308.02 -84.4508Z" fill="#EA4136"/>
<path d="M337.093 -65.3423L344.724 -60.3273L352.208 -97.4595L337.093 -65.3423Z" fill="#EA4136"/>
<path d="M356.79 -107.197L354.477 -108.717L352.208 -97.4595L356.79 -107.197Z" fill="#EA4136"/>
<path d="M147.645 47.6103L137.891 96L165.211 113.956L174.965 65.5664L147.645 47.6103Z" fill="#EA4136"/>
<path d="M199.663 -210.468L189.91 -162.078L217.23 -144.122L226.983 -192.512L199.663 -210.468Z" fill="#EA4136"/>
<path d="M52.0182 -162.078L9.75341 47.6103L37.0735 65.5664L79.3383 -144.122L52.0182 -162.078Z" fill="#EA4136"/>
<path fill-rule="evenodd" clip-rule="evenodd" d="M79.3383 -144.122L89.0917 -192.512L160.684 -145.458L140.987 -103.604L79.3383 -144.122ZM37.0735 65.5664L55.6331 77.7646L35.936 119.619L27.3201 113.956L37.0735 65.5664Z" fill="#EA4136"/>
<path fill-rule="evenodd" clip-rule="evenodd" d="M214.317 -97.4595L206.832 -60.3273L154.814 197.751L182.134 215.707L243.906 -90.7609L218.899 -107.197L214.317 -97.4595Z" fill="#EA4136"/>
<path d="M83.5541 150.916L94.1506 157.88L199.202 -65.3423L170.128 -84.4508L84.7742 96.9175L65.0771 138.772L83.5541 150.916Z" fill="#EA4136"/>
<path d="M170.128 -84.4508L199.202 -65.3423L214.317 -97.4595L216.586 -108.717L189.826 -126.305L170.128 -84.4508Z" fill="#EA4136"/>
<path d="M199.202 -65.3423L206.832 -60.3273L214.317 -97.4595L199.202 -65.3423Z" fill="#EA4136"/>
<path d="M218.899 -107.197L216.586 -108.717L214.317 -97.4595L218.899 -107.197Z" fill="#EA4136"/>
<path d="M9.75341 47.6103L0 96L27.3201 113.956L37.0735 65.5664L9.75341 47.6103Z" fill="#EA4136"/>
<path d="M61.7716 -210.468L52.0182 -162.078L79.3383 -144.122L89.0917 -192.512L61.7716 -210.468Z" fill="#EA4136"/>
<path d="M328.354 -162.078L286.09 47.6103L313.41 65.5664L355.674 -144.122L328.354 -162.078Z" fill="#EA4136"/>
<path fill-rule="evenodd" clip-rule="evenodd" d="M355.674 -144.122L365.428 -192.512L437.021 -145.458L417.324 -103.604L355.674 -144.122ZM313.41 65.5664L331.969 77.7646L312.272 119.619L303.656 113.956L313.41 65.5664Z" fill="#EA4136"/>
<path fill-rule="evenodd" clip-rule="evenodd" d="M490.653 -97.4595L483.168 -60.3273L431.15 197.751L458.47 215.707L520.242 -90.7609L495.235 -107.197L490.653 -97.4595Z" fill="#EA4136"/>
<path d="M359.89 150.916L370.487 157.88L475.538 -65.3423L446.465 -84.4508L361.11 96.9175L341.413 138.772L359.89 150.916Z" fill="#EA4136"/>
<path d="M446.465 -84.4508L475.538 -65.3423L490.653 -97.4595L492.922 -108.717L466.162 -126.305L446.465 -84.4508Z" fill="#EA4136"/>
<path d="M475.538 -65.3423L483.168 -60.3273L490.653 -97.4595L475.538 -65.3423Z" fill="#EA4136"/>
<path d="M495.235 -107.197L492.922 -108.717L490.653 -97.4595L495.235 -107.197Z" fill="#EA4136"/>
<path d="M286.09 47.6103L276.336 96L303.656 113.956L313.41 65.5664L286.09 47.6103Z" fill="#EA4136"/>
<path d="M338.108 -210.468L328.354 -162.078L355.674 -144.122L365.428 -192.512L338.108 -210.468Z" fill="#EA4136"/>
</g>
</svg>
