<svg width="740" height="140" viewBox="0 0 740 140" fill="none" xmlns="http://www.w3.org/2000/svg">
<path d="M44.6444 14.856H61.8924C66.4471 14.856 70.0871 16.0507 72.8124 18.44C75.5377 20.8293 76.9004 24.1707 76.9004 28.464C76.9004 32.8693 75.5377 36.2853 72.8124 38.712C70.1244 41.1013 66.4844 42.296 61.8924 42.296H54.5564V54H44.6444V14.856ZM60.3244 33.952C62.3031 33.952 63.8524 33.5413 64.9724 32.72C66.1297 31.8987 66.7084 30.48 66.7084 28.464C66.7084 26.448 66.1484 25.0667 65.0284 24.32C63.9084 23.5733 62.3404 23.2 60.3244 23.2H54.5564V33.952H60.3244ZM93.686 14.856H111.27C115.862 14.856 119.446 16.0133 122.022 18.328C124.635 20.6427 125.942 23.9653 125.942 28.296C125.942 31.208 125.307 33.6907 124.038 35.744C122.769 37.7973 120.977 39.328 118.662 40.336L125.606 54H115.414L109.198 41.736H103.598V54H93.686V14.856ZM109.534 33.392C111.513 33.392 113.043 33.0187 114.126 32.272C115.209 31.488 115.75 30.1627 115.75 28.296C115.75 26.3547 115.209 25.0293 114.126 24.32C113.081 23.5733 111.55 23.2 109.534 23.2H103.598V33.392H109.534ZM162.445 54.84C158.487 54.84 154.903 53.9813 151.693 52.264C148.519 50.5467 145.999 48.1573 144.133 45.096C142.303 41.9973 141.389 38.4507 141.389 34.456C141.389 30.4613 142.303 26.9147 144.133 23.816C145.999 20.7173 148.519 18.3093 151.693 16.592C154.903 14.8747 158.487 14.016 162.445 14.016C166.365 14.016 169.911 14.8747 173.085 16.592C176.295 18.3093 178.815 20.7173 180.645 23.816C182.474 26.9147 183.389 30.4613 183.389 34.456C183.389 38.4507 182.474 41.9973 180.645 45.096C178.815 48.1573 176.295 50.5467 173.085 52.264C169.911 53.9813 166.365 54.84 162.445 54.84ZM162.445 45.544C164.423 45.544 166.234 45.096 167.877 44.2C169.519 43.304 170.826 42.016 171.797 40.336C172.767 38.656 173.253 36.696 173.253 34.456C173.253 32.216 172.767 30.2747 171.797 28.632C170.863 26.952 169.575 25.664 167.933 24.768C166.29 23.8347 164.461 23.368 162.445 23.368C160.391 23.368 158.543 23.8347 156.901 24.768C155.258 25.664 153.951 26.952 152.981 28.632C152.047 30.2747 151.581 32.216 151.581 34.456C151.581 36.696 152.047 38.656 152.981 40.336C153.951 42.016 155.258 43.304 156.901 44.2C158.581 45.096 160.429 45.544 162.445 45.544ZM200.738 14.856H214.794C219.087 14.856 222.839 15.64 226.05 17.208C229.26 18.776 231.724 21.0347 233.442 23.984C235.196 26.896 236.074 30.312 236.074 34.232C236.074 40.728 234.17 45.656 230.362 49.016C226.554 52.3387 221.271 54 214.514 54H200.738V14.856ZM215.354 45.656C218.751 45.656 221.346 44.6293 223.138 42.576C224.967 40.5227 225.882 37.7413 225.882 34.232C225.882 31.0213 224.967 28.3893 223.138 26.336C221.346 24.2453 218.863 23.2 215.69 23.2H210.65V45.656H215.354ZM270.971 54.84C265.073 54.84 260.63 53.272 257.643 50.136C254.657 46.9627 253.163 42.7813 253.163 37.592V14.856H263.075V37.704C263.075 40.3173 263.766 42.296 265.147 43.64C266.566 44.984 268.507 45.656 270.971 45.656C273.435 45.656 275.358 44.984 276.739 43.64C278.121 42.296 278.811 40.3173 278.811 37.704V14.856H288.723V37.592C288.723 42.8187 287.23 47 284.243 50.136C281.294 53.272 276.87 54.84 270.971 54.84ZM327.131 54.84C322.875 54.84 319.123 54.0187 315.875 52.376C312.664 50.7333 310.181 48.3813 308.427 45.32C306.672 42.2213 305.795 38.6 305.795 34.456C305.795 30.312 306.672 26.7093 308.427 23.648C310.181 20.5493 312.664 18.1787 315.875 16.536C319.123 14.856 322.875 14.016 327.131 14.016C329.931 14.016 332.432 14.296 334.635 14.856C336.837 15.416 338.872 16.2933 340.739 17.488V26.896C339.096 25.5893 337.229 24.6373 335.139 24.04C333.085 23.4427 330.715 23.144 328.027 23.144C324.181 23.144 321.213 24.152 319.123 26.168C317.032 28.1467 315.987 30.9093 315.987 34.456C315.987 38.0027 317.032 40.784 319.123 42.8C321.251 44.816 324.219 45.824 328.027 45.824C330.715 45.824 333.123 45.5067 335.251 44.872C337.379 44.2373 339.357 43.2293 341.187 41.848V51.2C337.64 53.6267 332.955 54.84 327.131 54.84ZM367.325 23.2H356.293V14.856H388.325V23.2H377.237V54H367.325V23.2ZM437.305 14.856H451.361C455.654 14.856 459.406 15.64 462.617 17.208C465.828 18.776 468.292 21.0347 470.009 23.984C471.764 26.896 472.641 30.312 472.641 34.232C472.641 40.728 470.737 45.656 466.929 49.016C463.121 52.3387 457.838 54 451.081 54H437.305V14.856ZM451.921 45.656C455.318 45.656 457.913 44.6293 459.705 42.576C461.534 40.5227 462.449 37.7413 462.449 34.232C462.449 31.0213 461.534 28.3893 459.705 26.336C457.913 24.2453 455.43 23.2 452.257 23.2H447.217V45.656H451.921ZM490.011 14.856H517.787V23.2H499.923V30.536H512.971V38.32H499.923V45.656H517.787V54H490.011V14.856ZM547.377 54.84C544.913 54.84 542.468 54.5973 540.041 54.112C537.615 53.664 535.617 53.0293 534.049 52.208V43.304C536.065 44.3493 538.156 45.1333 540.321 45.656C542.524 46.1787 544.615 46.44 546.593 46.44C548.423 46.44 549.804 46.16 550.737 45.6C551.671 45.04 552.137 44.2373 552.137 43.192C552.137 42.408 551.876 41.736 551.353 41.176C550.868 40.5787 550.14 40.0373 549.169 39.552C548.199 39.0667 546.687 38.3947 544.633 37.536C541.012 36.0053 538.38 34.3067 536.737 32.44C535.095 30.5733 534.273 28.2773 534.273 25.552C534.273 23.312 534.889 21.3147 536.121 19.56C537.391 17.8053 539.145 16.4427 541.385 15.472C543.625 14.5013 546.201 14.016 549.113 14.016C551.503 14.016 553.631 14.2027 555.497 14.576C557.364 14.9493 559.156 15.5467 560.873 16.368V25.048C557.588 23.3307 554.284 22.472 550.961 22.472C549.169 22.472 547.732 22.7707 546.649 23.368C545.604 23.928 545.081 24.7493 545.081 25.832C545.081 26.9147 545.623 27.792 546.705 28.464C547.788 29.136 549.785 30.0507 552.697 31.208C555.348 32.2907 557.401 33.3547 558.857 34.4C560.351 35.4453 561.433 36.6587 562.105 38.04C562.777 39.4213 563.113 41.176 563.113 43.304C563.113 46.9253 561.788 49.7627 559.137 51.816C556.524 53.832 552.604 54.84 547.377 54.84ZM580.492 14.856H590.404V54H580.492V14.856ZM629.078 54.84C624.822 54.84 621.07 54.0187 617.822 52.376C614.611 50.7333 612.129 48.3813 610.374 45.32C608.619 42.2213 607.742 38.6 607.742 34.456C607.742 30.312 608.619 26.7093 610.374 23.648C612.129 20.5493 614.611 18.1787 617.822 16.536C621.07 14.856 624.822 14.016 629.078 14.016C631.915 14.016 634.417 14.296 636.582 14.856C638.785 15.3787 640.819 16.2373 642.686 17.432V26.84C641.043 25.5333 639.177 24.6 637.086 24.04C635.033 23.4427 632.662 23.144 629.974 23.144C627.659 23.144 625.587 23.6107 623.758 24.544C621.966 25.44 620.547 26.7467 619.502 28.464C618.457 30.1813 617.934 32.1787 617.934 34.456C617.934 38.0027 618.961 40.8027 621.014 42.856C623.105 44.9093 625.923 45.936 629.47 45.936C631.449 45.936 633.11 45.6 634.454 44.928V38.656H628.462V31.712H643.862V51.2C639.867 53.6267 634.939 54.84 629.078 54.84ZM661.239 14.856H671.039L685.431 38.152V14.856H695.343V54H685.599L671.151 30.648V54H661.239V14.856ZM239.347 84.856H249.091L264.715 124H254.579L251.443 115.936H236.995L233.859 124H223.667L239.347 84.856ZM248.979 108.32L244.219 95.16L239.403 108.32H248.979ZM299.24 124.84C294.984 124.84 291.232 124.019 287.984 122.376C284.773 120.733 282.291 118.381 280.536 115.32C278.781 112.221 277.904 108.6 277.904 104.456C277.904 100.312 278.781 96.7093 280.536 93.648C282.291 90.5493 284.773 88.1787 287.984 86.536C291.232 84.856 294.984 84.016 299.24 84.016C302.077 84.016 304.579 84.296 306.744 84.856C308.947 85.3787 310.981 86.2373 312.848 87.432V96.84C311.205 95.5333 309.339 94.6 307.248 94.04C305.195 93.4427 302.824 93.144 300.136 93.144C297.821 93.144 295.749 93.6107 293.92 94.544C292.128 95.44 290.709 96.7467 289.664 98.464C288.619 100.181 288.096 102.179 288.096 104.456C288.096 108.003 289.123 110.803 291.176 112.856C293.267 114.909 296.085 115.936 299.632 115.936C301.611 115.936 303.272 115.6 304.616 114.928V108.656H298.624V101.712H314.024V121.2C310.029 123.627 305.101 124.84 299.24 124.84ZM331.402 84.856H359.178V93.2H341.314V100.536H354.362V108.32H341.314V115.656H359.178V124H331.402V84.856ZM376.56 84.856H386.36L400.752 108.152V84.856H410.664V124H400.92L386.472 100.648V124H376.56V84.856ZM449.373 124.84C445.117 124.84 441.365 124.019 438.117 122.376C434.906 120.733 432.423 118.381 430.669 115.32C428.914 112.221 428.037 108.6 428.037 104.456C428.037 100.312 428.914 96.7093 430.669 93.648C432.423 90.5493 434.906 88.1787 438.117 86.536C441.365 84.856 445.117 84.016 449.373 84.016C452.173 84.016 454.674 84.296 456.877 84.856C459.079 85.416 461.114 86.2933 462.981 87.488V96.896C461.338 95.5893 459.471 94.6373 457.381 94.04C455.327 93.4427 452.957 93.144 450.269 93.144C446.423 93.144 443.455 94.152 441.365 96.168C439.274 98.1467 438.229 100.909 438.229 104.456C438.229 108.003 439.274 110.784 441.365 112.8C443.493 114.816 446.461 115.824 450.269 115.824C452.957 115.824 455.365 115.507 457.493 114.872C459.621 114.237 461.599 113.229 463.429 111.848V121.2C459.882 123.627 455.197 124.84 449.373 124.84ZM491.581 109.104L477.133 84.856H487.717L496.565 100.032L505.805 84.856H516.333L501.493 109.104V124H491.581V109.104Z" fill="#202831"/>
<mask id="mask0_2742_163081" style="mask-type:alpha" maskUnits="userSpaceOnUse" x="37" y="14" width="652" height="111">
<path d="M37.9244 14.856H55.1724C59.7271 14.856 63.3671 16.0507 66.0924 18.44C68.8177 20.8293 70.1804 24.1707 70.1804 28.464C70.1804 32.8693 68.8177 36.2853 66.0924 38.712C63.4044 41.1013 59.7644 42.296 55.1724 42.296H47.8364V54H37.9244V14.856ZM53.6044 33.952C55.5831 33.952 57.1324 33.5413 58.2524 32.72C59.4097 31.8987 59.9884 30.48 59.9884 28.464C59.9884 26.448 59.4284 25.0667 58.3084 24.32C57.1884 23.5733 55.6204 23.2 53.6044 23.2H47.8364V33.952H53.6044ZM86.966 14.856H104.55C109.142 14.856 112.726 16.0133 115.302 18.328C117.915 20.6427 119.222 23.9653 119.222 28.296C119.222 31.208 118.587 33.6907 117.318 35.744C116.049 37.7973 114.257 39.328 111.942 40.336L118.886 54H108.694L102.478 41.736H96.878V54H86.966V14.856ZM102.814 33.392C104.793 33.392 106.323 33.0187 107.406 32.272C108.489 31.488 109.03 30.1627 109.03 28.296C109.03 26.3547 108.489 25.0293 107.406 24.32C106.361 23.5733 104.83 23.2 102.814 23.2H96.878V33.392H102.814ZM155.725 54.84C151.767 54.84 148.183 53.9813 144.973 52.264C141.799 50.5467 139.279 48.1573 137.413 45.096C135.583 41.9973 134.669 38.4507 134.669 34.456C134.669 30.4613 135.583 26.9147 137.413 23.816C139.279 20.7173 141.799 18.3093 144.973 16.592C148.183 14.8747 151.767 14.016 155.725 14.016C159.645 14.016 163.191 14.8747 166.365 16.592C169.575 18.3093 172.095 20.7173 173.925 23.816C175.754 26.9147 176.669 30.4613 176.669 34.456C176.669 38.4507 175.754 41.9973 173.925 45.096C172.095 48.1573 169.575 50.5467 166.365 52.264C163.191 53.9813 159.645 54.84 155.725 54.84ZM155.725 45.544C157.703 45.544 159.514 45.096 161.157 44.2C162.799 43.304 164.106 42.016 165.077 40.336C166.047 38.656 166.533 36.696 166.533 34.456C166.533 32.216 166.047 30.2747 165.077 28.632C164.143 26.952 162.855 25.664 161.213 24.768C159.57 23.8347 157.741 23.368 155.725 23.368C153.671 23.368 151.823 23.8347 150.181 24.768C148.538 25.664 147.231 26.952 146.261 28.632C145.327 30.2747 144.861 32.216 144.861 34.456C144.861 36.696 145.327 38.656 146.261 40.336C147.231 42.016 148.538 43.304 150.181 44.2C151.861 45.096 153.709 45.544 155.725 45.544ZM194.018 14.856H208.074C212.367 14.856 216.119 15.64 219.33 17.208C222.54 18.776 225.004 21.0347 226.722 23.984C228.476 26.896 229.354 30.312 229.354 34.232C229.354 40.728 227.45 45.656 223.642 49.016C219.834 52.3387 214.551 54 207.794 54H194.018V14.856ZM208.634 45.656C212.031 45.656 214.626 44.6293 216.418 42.576C218.247 40.5227 219.162 37.7413 219.162 34.232C219.162 31.0213 218.247 28.3893 216.418 26.336C214.626 24.2453 212.143 23.2 208.97 23.2H203.93V45.656H208.634ZM264.251 54.84C258.353 54.84 253.91 53.272 250.923 50.136C247.937 46.9627 246.443 42.7813 246.443 37.592V14.856H256.355V37.704C256.355 40.3173 257.046 42.296 258.427 43.64C259.846 44.984 261.787 45.656 264.251 45.656C266.715 45.656 268.638 44.984 270.019 43.64C271.401 42.296 272.091 40.3173 272.091 37.704V14.856H282.003V37.592C282.003 42.8187 280.51 47 277.523 50.136C274.574 53.272 270.15 54.84 264.251 54.84ZM320.411 54.84C316.155 54.84 312.403 54.0187 309.155 52.376C305.944 50.7333 303.461 48.3813 301.707 45.32C299.952 42.2213 299.075 38.6 299.075 34.456C299.075 30.312 299.952 26.7093 301.707 23.648C303.461 20.5493 305.944 18.1787 309.155 16.536C312.403 14.856 316.155 14.016 320.411 14.016C323.211 14.016 325.712 14.296 327.915 14.856C330.117 15.416 332.152 16.2933 334.019 17.488V26.896C332.376 25.5893 330.509 24.6373 328.419 24.04C326.365 23.4427 323.995 23.144 321.307 23.144C317.461 23.144 314.493 24.152 312.403 26.168C310.312 28.1467 309.267 30.9093 309.267 34.456C309.267 38.0027 310.312 40.784 312.403 42.8C314.531 44.816 317.499 45.824 321.307 45.824C323.995 45.824 326.403 45.5067 328.531 44.872C330.659 44.2373 332.637 43.2293 334.467 41.848V51.2C330.92 53.6267 326.235 54.84 320.411 54.84ZM360.605 23.2H349.573V14.856H381.605V23.2H370.517V54H360.605V23.2ZM430.585 14.856H444.641C448.934 14.856 452.686 15.64 455.897 17.208C459.108 18.776 461.572 21.0347 463.289 23.984C465.044 26.896 465.921 30.312 465.921 34.232C465.921 40.728 464.017 45.656 460.209 49.016C456.401 52.3387 451.118 54 444.361 54H430.585V14.856ZM445.201 45.656C448.598 45.656 451.193 44.6293 452.985 42.576C454.814 40.5227 455.729 37.7413 455.729 34.232C455.729 31.0213 454.814 28.3893 452.985 26.336C451.193 24.2453 448.71 23.2 445.537 23.2H440.497V45.656H445.201ZM483.291 14.856H511.067V23.2H493.203V30.536H506.251V38.32H493.203V45.656H511.067V54H483.291V14.856ZM540.657 54.84C538.193 54.84 535.748 54.5973 533.321 54.112C530.895 53.664 528.897 53.0293 527.329 52.208V43.304C529.345 44.3493 531.436 45.1333 533.601 45.656C535.804 46.1787 537.895 46.44 539.873 46.44C541.703 46.44 543.084 46.16 544.017 45.6C544.951 45.04 545.417 44.2373 545.417 43.192C545.417 42.408 545.156 41.736 544.633 41.176C544.148 40.5787 543.42 40.0373 542.449 39.552C541.479 39.0667 539.967 38.3947 537.913 37.536C534.292 36.0053 531.66 34.3067 530.017 32.44C528.375 30.5733 527.553 28.2773 527.553 25.552C527.553 23.312 528.169 21.3147 529.401 19.56C530.671 17.8053 532.425 16.4427 534.665 15.472C536.905 14.5013 539.481 14.016 542.393 14.016C544.783 14.016 546.911 14.2027 548.777 14.576C550.644 14.9493 552.436 15.5467 554.153 16.368V25.048C550.868 23.3307 547.564 22.472 544.241 22.472C542.449 22.472 541.012 22.7707 539.929 23.368C538.884 23.928 538.361 24.7493 538.361 25.832C538.361 26.9147 538.903 27.792 539.985 28.464C541.068 29.136 543.065 30.0507 545.977 31.208C548.628 32.2907 550.681 33.3547 552.137 34.4C553.631 35.4453 554.713 36.6587 555.385 38.04C556.057 39.4213 556.393 41.176 556.393 43.304C556.393 46.9253 555.068 49.7627 552.417 51.816C549.804 53.832 545.884 54.84 540.657 54.84ZM573.772 14.856H583.684V54H573.772V14.856ZM622.358 54.84C618.102 54.84 614.35 54.0187 611.102 52.376C607.891 50.7333 605.408 48.3813 603.654 45.32C601.899 42.2213 601.022 38.6 601.022 34.456C601.022 30.312 601.899 26.7093 603.654 23.648C605.408 20.5493 607.891 18.1787 611.102 16.536C614.35 14.856 618.102 14.016 622.358 14.016C625.195 14.016 627.696 14.296 629.862 14.856C632.064 15.3787 634.099 16.2373 635.966 17.432V26.84C634.323 25.5333 632.456 24.6 630.366 24.04C628.312 23.4427 625.942 23.144 623.254 23.144C620.939 23.144 618.867 23.6107 617.038 24.544C615.246 25.44 613.827 26.7467 612.782 28.464C611.736 30.1813 611.214 32.1787 611.214 34.456C611.214 38.0027 612.24 40.8027 614.294 42.856C616.384 44.9093 619.203 45.936 622.75 45.936C624.728 45.936 626.39 45.6 627.734 44.928V38.656H621.742V31.712H637.142V51.2C633.147 53.6267 628.219 54.84 622.358 54.84ZM654.519 14.856H664.319L678.711 38.152V14.856H688.623V54H678.879L664.431 30.648V54H654.519V14.856ZM239.347 84.856H249.091L264.715 124H254.579L251.443 115.936H236.995L233.859 124H223.667L239.347 84.856ZM248.979 108.32L244.219 95.16L239.403 108.32H248.979ZM299.24 124.84C294.984 124.84 291.232 124.019 287.984 122.376C284.773 120.733 282.291 118.381 280.536 115.32C278.781 112.221 277.904 108.6 277.904 104.456C277.904 100.312 278.781 96.7093 280.536 93.648C282.291 90.5493 284.773 88.1787 287.984 86.536C291.232 84.856 294.984 84.016 299.24 84.016C302.077 84.016 304.579 84.296 306.744 84.856C308.947 85.3787 310.981 86.2373 312.848 87.432V96.84C311.205 95.5333 309.339 94.6 307.248 94.04C305.195 93.4427 302.824 93.144 300.136 93.144C297.821 93.144 295.749 93.6107 293.92 94.544C292.128 95.44 290.709 96.7467 289.664 98.464C288.619 100.181 288.096 102.179 288.096 104.456C288.096 108.003 289.123 110.803 291.176 112.856C293.267 114.909 296.085 115.936 299.632 115.936C301.611 115.936 303.272 115.6 304.616 114.928V108.656H298.624V101.712H314.024V121.2C310.029 123.627 305.101 124.84 299.24 124.84ZM331.402 84.856H359.178V93.2H341.314V100.536H354.362V108.32H341.314V115.656H359.178V124H331.402V84.856ZM376.56 84.856H386.36L400.752 108.152V84.856H410.664V124H400.92L386.472 100.648V124H376.56V84.856ZM449.373 124.84C445.117 124.84 441.365 124.019 438.117 122.376C434.906 120.733 432.423 118.381 430.669 115.32C428.914 112.221 428.037 108.6 428.037 104.456C428.037 100.312 428.914 96.7093 430.669 93.648C432.423 90.5493 434.906 88.1787 438.117 86.536C441.365 84.856 445.117 84.016 449.373 84.016C452.173 84.016 454.674 84.296 456.877 84.856C459.079 85.416 461.114 86.2933 462.981 87.488V96.896C461.338 95.5893 459.471 94.6373 457.381 94.04C455.327 93.4427 452.957 93.144 450.269 93.144C446.423 93.144 443.455 94.152 441.365 96.168C439.274 98.1467 438.229 100.909 438.229 104.456C438.229 108.003 439.274 110.784 441.365 112.8C443.493 114.816 446.461 115.824 450.269 115.824C452.957 115.824 455.365 115.507 457.493 114.872C459.621 114.237 461.599 113.229 463.429 111.848V121.2C459.882 123.627 455.197 124.84 449.373 124.84ZM491.581 109.104L477.133 84.856H487.717L496.565 100.032L505.805 84.856H516.333L501.493 109.104V124H491.581V109.104Z" fill="#202831"/>
</mask>
<g mask="url(#mask0_2742_163081)">
<path d="M270.256 -107.078L210.11 102.61L248.988 120.566L309.134 -89.1222L270.256 -107.078Z" fill="#EA4136"/>
<path fill-rule="evenodd" clip-rule="evenodd" d="M309.134 -89.1222L323.014 -137.512L424.896 -90.4579L396.866 -48.6036L309.134 -89.1222ZM248.988 120.566L275.4 132.765L247.37 174.619L235.109 168.956L248.988 120.566Z" fill="#EA4136"/>
<path fill-rule="evenodd" clip-rule="evenodd" d="M501.219 -42.4595L490.568 -5.32731L416.542 252.751L455.421 270.707L543.327 -35.7609L507.74 -52.1966L501.219 -42.4595Z" fill="#EA4136"/>
<path d="M315.134 205.916L330.213 212.88L479.71 -10.3423L438.336 -29.4508L316.87 151.917L288.84 193.772L315.134 205.916Z" fill="#EA4136"/>
<path d="M438.336 -29.4508L479.71 -10.3423L501.219 -42.4595L504.448 -53.717L466.366 -71.305L438.336 -29.4508Z" fill="#EA4136"/>
<path d="M479.71 -10.3423L490.568 -5.32731L501.219 -42.4595L479.71 -10.3423Z" fill="#EA4136"/>
<path d="M507.74 -52.1966L504.448 -53.717L501.219 -42.4595L507.74 -52.1966Z" fill="#EA4136"/>
<path d="M210.11 102.61L196.23 151L235.109 168.956L248.988 120.566L210.11 102.61Z" fill="#EA4136"/>
<path d="M284.136 -155.468L270.256 -107.078L309.134 -89.1222L323.014 -137.512L284.136 -155.468Z" fill="#EA4136"/>
<path d="M74.0259 -107.078L13.8798 102.61L52.7585 120.566L112.905 -89.1222L74.0259 -107.078Z" fill="#EA4136"/>
<path fill-rule="evenodd" clip-rule="evenodd" d="M112.905 -89.1222L126.784 -137.512L228.666 -90.4579L200.636 -48.6036L112.905 -89.1222ZM52.7585 120.566L79.1702 132.765L51.1397 174.619L38.8787 168.956L52.7585 120.566Z" fill="#EA4136"/>
<path fill-rule="evenodd" clip-rule="evenodd" d="M304.989 -42.4595L294.338 -5.32731L220.312 252.751L259.191 270.707L347.097 -35.7609L311.51 -52.1966L304.989 -42.4595Z" fill="#EA4136"/>
<path d="M118.904 205.916L133.984 212.88L283.48 -10.3423L242.106 -29.4508L120.64 151.917L92.6097 193.772L118.904 205.916Z" fill="#EA4136"/>
<path d="M242.106 -29.4508L283.48 -10.3423L304.989 -42.4595L308.218 -53.717L270.136 -71.305L242.106 -29.4508Z" fill="#EA4136"/>
<path d="M283.48 -10.3423L294.338 -5.32731L304.989 -42.4595L283.48 -10.3423Z" fill="#EA4136"/>
<path d="M311.51 -52.1966L308.218 -53.717L304.989 -42.4595L311.51 -52.1966Z" fill="#EA4136"/>
<path d="M13.8798 102.61L0 151L38.8787 168.956L52.7585 120.566L13.8798 102.61Z" fill="#EA4136"/>
<path d="M87.9057 -155.468L74.0259 -107.078L112.905 -89.1222L126.784 -137.512L87.9057 -155.468Z" fill="#EA4136"/>
<path d="M467.274 -107.078L407.128 102.61L446.007 120.566L506.153 -89.1222L467.274 -107.078Z" fill="#EA4136"/>
<path fill-rule="evenodd" clip-rule="evenodd" d="M506.153 -89.1222L520.032 -137.512L621.914 -90.4579L593.884 -48.6036L506.153 -89.1222ZM446.007 120.566L472.418 132.765L444.388 174.619L432.127 168.956L446.007 120.566Z" fill="#EA4136"/>
<path fill-rule="evenodd" clip-rule="evenodd" d="M698.237 -42.4595L687.586 -5.32731L613.56 252.751L652.439 270.707L740.345 -35.7609L704.758 -52.1966L698.237 -42.4595Z" fill="#EA4136"/>
<path d="M512.152 205.916L527.232 212.88L676.728 -10.3423L635.354 -29.4508L513.888 151.917L485.858 193.772L512.152 205.916Z" fill="#EA4136"/>
<path d="M635.354 -29.4508L676.728 -10.3423L698.237 -42.4595L701.466 -53.717L663.384 -71.305L635.354 -29.4508Z" fill="#EA4136"/>
<path d="M676.728 -10.3423L687.586 -5.32731L698.237 -42.4595L676.728 -10.3423Z" fill="#EA4136"/>
<path d="M704.758 -52.1966L701.466 -53.717L698.237 -42.4595L704.758 -52.1966Z" fill="#EA4136"/>
<path d="M407.128 102.61L393.248 151L432.127 168.956L446.007 120.566L407.128 102.61Z" fill="#EA4136"/>
<path d="M481.154 -155.468L467.274 -107.078L506.153 -89.1222L520.032 -137.512L481.154 -155.468Z" fill="#EA4136"/>
</g>
</svg>
