<svg width="335" height="225" viewBox="0 0 335 225" fill="none" xmlns="http://www.w3.org/2000/svg">
<path d="M42.1794 47.66C38.8354 47.66 35.8874 47.0147 33.3354 45.724C30.8127 44.4333 28.8621 42.5853 27.4834 40.18C26.1047 37.7453 25.4154 34.9 25.4154 31.644C25.4154 28.388 26.1047 25.5573 27.4834 23.152C28.8621 20.7173 30.8127 18.8547 33.3354 17.564C35.8874 16.244 38.8354 15.584 42.1794 15.584C44.3794 15.584 46.3447 15.804 48.0754 16.244C49.8061 16.684 51.4047 17.3733 52.8714 18.312V25.704C51.5807 24.6773 50.1141 23.9293 48.4714 23.46C46.8581 22.9907 44.9954 22.756 42.8834 22.756C39.8621 22.756 37.5301 23.548 35.8874 25.132C34.2447 26.6867 33.4234 28.8573 33.4234 31.644C33.4234 34.4307 34.2447 36.616 35.8874 38.2C37.5594 39.784 39.8914 40.576 42.8834 40.576C44.9954 40.576 46.8874 40.3267 48.5594 39.828C50.2314 39.3293 51.7861 38.5373 53.2234 37.452V44.8C50.4367 46.7067 46.7554 47.66 42.1794 47.66ZM66.8476 16.244H80.6636C84.2716 16.244 87.0876 17.1533 89.1116 18.972C91.1649 20.7907 92.1916 23.4013 92.1916 26.804C92.1916 29.092 91.6929 31.0427 90.6956 32.656C89.6982 34.2693 88.2902 35.472 86.4716 36.264L91.9276 47H83.9196L79.0356 37.364H74.6356V47H66.8476V16.244ZM79.2996 30.808C80.8542 30.808 82.0569 30.5147 82.9076 29.928C83.7582 29.312 84.1836 28.2707 84.1836 26.804C84.1836 25.2787 83.7582 24.2373 82.9076 23.68C82.0862 23.0933 80.8836 22.8 79.2996 22.8H74.6356V30.808H79.2996ZM105.853 16.244H127.677V22.8H113.641V28.564H123.893V34.68H113.641V40.444H127.677V47H105.853V16.244ZM152.775 16.244H160.431L172.707 47H164.743L162.279 40.664H150.927L148.463 47H140.455L152.775 16.244ZM160.343 34.68L156.603 24.34L152.819 34.68H160.343ZM187.984 22.8H179.316V16.244H204.484V22.8H195.772V47H187.984V22.8ZM217.455 16.244H225.243V47H217.455V16.244ZM239.745 16.244H247.445L258.753 34.548V16.244H266.541V47H258.885L247.533 28.652V47H239.745V16.244ZM296.955 47.66C293.611 47.66 290.663 47.0147 288.111 45.724C285.588 44.4333 283.638 42.5853 282.259 40.18C280.88 37.7453 280.191 34.9 280.191 31.644C280.191 28.388 280.88 25.5573 282.259 23.152C283.638 20.7173 285.588 18.8547 288.111 17.564C290.663 16.244 293.611 15.584 296.955 15.584C299.184 15.584 301.15 15.804 302.851 16.244C304.582 16.6547 306.18 17.3293 307.647 18.268V25.66C306.356 24.6333 304.89 23.9 303.247 23.46C301.634 22.9907 299.771 22.756 297.659 22.756C295.84 22.756 294.212 23.1227 292.775 23.856C291.367 24.56 290.252 25.5867 289.431 26.936C288.61 28.2853 288.199 29.8547 288.199 31.644C288.199 34.4307 289.006 36.6307 290.619 38.244C292.262 39.8573 294.476 40.664 297.263 40.664C298.818 40.664 300.123 40.4 301.179 39.872V34.944H296.471V29.488H308.571V44.8C305.432 46.7067 301.56 47.66 296.955 47.66ZM55.6594 71.244H66.7034C70.0767 71.244 73.0247 71.86 75.5474 73.092C78.07 74.324 80.006 76.0987 81.3554 78.416C82.734 80.704 83.4234 83.388 83.4234 86.468C83.4234 91.572 81.9274 95.444 78.9354 98.084C75.9434 100.695 71.7927 102 66.4834 102H55.6594V71.244ZM67.1434 95.444C69.8127 95.444 71.8514 94.6373 73.2594 93.024C74.6967 91.4107 75.4154 89.2253 75.4154 86.468C75.4154 83.9453 74.6967 81.8773 73.2594 80.264C71.8514 78.6213 69.9007 77.8 67.4074 77.8H63.4474V95.444H67.1434ZM97.0709 71.244H104.859V102H97.0709V71.244ZM135.245 102.66C131.901 102.66 128.953 102.015 126.401 100.724C123.879 99.4333 121.928 97.5853 120.549 95.18C119.171 92.7453 118.481 89.9 118.481 86.644C118.481 83.388 119.171 80.5573 120.549 78.152C121.928 75.7173 123.879 73.8547 126.401 72.564C128.953 71.244 131.901 70.584 135.245 70.584C137.475 70.584 139.44 70.804 141.141 71.244C142.872 71.6547 144.471 72.3293 145.937 73.268V80.66C144.647 79.6333 143.18 78.9 141.537 78.46C139.924 77.9907 138.061 77.756 135.949 77.756C134.131 77.756 132.503 78.1227 131.065 78.856C129.657 79.56 128.543 80.5867 127.721 81.936C126.9 83.2853 126.489 84.8547 126.489 86.644C126.489 89.4307 127.296 91.6307 128.909 93.244C130.552 94.8573 132.767 95.664 135.553 95.664C137.108 95.664 138.413 95.4 139.469 94.872V89.944H134.761V84.488H146.861V99.8C143.723 101.707 139.851 102.66 135.245 102.66ZM160.515 71.244H168.303V102H160.515V71.244ZM189.934 77.8H181.266V71.244H206.434V77.8H197.722V102H189.934V77.8ZM225.345 71.244H233.001L245.277 102H237.313L234.849 95.664H223.497L221.033 102H213.025L225.345 71.244ZM232.913 89.68L229.173 79.34L225.389 89.68H232.913ZM258.926 71.244H266.714V95.444H280.09V102H258.926V71.244ZM28.0078 157.66C26.0718 157.66 24.1504 157.469 22.2438 157.088C20.3371 156.736 18.7678 156.237 17.5358 155.592V148.596C19.1198 149.417 20.7624 150.033 22.4638 150.444C24.1944 150.855 25.8371 151.06 27.3918 151.06C28.8291 151.06 29.9144 150.84 30.6478 150.4C31.3811 149.96 31.7478 149.329 31.7478 148.508C31.7478 147.892 31.5424 147.364 31.1318 146.924C30.7504 146.455 30.1784 146.029 29.4158 145.648C28.6531 145.267 27.4651 144.739 25.8518 144.064C23.0064 142.861 20.9384 141.527 19.6478 140.06C18.3571 138.593 17.7118 136.789 17.7118 134.648C17.7118 132.888 18.1958 131.319 19.1638 129.94C20.1611 128.561 21.5398 127.491 23.2998 126.728C25.0598 125.965 27.0838 125.584 29.3718 125.584C31.2491 125.584 32.9211 125.731 34.3878 126.024C35.8544 126.317 37.2624 126.787 38.6118 127.432V134.252C36.0304 132.903 33.4344 132.228 30.8238 132.228C29.4158 132.228 28.2864 132.463 27.4358 132.932C26.6144 133.372 26.2038 134.017 26.2038 134.868C26.2038 135.719 26.6291 136.408 27.4798 136.936C28.3304 137.464 29.8998 138.183 32.1878 139.092C34.2704 139.943 35.8838 140.779 37.0278 141.6C38.2011 142.421 39.0518 143.375 39.5798 144.46C40.1078 145.545 40.3718 146.924 40.3718 148.596C40.3718 151.441 39.3304 153.671 37.2478 155.284C35.1944 156.868 32.1144 157.66 28.0078 157.66ZM54.0266 126.244H75.8506V132.8H61.8146V138.564H72.0666V144.68H61.8146V150.444H75.8506V157H54.0266V126.244ZM89.5084 126.244H103.324C106.932 126.244 109.748 127.153 111.772 128.972C113.826 130.791 114.852 133.401 114.852 136.804C114.852 139.092 114.354 141.043 113.356 142.656C112.359 144.269 110.951 145.472 109.132 146.264L114.588 157H106.58L101.696 147.364H97.2964V157H89.5084V126.244ZM101.96 140.808C103.515 140.808 104.718 140.515 105.568 139.928C106.419 139.312 106.844 138.271 106.844 136.804C106.844 135.279 106.419 134.237 105.568 133.68C104.747 133.093 103.544 132.8 101.96 132.8H97.2964V140.808H101.96ZM124.755 126.244H133.071L140.903 146.704L148.735 126.244H157.007L144.731 157H137.075L124.755 126.244ZM170.656 126.244H178.444V157H170.656V126.244ZM208.83 157.66C205.486 157.66 202.538 157.015 199.986 155.724C197.464 154.433 195.513 152.585 194.134 150.18C192.756 147.745 192.066 144.9 192.066 141.644C192.066 138.388 192.756 135.557 194.134 133.152C195.513 130.717 197.464 128.855 199.986 127.564C202.538 126.244 205.486 125.584 208.83 125.584C211.03 125.584 212.996 125.804 214.726 126.244C216.457 126.684 218.056 127.373 219.522 128.312V135.704C218.232 134.677 216.765 133.929 215.122 133.46C213.509 132.991 211.646 132.756 209.534 132.756C206.513 132.756 204.181 133.548 202.538 135.132C200.896 136.687 200.074 138.857 200.074 141.644C200.074 144.431 200.896 146.616 202.538 148.2C204.21 149.784 206.542 150.576 209.534 150.576C211.646 150.576 213.538 150.327 215.21 149.828C216.882 149.329 218.437 148.537 219.874 147.452V154.8C217.088 156.707 213.406 157.66 208.83 157.66ZM233.498 126.244H255.322V132.8H241.286V138.564H251.538V144.68H241.286V150.444H255.322V157H233.498V126.244ZM278.572 157.66C276.636 157.66 274.715 157.469 272.808 157.088C270.902 156.736 269.332 156.237 268.1 155.592V148.596C269.684 149.417 271.327 150.033 273.028 150.444C274.759 150.855 276.402 151.06 277.956 151.06C279.394 151.06 280.479 150.84 281.212 150.4C281.946 149.96 282.312 149.329 282.312 148.508C282.312 147.892 282.107 147.364 281.696 146.924C281.315 146.455 280.743 146.029 279.98 145.648C279.218 145.267 278.03 144.739 276.416 144.064C273.571 142.861 271.503 141.527 270.212 140.06C268.922 138.593 268.276 136.789 268.276 134.648C268.276 132.888 268.76 131.319 269.728 129.94C270.726 128.561 272.104 127.491 273.864 126.728C275.624 125.965 277.648 125.584 279.936 125.584C281.814 125.584 283.486 125.731 284.952 126.024C286.419 126.317 287.827 126.787 289.176 127.432V134.252C286.595 132.903 283.999 132.228 281.388 132.228C279.98 132.228 278.851 132.463 278 132.932C277.179 133.372 276.768 134.017 276.768 134.868C276.768 135.719 277.194 136.408 278.044 136.936C278.895 137.464 280.464 138.183 282.752 139.092C284.835 139.943 286.448 140.779 287.592 141.6C288.766 142.421 289.616 143.375 290.144 144.46C290.672 145.545 290.936 146.924 290.936 148.596C290.936 151.441 289.895 153.671 287.812 155.284C285.759 156.868 282.679 157.66 278.572 157.66ZM11.8997 212.66C9.96365 212.66 8.04232 212.469 6.13565 212.088C4.22899 211.736 2.65965 211.237 1.42765 210.592V203.596C3.01165 204.417 4.65432 205.033 6.35565 205.444C8.08632 205.855 9.72899 206.06 11.2837 206.06C12.721 206.06 13.8063 205.84 14.5397 205.4C15.273 204.96 15.6397 204.329 15.6397 203.508C15.6397 202.892 15.4343 202.364 15.0237 201.924C14.6423 201.455 14.0703 201.029 13.3077 200.648C12.545 200.267 11.357 199.739 9.74365 199.064C6.89832 197.861 4.83032 196.527 3.53965 195.06C2.24899 193.593 1.60365 191.789 1.60365 189.648C1.60365 187.888 2.08765 186.319 3.05565 184.94C4.05299 183.561 5.43165 182.491 7.19165 181.728C8.95165 180.965 10.9757 180.584 13.2637 180.584C15.141 180.584 16.813 180.731 18.2797 181.024C19.7463 181.317 21.1543 181.787 22.5037 182.432V189.252C19.9223 187.903 17.3263 187.228 14.7157 187.228C13.3077 187.228 12.1783 187.463 11.3277 187.932C10.5063 188.372 10.0957 189.017 10.0957 189.868C10.0957 190.719 10.521 191.408 11.3717 191.936C12.2223 192.464 13.7917 193.183 16.0797 194.092C18.1623 194.943 19.7757 195.779 20.9197 196.6C22.093 197.421 22.9437 198.375 23.4717 199.46C23.9997 200.545 24.2637 201.924 24.2637 203.596C24.2637 206.441 23.2223 208.671 21.1397 210.284C19.0863 211.868 16.0063 212.66 11.8997 212.66ZM37.9184 181.244H45.7064V212H37.9184V181.244ZM60.2089 181.244H67.9089L79.2169 199.548V181.244H87.0049V212H79.3489L67.9969 193.652V212H60.2089V181.244ZM117.419 212.66C114.075 212.66 111.127 212.015 108.575 210.724C106.052 209.433 104.101 207.585 102.723 205.18C101.344 202.745 100.655 199.9 100.655 196.644C100.655 193.388 101.344 190.557 102.723 188.152C104.101 185.717 106.052 183.855 108.575 182.564C111.127 181.244 114.075 180.584 117.419 180.584C119.619 180.584 121.584 180.804 123.315 181.244C125.045 181.684 126.644 182.373 128.111 183.312V190.704C126.82 189.677 125.353 188.929 123.711 188.46C122.097 187.991 120.235 187.756 118.123 187.756C115.101 187.756 112.769 188.548 111.127 190.132C109.484 191.687 108.663 193.857 108.663 196.644C108.663 199.431 109.484 201.616 111.127 203.2C112.799 204.784 115.131 205.576 118.123 205.576C120.235 205.576 122.127 205.327 123.799 204.828C125.471 204.329 127.025 203.537 128.463 202.452V209.8C125.676 211.707 121.995 212.66 117.419 212.66ZM142.087 181.244H163.911V187.8H149.875V193.564H160.127V199.68H149.875V205.444H163.911V212H142.087V181.244ZM202.202 207.556L207.086 203.112L209.198 201.22C210.928 199.695 212.248 198.477 213.158 197.568C214.096 196.659 214.859 195.735 215.446 194.796C216.062 193.857 216.37 192.933 216.37 192.024C216.37 189.296 214.83 187.932 211.75 187.932C210.254 187.932 208.772 188.196 207.306 188.724C205.868 189.252 204.534 189.985 203.302 190.924V183.488C204.622 182.579 206.162 181.875 207.922 181.376C209.682 180.848 211.559 180.584 213.554 180.584C215.842 180.584 217.822 181.009 219.494 181.86C221.166 182.711 222.442 183.884 223.322 185.38C224.202 186.876 224.642 188.563 224.642 190.44C224.642 192.699 224.114 194.679 223.058 196.38C222.031 198.052 220.359 199.944 218.042 202.056L214.126 205.62H225.61V212H202.202V207.556ZM252.539 212.66C249.694 212.66 247.2 212.029 245.059 210.768C242.918 209.477 241.26 207.629 240.087 205.224C238.943 202.819 238.371 199.959 238.371 196.644C238.371 193.329 238.943 190.469 240.087 188.064C241.231 185.659 242.859 183.811 244.971 182.52C247.112 181.229 249.635 180.584 252.539 180.584C255.443 180.584 257.951 181.229 260.063 182.52C262.204 183.811 263.847 185.659 264.991 188.064C266.135 190.469 266.707 193.329 266.707 196.644C266.707 199.959 266.12 202.819 264.947 205.224C263.803 207.629 262.16 209.477 260.019 210.768C257.878 212.029 255.384 212.66 252.539 212.66ZM252.539 205.356C254.504 205.356 256.03 204.593 257.115 203.068C258.2 201.543 258.743 199.431 258.743 196.732C258.743 194.004 258.2 191.863 257.115 190.308C256.059 188.724 254.534 187.932 252.539 187.932C250.544 187.932 249.004 188.724 247.919 190.308C246.863 191.863 246.335 194.004 246.335 196.732C246.335 199.431 246.878 201.543 247.963 203.068C249.048 204.593 250.574 205.356 252.539 205.356ZM285.73 189.912L279.482 194.444V186.788L287.05 181.244H293.518V212H285.73V189.912ZM316.955 212.66C314.785 212.66 312.922 212.411 311.367 211.912V205.312C312.717 206.016 314.374 206.368 316.339 206.368C318.569 206.368 320.387 205.781 321.795 204.608C323.233 203.435 324.098 201.689 324.391 199.372C323.687 200.105 322.719 200.692 321.487 201.132C320.255 201.543 318.921 201.748 317.483 201.748C315.459 201.748 313.67 201.337 312.115 200.516C310.561 199.695 309.343 198.507 308.463 196.952C307.583 195.397 307.143 193.549 307.143 191.408C307.143 189.325 307.613 187.477 308.551 185.864C309.519 184.221 310.942 182.931 312.819 181.992C314.726 181.053 317.029 180.584 319.727 180.584C323.805 180.584 326.958 181.845 329.187 184.368C331.446 186.861 332.575 190.308 332.575 194.708C332.575 198.521 331.901 201.777 330.551 204.476C329.231 207.175 327.398 209.213 325.051 210.592C322.705 211.971 320.006 212.66 316.955 212.66ZM319.727 195.764C321.018 195.764 322.103 195.324 322.983 194.444C323.863 193.564 324.303 192.493 324.303 191.232C324.303 189.941 323.863 188.856 322.983 187.976C322.103 187.096 321.018 186.656 319.727 186.656C318.466 186.656 317.395 187.111 316.515 188.02C315.635 188.9 315.195 189.971 315.195 191.232C315.195 192.493 315.635 193.564 316.515 194.444C317.395 195.324 318.466 195.764 319.727 195.764Z" fill="#202831"/>
<mask id="mask0_1701_77338" style="mask-type:alpha" maskUnits="userSpaceOnUse" x="2" y="10" width="332" height="198">
<path d="M43.1794 42.66C39.8354 42.66 36.8874 42.0147 34.3354 40.724C31.8127 39.4333 29.8621 37.5853 28.4834 35.18C27.1047 32.7453 26.4154 29.9 26.4154 26.644C26.4154 23.388 27.1047 20.5573 28.4834 18.152C29.8621 15.7173 31.8127 13.8547 34.3354 12.564C36.8874 11.244 39.8354 10.584 43.1794 10.584C45.3794 10.584 47.3447 10.804 49.0754 11.244C50.8061 11.684 52.4047 12.3733 53.8714 13.312V20.704C52.5807 19.6773 51.1141 18.9293 49.4714 18.46C47.8581 17.9907 45.9954 17.756 43.8834 17.756C40.8621 17.756 38.5301 18.548 36.8874 20.132C35.2447 21.6867 34.4234 23.8573 34.4234 26.644C34.4234 29.4307 35.2447 31.616 36.8874 33.2C38.5594 34.784 40.8914 35.576 43.8834 35.576C45.9954 35.576 47.8874 35.3267 49.5594 34.828C51.2314 34.3293 52.7861 33.5373 54.2234 32.452V39.8C51.4367 41.7067 47.7554 42.66 43.1794 42.66ZM67.8476 11.244H81.6636C85.2716 11.244 88.0876 12.1533 90.1116 13.972C92.1649 15.7907 93.1916 18.4013 93.1916 21.804C93.1916 24.092 92.6929 26.0427 91.6956 27.656C90.6982 29.2693 89.2902 30.472 87.4716 31.264L92.9276 42H84.9196L80.0356 32.364H75.6356V42H67.8476V11.244ZM80.2996 25.808C81.8542 25.808 83.0569 25.5147 83.9076 24.928C84.7582 24.312 85.1836 23.2707 85.1836 21.804C85.1836 20.2787 84.7582 19.2373 83.9076 18.68C83.0862 18.0933 81.8836 17.8 80.2996 17.8H75.6356V25.808H80.2996ZM106.853 11.244H128.677V17.8H114.641V23.564H124.893V29.68H114.641V35.444H128.677V42H106.853V11.244ZM153.775 11.244H161.431L173.707 42H165.743L163.279 35.664H151.927L149.463 42H141.455L153.775 11.244ZM161.343 29.68L157.603 19.34L153.819 29.68H161.343ZM188.984 17.8H180.316V11.244H205.484V17.8H196.772V42H188.984V17.8ZM218.455 11.244H226.243V42H218.455V11.244ZM240.745 11.244H248.445L259.753 29.548V11.244H267.541V42H259.885L248.533 23.652V42H240.745V11.244ZM297.955 42.66C294.611 42.66 291.663 42.0147 289.111 40.724C286.588 39.4333 284.638 37.5853 283.259 35.18C281.88 32.7453 281.191 29.9 281.191 26.644C281.191 23.388 281.88 20.5573 283.259 18.152C284.638 15.7173 286.588 13.8547 289.111 12.564C291.663 11.244 294.611 10.584 297.955 10.584C300.184 10.584 302.15 10.804 303.851 11.244C305.582 11.6547 307.18 12.3293 308.647 13.268V20.66C307.356 19.6333 305.89 18.9 304.247 18.46C302.634 17.9907 300.771 17.756 298.659 17.756C296.84 17.756 295.212 18.1227 293.775 18.856C292.367 19.56 291.252 20.5867 290.431 21.936C289.61 23.2853 289.199 24.8547 289.199 26.644C289.199 29.4307 290.006 31.6307 291.619 33.244C293.262 34.8573 295.476 35.664 298.263 35.664C299.818 35.664 301.123 35.4 302.179 34.872V29.944H297.471V24.488H309.571V39.8C306.432 41.7067 302.56 42.66 297.955 42.66ZM56.6594 66.244H67.7034C71.0767 66.244 74.0247 66.86 76.5474 68.092C79.07 69.324 81.006 71.0987 82.3554 73.416C83.734 75.704 84.4234 78.388 84.4234 81.468C84.4234 86.572 82.9274 90.444 79.9354 93.084C76.9434 95.6947 72.7927 97 67.4834 97H56.6594V66.244ZM68.1434 90.444C70.8127 90.444 72.8514 89.6373 74.2594 88.024C75.6967 86.4107 76.4154 84.2253 76.4154 81.468C76.4154 78.9453 75.6967 76.8773 74.2594 75.264C72.8514 73.6213 70.9007 72.8 68.4074 72.8H64.4474V90.444H68.1434ZM98.0709 66.244H105.859V97H98.0709V66.244ZM136.245 97.66C132.901 97.66 129.953 97.0147 127.401 95.724C124.879 94.4333 122.928 92.5853 121.549 90.18C120.171 87.7453 119.481 84.9 119.481 81.644C119.481 78.388 120.171 75.5573 121.549 73.152C122.928 70.7173 124.879 68.8547 127.401 67.564C129.953 66.244 132.901 65.584 136.245 65.584C138.475 65.584 140.44 65.804 142.141 66.244C143.872 66.6547 145.471 67.3293 146.937 68.268V75.66C145.647 74.6333 144.18 73.9 142.537 73.46C140.924 72.9907 139.061 72.756 136.949 72.756C135.131 72.756 133.503 73.1227 132.065 73.856C130.657 74.56 129.543 75.5867 128.721 76.936C127.9 78.2853 127.489 79.8547 127.489 81.644C127.489 84.4307 128.296 86.6307 129.909 88.244C131.552 89.8573 133.767 90.664 136.553 90.664C138.108 90.664 139.413 90.4 140.469 89.872V84.944H135.761V79.488H147.861V94.8C144.723 96.7067 140.851 97.66 136.245 97.66ZM161.515 66.244H169.303V97H161.515V66.244ZM190.934 72.8H182.266V66.244H207.434V72.8H198.722V97H190.934V72.8ZM226.345 66.244H234.001L246.277 97H238.313L235.849 90.664H224.497L222.033 97H214.025L226.345 66.244ZM233.913 84.68L230.173 74.34L226.389 84.68H233.913ZM259.926 66.244H267.714V90.444H281.09V97H259.926V66.244ZM29.0078 152.66C27.0718 152.66 25.1504 152.469 23.2438 152.088C21.3371 151.736 19.7678 151.237 18.5358 150.592V143.596C20.1198 144.417 21.7624 145.033 23.4638 145.444C25.1944 145.855 26.8371 146.06 28.3918 146.06C29.8291 146.06 30.9144 145.84 31.6478 145.4C32.3811 144.96 32.7478 144.329 32.7478 143.508C32.7478 142.892 32.5424 142.364 32.1318 141.924C31.7504 141.455 31.1784 141.029 30.4158 140.648C29.6531 140.267 28.4651 139.739 26.8518 139.064C24.0064 137.861 21.9384 136.527 20.6478 135.06C19.3571 133.593 18.7118 131.789 18.7118 129.648C18.7118 127.888 19.1958 126.319 20.1638 124.94C21.1611 123.561 22.5398 122.491 24.2998 121.728C26.0598 120.965 28.0838 120.584 30.3718 120.584C32.2491 120.584 33.9211 120.731 35.3878 121.024C36.8544 121.317 38.2624 121.787 39.6118 122.432V129.252C37.0304 127.903 34.4344 127.228 31.8238 127.228C30.4158 127.228 29.2864 127.463 28.4358 127.932C27.6144 128.372 27.2038 129.017 27.2038 129.868C27.2038 130.719 27.6291 131.408 28.4798 131.936C29.3304 132.464 30.8998 133.183 33.1878 134.092C35.2704 134.943 36.8838 135.779 38.0278 136.6C39.2011 137.421 40.0518 138.375 40.5798 139.46C41.1078 140.545 41.3718 141.924 41.3718 143.596C41.3718 146.441 40.3304 148.671 38.2478 150.284C36.1944 151.868 33.1144 152.66 29.0078 152.66ZM55.0266 121.244H76.8506V127.8H62.8146V133.564H73.0666V139.68H62.8146V145.444H76.8506V152H55.0266V121.244ZM90.5084 121.244H104.324C107.932 121.244 110.748 122.153 112.772 123.972C114.826 125.791 115.852 128.401 115.852 131.804C115.852 134.092 115.354 136.043 114.356 137.656C113.359 139.269 111.951 140.472 110.132 141.264L115.588 152H107.58L102.696 142.364H98.2964V152H90.5084V121.244ZM102.96 135.808C104.515 135.808 105.718 135.515 106.568 134.928C107.419 134.312 107.844 133.271 107.844 131.804C107.844 130.279 107.419 129.237 106.568 128.68C105.747 128.093 104.544 127.8 102.96 127.8H98.2964V135.808H102.96ZM125.755 121.244H134.071L141.903 141.704L149.735 121.244H158.007L145.731 152H138.075L125.755 121.244ZM171.656 121.244H179.444V152H171.656V121.244ZM209.83 152.66C206.486 152.66 203.538 152.015 200.986 150.724C198.464 149.433 196.513 147.585 195.134 145.18C193.756 142.745 193.066 139.9 193.066 136.644C193.066 133.388 193.756 130.557 195.134 128.152C196.513 125.717 198.464 123.855 200.986 122.564C203.538 121.244 206.486 120.584 209.83 120.584C212.03 120.584 213.996 120.804 215.726 121.244C217.457 121.684 219.056 122.373 220.522 123.312V130.704C219.232 129.677 217.765 128.929 216.122 128.46C214.509 127.991 212.646 127.756 210.534 127.756C207.513 127.756 205.181 128.548 203.538 130.132C201.896 131.687 201.074 133.857 201.074 136.644C201.074 139.431 201.896 141.616 203.538 143.2C205.21 144.784 207.542 145.576 210.534 145.576C212.646 145.576 214.538 145.327 216.21 144.828C217.882 144.329 219.437 143.537 220.874 142.452V149.8C218.088 151.707 214.406 152.66 209.83 152.66ZM234.498 121.244H256.322V127.8H242.286V133.564H252.538V139.68H242.286V145.444H256.322V152H234.498V121.244ZM279.572 152.66C277.636 152.66 275.715 152.469 273.808 152.088C271.902 151.736 270.332 151.237 269.1 150.592V143.596C270.684 144.417 272.327 145.033 274.028 145.444C275.759 145.855 277.402 146.06 278.956 146.06C280.394 146.06 281.479 145.84 282.212 145.4C282.946 144.96 283.312 144.329 283.312 143.508C283.312 142.892 283.107 142.364 282.696 141.924C282.315 141.455 281.743 141.029 280.98 140.648C280.218 140.267 279.03 139.739 277.416 139.064C274.571 137.861 272.503 136.527 271.212 135.06C269.922 133.593 269.276 131.789 269.276 129.648C269.276 127.888 269.76 126.319 270.728 124.94C271.726 123.561 273.104 122.491 274.864 121.728C276.624 120.965 278.648 120.584 280.936 120.584C282.814 120.584 284.486 120.731 285.952 121.024C287.419 121.317 288.827 121.787 290.176 122.432V129.252C287.595 127.903 284.999 127.228 282.388 127.228C280.98 127.228 279.851 127.463 279 127.932C278.179 128.372 277.768 129.017 277.768 129.868C277.768 130.719 278.194 131.408 279.044 131.936C279.895 132.464 281.464 133.183 283.752 134.092C285.835 134.943 287.448 135.779 288.592 136.6C289.766 137.421 290.616 138.375 291.144 139.46C291.672 140.545 291.936 141.924 291.936 143.596C291.936 146.441 290.895 148.671 288.812 150.284C286.759 151.868 283.679 152.66 279.572 152.66ZM12.8997 207.66C10.9637 207.66 9.04232 207.469 7.13565 207.088C5.22899 206.736 3.65965 206.237 2.42765 205.592V198.596C4.01165 199.417 5.65432 200.033 7.35565 200.444C9.08632 200.855 10.729 201.06 12.2837 201.06C13.721 201.06 14.8063 200.84 15.5397 200.4C16.273 199.96 16.6397 199.329 16.6397 198.508C16.6397 197.892 16.4343 197.364 16.0237 196.924C15.6423 196.455 15.0703 196.029 14.3077 195.648C13.545 195.267 12.357 194.739 10.7437 194.064C7.89832 192.861 5.83032 191.527 4.53965 190.06C3.24899 188.593 2.60365 186.789 2.60365 184.648C2.60365 182.888 3.08765 181.319 4.05565 179.94C5.05299 178.561 6.43165 177.491 8.19165 176.728C9.95165 175.965 11.9757 175.584 14.2637 175.584C16.141 175.584 17.813 175.731 19.2797 176.024C20.7463 176.317 22.1543 176.787 23.5037 177.432V184.252C20.9223 182.903 18.3263 182.228 15.7157 182.228C14.3077 182.228 13.1783 182.463 12.3277 182.932C11.5063 183.372 11.0957 184.017 11.0957 184.868C11.0957 185.719 11.521 186.408 12.3717 186.936C13.2223 187.464 14.7917 188.183 17.0797 189.092C19.1623 189.943 20.7757 190.779 21.9197 191.6C23.093 192.421 23.9437 193.375 24.4717 194.46C24.9997 195.545 25.2637 196.924 25.2637 198.596C25.2637 201.441 24.2223 203.671 22.1397 205.284C20.0863 206.868 17.0063 207.66 12.8997 207.66ZM38.9184 176.244H46.7064V207H38.9184V176.244ZM61.2089 176.244H68.9089L80.2169 194.548V176.244H88.0049V207H80.3489L68.9969 188.652V207H61.2089V176.244ZM118.419 207.66C115.075 207.66 112.127 207.015 109.575 205.724C107.052 204.433 105.101 202.585 103.723 200.18C102.344 197.745 101.655 194.9 101.655 191.644C101.655 188.388 102.344 185.557 103.723 183.152C105.101 180.717 107.052 178.855 109.575 177.564C112.127 176.244 115.075 175.584 118.419 175.584C120.619 175.584 122.584 175.804 124.315 176.244C126.045 176.684 127.644 177.373 129.111 178.312V185.704C127.82 184.677 126.353 183.929 124.711 183.46C123.097 182.991 121.235 182.756 119.123 182.756C116.101 182.756 113.769 183.548 112.127 185.132C110.484 186.687 109.663 188.857 109.663 191.644C109.663 194.431 110.484 196.616 112.127 198.2C113.799 199.784 116.131 200.576 119.123 200.576C121.235 200.576 123.127 200.327 124.799 199.828C126.471 199.329 128.025 198.537 129.463 197.452V204.8C126.676 206.707 122.995 207.66 118.419 207.66ZM143.087 176.244H164.911V182.8H150.875V188.564H161.127V194.68H150.875V200.444H164.911V207H143.087V176.244ZM203.202 202.556L208.086 198.112L210.198 196.22C211.928 194.695 213.248 193.477 214.158 192.568C215.096 191.659 215.859 190.735 216.446 189.796C217.062 188.857 217.37 187.933 217.37 187.024C217.37 184.296 215.83 182.932 212.75 182.932C211.254 182.932 209.772 183.196 208.306 183.724C206.868 184.252 205.534 184.985 204.302 185.924V178.488C205.622 177.579 207.162 176.875 208.922 176.376C210.682 175.848 212.559 175.584 214.554 175.584C216.842 175.584 218.822 176.009 220.494 176.86C222.166 177.711 223.442 178.884 224.322 180.38C225.202 181.876 225.642 183.563 225.642 185.44C225.642 187.699 225.114 189.679 224.058 191.38C223.031 193.052 221.359 194.944 219.042 197.056L215.126 200.62H226.61V207H203.202V202.556ZM253.539 207.66C250.694 207.66 248.2 207.029 246.059 205.768C243.918 204.477 242.26 202.629 241.087 200.224C239.943 197.819 239.371 194.959 239.371 191.644C239.371 188.329 239.943 185.469 241.087 183.064C242.231 180.659 243.859 178.811 245.971 177.52C248.112 176.229 250.635 175.584 253.539 175.584C256.443 175.584 258.951 176.229 261.063 177.52C263.204 178.811 264.847 180.659 265.991 183.064C267.135 185.469 267.707 188.329 267.707 191.644C267.707 194.959 267.12 197.819 265.947 200.224C264.803 202.629 263.16 204.477 261.019 205.768C258.878 207.029 256.384 207.66 253.539 207.66ZM253.539 200.356C255.504 200.356 257.03 199.593 258.115 198.068C259.2 196.543 259.743 194.431 259.743 191.732C259.743 189.004 259.2 186.863 258.115 185.308C257.059 183.724 255.534 182.932 253.539 182.932C251.544 182.932 250.004 183.724 248.919 185.308C247.863 186.863 247.335 189.004 247.335 191.732C247.335 194.431 247.878 196.543 248.963 198.068C250.048 199.593 251.574 200.356 253.539 200.356ZM286.73 184.912L280.482 189.444V181.788L288.05 176.244H294.518V207H286.73V184.912ZM317.955 207.66C315.785 207.66 313.922 207.411 312.367 206.912V200.312C313.717 201.016 315.374 201.368 317.339 201.368C319.569 201.368 321.387 200.781 322.795 199.608C324.233 198.435 325.098 196.689 325.391 194.372C324.687 195.105 323.719 195.692 322.487 196.132C321.255 196.543 319.921 196.748 318.483 196.748C316.459 196.748 314.67 196.337 313.115 195.516C311.561 194.695 310.343 193.507 309.463 191.952C308.583 190.397 308.143 188.549 308.143 186.408C308.143 184.325 308.613 182.477 309.551 180.864C310.519 179.221 311.942 177.931 313.819 176.992C315.726 176.053 318.029 175.584 320.727 175.584C324.805 175.584 327.958 176.845 330.187 179.368C332.446 181.861 333.575 185.308 333.575 189.708C333.575 193.521 332.901 196.777 331.551 199.476C330.231 202.175 328.398 204.213 326.051 205.592C323.705 206.971 321.006 207.66 317.955 207.66ZM320.727 190.764C322.018 190.764 323.103 190.324 323.983 189.444C324.863 188.564 325.303 187.493 325.303 186.232C325.303 184.941 324.863 183.856 323.983 182.976C323.103 182.096 322.018 181.656 320.727 181.656C319.466 181.656 318.395 182.111 317.515 183.02C316.635 183.9 316.195 184.971 316.195 186.232C316.195 187.493 316.635 188.564 317.515 189.444C318.395 190.324 319.466 190.764 320.727 190.764Z" fill="#202831"/>
</mask>
<g mask="url(#mask0_1701_77338)">
<path d="M343.219 221.193V-1.95326H290.719V221.193H343.219Z" fill="#EA4136"/>
<path fill-rule="evenodd" clip-rule="evenodd" d="M290.719 221.193V272.688H153.142L172.25 221.193H290.719ZM290.719 -1.95326H255.054L274.162 -53.4485H290.719V-1.95326Z" fill="#EA4136"/>
<path fill-rule="evenodd" clip-rule="evenodd" d="M45.7188 260.708V221.193V-53.4485H-6.78125V272.688H41.2733L45.7188 260.708Z" fill="#EA4136"/>
<path d="M182.656 -53.4485H162.293L60.3817 221.193H116.251L199.054 -1.95326L218.163 -53.4485L182.656 -53.4485Z" fill="#EA4136"/>
<path d="M116.251 221.193H60.3817L45.7188 260.708V272.688H97.1427L116.251 221.193Z" fill="#EA4136"/>
<path d="M60.3817 221.193H45.7188V260.708L60.3817 221.193Z" fill="#EA4136"/>
<path d="M41.2733 272.688H45.7188V260.708L41.2733 272.688Z" fill="#EA4136"/>
<path d="M343.219 -1.95326V-53.4485H290.719V-1.95326H343.219Z" fill="#EA4136"/>
<path d="M343.219 272.688V221.193H290.719V272.688H343.219Z" fill="#EA4136"/>
</g>
</svg>
