<svg width="275" height="170" viewBox="0 0 275 170" fill="none" xmlns="http://www.w3.org/2000/svg">
<path d="M2.75702 16.244H16.309C19.8877 16.244 22.7477 17.1827 24.889 19.06C27.0304 20.9373 28.101 23.5627 28.101 26.936C28.101 30.3973 27.0304 33.0813 24.889 34.988C22.777 36.8653 19.917 37.804 16.309 37.804H10.545V47H2.75702V16.244ZM15.077 31.248C16.6317 31.248 17.849 30.9253 18.729 30.28C19.6384 29.6347 20.093 28.52 20.093 26.936C20.093 25.352 19.653 24.2667 18.773 23.68C17.893 23.0933 16.661 22.8 15.077 22.8H10.545V31.248H15.077ZM41.2897 16.244H55.1057C58.7137 16.244 61.5297 17.1533 63.5537 18.972C65.607 20.7907 66.6337 23.4013 66.6337 26.804C66.6337 29.092 66.135 31.0427 65.1377 32.656C64.1403 34.2693 62.7323 35.472 60.9137 36.264L66.3697 47H58.3617L53.4777 37.364H49.0777V47H41.2897V16.244ZM53.7417 30.808C55.2963 30.808 56.499 30.5147 57.3497 29.928C58.2003 29.312 58.6257 28.2707 58.6257 26.804C58.6257 25.2787 58.2003 24.2373 57.3497 23.68C56.5283 23.0933 55.3257 22.8 53.7417 22.8H49.0777V30.808H53.7417ZM95.3145 47.66C92.2051 47.66 89.3891 46.9853 86.8665 45.636C84.3731 44.2867 82.3931 42.4093 80.9265 40.004C79.4891 37.5693 78.7705 34.7827 78.7705 31.644C78.7705 28.5053 79.4891 25.7187 80.9265 23.284C82.3931 20.8493 84.3731 18.9573 86.8665 17.608C89.3891 16.2587 92.2051 15.584 95.3145 15.584C98.3945 15.584 101.181 16.2587 103.674 17.608C106.197 18.9573 108.177 20.8493 109.614 23.284C111.052 25.7187 111.77 28.5053 111.77 31.644C111.77 34.7827 111.052 37.5693 109.614 40.004C108.177 42.4093 106.197 44.2867 103.674 45.636C101.181 46.9853 98.3945 47.66 95.3145 47.66ZM95.3145 40.356C96.8691 40.356 98.2918 40.004 99.5825 39.3C100.873 38.596 101.9 37.584 102.662 36.264C103.425 34.944 103.806 33.404 103.806 31.644C103.806 29.884 103.425 28.3587 102.662 27.068C101.929 25.748 100.917 24.736 99.6265 24.032C98.3358 23.2987 96.8985 22.932 95.3145 22.932C93.7011 22.932 92.2491 23.2987 90.9585 24.032C89.6678 24.736 88.6411 25.748 87.8785 27.068C87.1451 28.3587 86.7785 29.884 86.7785 31.644C86.7785 33.404 87.1451 34.944 87.8785 36.264C88.6411 37.584 89.6678 38.596 90.9585 39.3C92.2785 40.004 93.7305 40.356 95.3145 40.356ZM125.402 16.244H136.446C139.819 16.244 142.767 16.86 145.29 18.092C147.813 19.324 149.749 21.0987 151.098 23.416C152.477 25.704 153.166 28.388 153.166 31.468C153.166 36.572 151.67 40.444 148.678 43.084C145.686 45.6947 141.535 47 136.226 47H125.402V16.244ZM136.886 40.444C139.555 40.444 141.594 39.6373 143.002 38.024C144.439 36.4107 145.158 34.2253 145.158 31.468C145.158 28.9453 144.439 26.8773 143.002 25.264C141.594 23.6213 139.643 22.8 137.15 22.8H133.19V40.444H136.886ZM180.585 47.66C175.951 47.66 172.46 46.428 170.113 43.964C167.767 41.4707 166.593 38.1853 166.593 34.108V16.244H174.381V34.196C174.381 36.2493 174.924 37.804 176.009 38.86C177.124 39.916 178.649 40.444 180.585 40.444C182.521 40.444 184.032 39.916 185.117 38.86C186.203 37.804 186.745 36.2493 186.745 34.196V16.244H194.533V34.108C194.533 38.2147 193.36 41.5 191.013 43.964C188.696 46.428 185.22 47.66 180.585 47.66ZM224.711 47.66C221.367 47.66 218.419 47.0147 215.867 45.724C213.344 44.4333 211.393 42.5853 210.015 40.18C208.636 37.7453 207.947 34.9 207.947 31.644C207.947 28.388 208.636 25.5573 210.015 23.152C211.393 20.7173 213.344 18.8547 215.867 17.564C218.419 16.244 221.367 15.584 224.711 15.584C226.911 15.584 228.876 15.804 230.607 16.244C232.337 16.684 233.936 17.3733 235.403 18.312V25.704C234.112 24.6773 232.645 23.9293 231.003 23.46C229.389 22.9907 227.527 22.756 225.415 22.756C222.393 22.756 220.061 23.548 218.419 25.132C216.776 26.6867 215.955 28.8573 215.955 31.644C215.955 34.4307 216.776 36.616 218.419 38.2C220.091 39.784 222.423 40.576 225.415 40.576C227.527 40.576 229.419 40.3267 231.091 39.828C232.763 39.3293 234.317 38.5373 235.755 37.452V44.8C232.968 46.7067 229.287 47.66 224.711 47.66ZM256.292 22.8H247.624V16.244H272.792V22.8H264.08V47H256.292V22.8ZM35.623 71.244H46.667C50.0403 71.244 52.9883 71.86 55.511 73.092C58.0336 74.324 59.9696 76.0987 61.319 78.416C62.6976 80.704 63.387 83.388 63.387 86.468C63.387 91.572 61.891 95.444 58.899 98.084C55.907 100.695 51.7563 102 46.447 102H35.623V71.244ZM47.107 95.444C49.7763 95.444 51.815 94.6373 53.223 93.024C54.6603 91.4107 55.379 89.2253 55.379 86.468C55.379 83.9453 54.6603 81.8773 53.223 80.264C51.815 78.6213 49.8643 77.8 47.371 77.8H43.411V95.444H47.107ZM77.0345 71.244H98.8585V77.8H84.8225V83.564H95.0745V89.68H84.8225V95.444H98.8585V102H77.0345V71.244ZM122.108 102.66C120.172 102.66 118.251 102.469 116.344 102.088C114.438 101.736 112.868 101.237 111.636 100.592V93.596C113.22 94.4173 114.863 95.0333 116.564 95.444C118.295 95.8547 119.938 96.06 121.492 96.06C122.93 96.06 124.015 95.84 124.748 95.4C125.482 94.96 125.848 94.3293 125.848 93.508C125.848 92.892 125.643 92.364 125.232 91.924C124.851 91.4547 124.279 91.0293 123.516 90.648C122.754 90.2667 121.566 89.7387 119.952 89.064C117.107 87.8613 115.039 86.5267 113.748 85.06C112.458 83.5933 111.812 81.7893 111.812 79.648C111.812 77.888 112.296 76.3187 113.264 74.94C114.262 73.5613 115.64 72.4907 117.4 71.728C119.16 70.9653 121.184 70.584 123.472 70.584C125.35 70.584 127.022 70.7307 128.488 71.024C129.955 71.3173 131.363 71.7867 132.712 72.432V79.252C130.131 77.9027 127.535 77.228 124.924 77.228C123.516 77.228 122.387 77.4627 121.536 77.932C120.715 78.372 120.304 79.0173 120.304 79.868C120.304 80.7187 120.73 81.408 121.58 81.936C122.431 82.464 124 83.1827 126.288 84.092C128.371 84.9427 129.984 85.7787 131.128 86.6C132.302 87.4213 133.152 88.3747 133.68 89.46C134.208 90.5453 134.472 91.924 134.472 93.596C134.472 96.4413 133.431 98.6707 131.348 100.284C129.295 101.868 126.215 102.66 122.108 102.66ZM148.127 71.244H155.915V102H148.127V71.244ZM186.302 102.66C182.958 102.66 180.01 102.015 177.458 100.724C174.935 99.4333 172.984 97.5853 171.606 95.18C170.227 92.7453 169.538 89.9 169.538 86.644C169.538 83.388 170.227 80.5573 171.606 78.152C172.984 75.7173 174.935 73.8547 177.458 72.564C180.01 71.244 182.958 70.584 186.302 70.584C188.531 70.584 190.496 70.804 192.198 71.244C193.928 71.6547 195.527 72.3293 196.994 73.268V80.66C195.703 79.6333 194.236 78.9 192.594 78.46C190.98 77.9907 189.118 77.756 187.006 77.756C185.187 77.756 183.559 78.1227 182.122 78.856C180.714 79.56 179.599 80.5867 178.778 81.936C177.956 83.2853 177.546 84.8547 177.546 86.644C177.546 89.4307 178.352 91.6307 179.966 93.244C181.608 94.8573 183.823 95.664 186.61 95.664C188.164 95.664 189.47 95.4 190.526 94.872V89.944H185.818V84.488H197.918V99.8C194.779 101.707 190.907 102.66 186.302 102.66ZM211.571 71.244H219.271L230.579 89.548V71.244H238.367V102H230.711L219.359 83.652V102H211.571V71.244ZM34.3442 126.244H42.0002L54.2762 157H46.3122L43.8482 150.664H32.4962L30.0322 157H22.0242L34.3442 126.244ZM41.9122 144.68L38.1722 134.34L34.3882 144.68H41.9122ZM81.4029 157.66C78.0589 157.66 75.1109 157.015 72.5589 155.724C70.0362 154.433 68.0856 152.585 66.7069 150.18C65.3282 147.745 64.6389 144.9 64.6389 141.644C64.6389 138.388 65.3282 135.557 66.7069 133.152C68.0856 130.717 70.0362 128.855 72.5589 127.564C75.1109 126.244 78.0589 125.584 81.4029 125.584C83.6322 125.584 85.5976 125.804 87.2989 126.244C89.0296 126.655 90.6282 127.329 92.0949 128.268V135.66C90.8042 134.633 89.3376 133.9 87.6949 133.46C86.0816 132.991 84.2189 132.756 82.1069 132.756C80.2882 132.756 78.6602 133.123 77.2229 133.856C75.8149 134.56 74.7002 135.587 73.8789 136.936C73.0576 138.285 72.6469 139.855 72.6469 141.644C72.6469 144.431 73.4536 146.631 75.0669 148.244C76.7096 149.857 78.9242 150.664 81.7109 150.664C83.2656 150.664 84.5709 150.4 85.6269 149.872V144.944H80.9189V139.488H93.0189V154.8C89.8802 156.707 86.0082 157.66 81.4029 157.66ZM106.673 126.244H128.497V132.8H114.461V138.564H124.713V144.68H114.461V150.444H128.497V157H106.673V126.244ZM142.155 126.244H149.855L161.163 144.548V126.244H168.951V157H161.295L149.943 138.652V157H142.155V126.244ZM199.364 157.66C196.02 157.66 193.072 157.015 190.52 155.724C187.997 154.433 186.047 152.585 184.668 150.18C183.289 147.745 182.6 144.9 182.6 141.644C182.6 138.388 183.289 135.557 184.668 133.152C186.047 130.717 187.997 128.855 190.52 127.564C193.072 126.244 196.02 125.584 199.364 125.584C201.564 125.584 203.529 125.804 205.26 126.244C206.991 126.684 208.589 127.373 210.056 128.312V135.704C208.765 134.677 207.299 133.929 205.656 133.46C204.043 132.991 202.18 132.756 200.068 132.756C197.047 132.756 194.715 133.548 193.072 135.132C191.429 136.687 190.608 138.857 190.608 141.644C190.608 144.431 191.429 146.616 193.072 148.2C194.744 149.784 197.076 150.576 200.068 150.576C202.18 150.576 204.072 150.327 205.744 149.828C207.416 149.329 208.971 148.537 210.408 147.452V154.8C207.621 156.707 203.94 157.66 199.364 157.66ZM232.528 145.296L221.176 126.244H229.492L236.444 138.168L243.704 126.244H251.976L240.316 145.296V157H232.528V145.296Z" fill="#202831"/>
<mask id="mask0_2808_166168" style="mask-type:alpha" maskUnits="userSpaceOnUse" x="3" y="10" width="271" height="143">
<path d="M3.75702 11.244H17.309C20.8877 11.244 23.7477 12.1827 25.889 14.06C28.0304 15.9373 29.101 18.5627 29.101 21.936C29.101 25.3973 28.0304 28.0813 25.889 29.988C23.777 31.8653 20.917 32.804 17.309 32.804H11.545V42H3.75702V11.244ZM16.077 26.248C17.6317 26.248 18.849 25.9253 19.729 25.28C20.6384 24.6347 21.093 23.52 21.093 21.936C21.093 20.352 20.653 19.2667 19.773 18.68C18.893 18.0933 17.661 17.8 16.077 17.8H11.545V26.248H16.077ZM42.2897 11.244H56.1057C59.7137 11.244 62.5297 12.1533 64.5537 13.972C66.607 15.7907 67.6337 18.4013 67.6337 21.804C67.6337 24.092 67.135 26.0427 66.1377 27.656C65.1403 29.2693 63.7323 30.472 61.9137 31.264L67.3697 42H59.3617L54.4777 32.364H50.0777V42H42.2897V11.244ZM54.7417 25.808C56.2963 25.808 57.499 25.5147 58.3497 24.928C59.2003 24.312 59.6257 23.2707 59.6257 21.804C59.6257 20.2787 59.2003 19.2373 58.3497 18.68C57.5283 18.0933 56.3257 17.8 54.7417 17.8H50.0777V25.808H54.7417ZM96.3145 42.66C93.2051 42.66 90.3891 41.9853 87.8665 40.636C85.3731 39.2867 83.3931 37.4093 81.9265 35.004C80.4891 32.5693 79.7705 29.7827 79.7705 26.644C79.7705 23.5053 80.4891 20.7187 81.9265 18.284C83.3931 15.8493 85.3731 13.9573 87.8665 12.608C90.3891 11.2587 93.2051 10.584 96.3145 10.584C99.3945 10.584 102.181 11.2587 104.674 12.608C107.197 13.9573 109.177 15.8493 110.614 18.284C112.052 20.7187 112.77 23.5053 112.77 26.644C112.77 29.7827 112.052 32.5693 110.614 35.004C109.177 37.4093 107.197 39.2867 104.674 40.636C102.181 41.9853 99.3945 42.66 96.3145 42.66ZM96.3145 35.356C97.8691 35.356 99.2918 35.004 100.582 34.3C101.873 33.596 102.9 32.584 103.662 31.264C104.425 29.944 104.806 28.404 104.806 26.644C104.806 24.884 104.425 23.3587 103.662 22.068C102.929 20.748 101.917 19.736 100.626 19.032C99.3358 18.2987 97.8985 17.932 96.3145 17.932C94.7011 17.932 93.2491 18.2987 91.9585 19.032C90.6678 19.736 89.6411 20.748 88.8785 22.068C88.1451 23.3587 87.7785 24.884 87.7785 26.644C87.7785 28.404 88.1451 29.944 88.8785 31.264C89.6411 32.584 90.6678 33.596 91.9585 34.3C93.2785 35.004 94.7305 35.356 96.3145 35.356ZM126.402 11.244H137.446C140.819 11.244 143.767 11.86 146.29 13.092C148.813 14.324 150.749 16.0987 152.098 18.416C153.477 20.704 154.166 23.388 154.166 26.468C154.166 31.572 152.67 35.444 149.678 38.084C146.686 40.6947 142.535 42 137.226 42H126.402V11.244ZM137.886 35.444C140.555 35.444 142.594 34.6373 144.002 33.024C145.439 31.4107 146.158 29.2253 146.158 26.468C146.158 23.9453 145.439 21.8773 144.002 20.264C142.594 18.6213 140.643 17.8 138.15 17.8H134.19V35.444H137.886ZM181.585 42.66C176.951 42.66 173.46 41.428 171.113 38.964C168.767 36.4707 167.593 33.1853 167.593 29.108V11.244H175.381V29.196C175.381 31.2493 175.924 32.804 177.009 33.86C178.124 34.916 179.649 35.444 181.585 35.444C183.521 35.444 185.032 34.916 186.117 33.86C187.203 32.804 187.745 31.2493 187.745 29.196V11.244H195.533V29.108C195.533 33.2147 194.36 36.5 192.013 38.964C189.696 41.428 186.22 42.66 181.585 42.66ZM225.711 42.66C222.367 42.66 219.419 42.0147 216.867 40.724C214.344 39.4333 212.393 37.5853 211.015 35.18C209.636 32.7453 208.947 29.9 208.947 26.644C208.947 23.388 209.636 20.5573 211.015 18.152C212.393 15.7173 214.344 13.8547 216.867 12.564C219.419 11.244 222.367 10.584 225.711 10.584C227.911 10.584 229.876 10.804 231.607 11.244C233.337 11.684 234.936 12.3733 236.403 13.312V20.704C235.112 19.6773 233.645 18.9293 232.003 18.46C230.389 17.9907 228.527 17.756 226.415 17.756C223.393 17.756 221.061 18.548 219.419 20.132C217.776 21.6867 216.955 23.8573 216.955 26.644C216.955 29.4307 217.776 31.616 219.419 33.2C221.091 34.784 223.423 35.576 226.415 35.576C228.527 35.576 230.419 35.3267 232.091 34.828C233.763 34.3293 235.317 33.5373 236.755 32.452V39.8C233.968 41.7067 230.287 42.66 225.711 42.66ZM257.292 17.8H248.624V11.244H273.792V17.8H265.08V42H257.292V17.8ZM36.623 66.244H47.667C51.0403 66.244 53.9883 66.86 56.511 68.092C59.0336 69.324 60.9696 71.0987 62.319 73.416C63.6976 75.704 64.387 78.388 64.387 81.468C64.387 86.572 62.891 90.444 59.899 93.084C56.907 95.6947 52.7563 97 47.447 97H36.623V66.244ZM48.107 90.444C50.7763 90.444 52.815 89.6373 54.223 88.024C55.6603 86.4107 56.379 84.2253 56.379 81.468C56.379 78.9453 55.6603 76.8773 54.223 75.264C52.815 73.6213 50.8643 72.8 48.371 72.8H44.411V90.444H48.107ZM78.0345 66.244H99.8585V72.8H85.8225V78.564H96.0745V84.68H85.8225V90.444H99.8585V97H78.0345V66.244ZM123.108 97.66C121.172 97.66 119.251 97.4693 117.344 97.088C115.438 96.736 113.868 96.2373 112.636 95.592V88.596C114.22 89.4173 115.863 90.0333 117.564 90.444C119.295 90.8547 120.938 91.06 122.492 91.06C123.93 91.06 125.015 90.84 125.748 90.4C126.482 89.96 126.848 89.3293 126.848 88.508C126.848 87.892 126.643 87.364 126.232 86.924C125.851 86.4547 125.279 86.0293 124.516 85.648C123.754 85.2667 122.566 84.7387 120.952 84.064C118.107 82.8613 116.039 81.5267 114.748 80.06C113.458 78.5933 112.812 76.7893 112.812 74.648C112.812 72.888 113.296 71.3187 114.264 69.94C115.262 68.5613 116.64 67.4907 118.4 66.728C120.16 65.9653 122.184 65.584 124.472 65.584C126.35 65.584 128.022 65.7307 129.488 66.024C130.955 66.3173 132.363 66.7867 133.712 67.432V74.252C131.131 72.9027 128.535 72.228 125.924 72.228C124.516 72.228 123.387 72.4627 122.536 72.932C121.715 73.372 121.304 74.0173 121.304 74.868C121.304 75.7187 121.73 76.408 122.58 76.936C123.431 77.464 125 78.1827 127.288 79.092C129.371 79.9427 130.984 80.7787 132.128 81.6C133.302 82.4213 134.152 83.3747 134.68 84.46C135.208 85.5453 135.472 86.924 135.472 88.596C135.472 91.4413 134.431 93.6707 132.348 95.284C130.295 96.868 127.215 97.66 123.108 97.66ZM149.127 66.244H156.915V97H149.127V66.244ZM187.302 97.66C183.958 97.66 181.01 97.0147 178.458 95.724C175.935 94.4333 173.984 92.5853 172.606 90.18C171.227 87.7453 170.538 84.9 170.538 81.644C170.538 78.388 171.227 75.5573 172.606 73.152C173.984 70.7173 175.935 68.8547 178.458 67.564C181.01 66.244 183.958 65.584 187.302 65.584C189.531 65.584 191.496 65.804 193.198 66.244C194.928 66.6547 196.527 67.3293 197.994 68.268V75.66C196.703 74.6333 195.236 73.9 193.594 73.46C191.98 72.9907 190.118 72.756 188.006 72.756C186.187 72.756 184.559 73.1227 183.122 73.856C181.714 74.56 180.599 75.5867 179.778 76.936C178.956 78.2853 178.546 79.8547 178.546 81.644C178.546 84.4307 179.352 86.6307 180.966 88.244C182.608 89.8573 184.823 90.664 187.61 90.664C189.164 90.664 190.47 90.4 191.526 89.872V84.944H186.818V79.488H198.918V94.8C195.779 96.7067 191.907 97.66 187.302 97.66ZM212.571 66.244H220.271L231.579 84.548V66.244H239.367V97H231.711L220.359 78.652V97H212.571V66.244ZM35.3442 121.244H43.0002L55.2762 152H47.3122L44.8482 145.664H33.4962L31.0322 152H23.0242L35.3442 121.244ZM42.9122 139.68L39.1722 129.34L35.3882 139.68H42.9122ZM82.4029 152.66C79.0589 152.66 76.1109 152.015 73.5589 150.724C71.0362 149.433 69.0856 147.585 67.7069 145.18C66.3282 142.745 65.6389 139.9 65.6389 136.644C65.6389 133.388 66.3282 130.557 67.7069 128.152C69.0856 125.717 71.0362 123.855 73.5589 122.564C76.1109 121.244 79.0589 120.584 82.4029 120.584C84.6322 120.584 86.5976 120.804 88.2989 121.244C90.0296 121.655 91.6282 122.329 93.0949 123.268V130.66C91.8042 129.633 90.3376 128.9 88.6949 128.46C87.0816 127.991 85.2189 127.756 83.1069 127.756C81.2882 127.756 79.6602 128.123 78.2229 128.856C76.8149 129.56 75.7002 130.587 74.8789 131.936C74.0576 133.285 73.6469 134.855 73.6469 136.644C73.6469 139.431 74.4536 141.631 76.0669 143.244C77.7096 144.857 79.9242 145.664 82.7109 145.664C84.2656 145.664 85.5709 145.4 86.6269 144.872V139.944H81.9189V134.488H94.0189V149.8C90.8802 151.707 87.0082 152.66 82.4029 152.66ZM107.673 121.244H129.497V127.8H115.461V133.564H125.713V139.68H115.461V145.444H129.497V152H107.673V121.244ZM143.155 121.244H150.855L162.163 139.548V121.244H169.951V152H162.295L150.943 133.652V152H143.155V121.244ZM200.364 152.66C197.02 152.66 194.072 152.015 191.52 150.724C188.997 149.433 187.047 147.585 185.668 145.18C184.289 142.745 183.6 139.9 183.6 136.644C183.6 133.388 184.289 130.557 185.668 128.152C187.047 125.717 188.997 123.855 191.52 122.564C194.072 121.244 197.02 120.584 200.364 120.584C202.564 120.584 204.529 120.804 206.26 121.244C207.991 121.684 209.589 122.373 211.056 123.312V130.704C209.765 129.677 208.299 128.929 206.656 128.46C205.043 127.991 203.18 127.756 201.068 127.756C198.047 127.756 195.715 128.548 194.072 130.132C192.429 131.687 191.608 133.857 191.608 136.644C191.608 139.431 192.429 141.616 194.072 143.2C195.744 144.784 198.076 145.576 201.068 145.576C203.18 145.576 205.072 145.327 206.744 144.828C208.416 144.329 209.971 143.537 211.408 142.452V149.8C208.621 151.707 204.94 152.66 200.364 152.66ZM233.528 140.296L222.176 121.244H230.492L237.444 133.168L244.704 121.244H252.976L241.316 140.296V152H233.528V140.296Z" fill="#202831"/>
</mask>
<g mask="url(#mask0_2808_166168)">
<path d="M312.719 193.193V-29.9533H260.219V193.193H312.719Z" fill="#EA4136"/>
<path fill-rule="evenodd" clip-rule="evenodd" d="M260.219 193.193V244.688H122.642L141.75 193.193H260.219ZM260.219 -29.9533H224.554L243.662 -81.4486H260.219V-29.9533Z" fill="#EA4136"/>
<path fill-rule="evenodd" clip-rule="evenodd" d="M15.2188 232.708V193.193V-81.4486H-37.2812V244.688H10.7733L15.2188 232.708Z" fill="#EA4136"/>
<path d="M152.156 -81.4486H131.793L29.8817 193.193H85.7511L168.554 -29.9533L187.663 -81.4486H152.156Z" fill="#EA4136"/>
<path d="M85.7511 193.193H29.8817L15.2188 232.708V244.688H66.6427L85.7511 193.193Z" fill="#EA4136"/>
<path d="M29.8817 193.193H15.2188V232.708L29.8817 193.193Z" fill="#EA4136"/>
<path d="M10.7733 244.688H15.2188V232.708L10.7733 244.688Z" fill="#EA4136"/>
<path d="M312.719 -29.9533V-81.4486H260.219V-29.9533H312.719Z" fill="#EA4136"/>
<path d="M312.719 244.688V193.193H260.219V244.688H312.719Z" fill="#EA4136"/>
</g>
</svg>
