<svg width="939" height="160" viewBox="0 0 939 160" fill="none" xmlns="http://www.w3.org/2000/svg">
<path d="M130.978 16.264H147.042C151.948 16.264 156.236 17.16 159.906 18.952C163.575 20.744 166.391 23.3253 168.354 26.696C170.359 30.024 171.362 33.928 171.362 38.408C171.362 45.832 169.186 51.464 164.834 55.304C160.482 59.1013 154.444 61 146.722 61H130.978V16.264ZM147.682 51.464C151.564 51.464 154.53 50.2907 156.578 47.944C158.668 45.5973 159.714 42.4187 159.714 38.408C159.714 34.7387 158.668 31.7307 156.578 29.384C154.53 26.9947 151.692 25.8 148.066 25.8H142.306V51.464H147.682ZM191.213 16.264H222.957V25.8H202.541V34.184H217.453V43.08H202.541V51.464H222.957V61H191.213V16.264ZM256.775 61.96C253.959 61.96 251.164 61.6827 248.391 61.128C245.617 60.616 243.335 59.8907 241.543 58.952V48.776C243.847 49.9707 246.236 50.8667 248.711 51.464C251.228 52.0613 253.617 52.36 255.879 52.36C257.969 52.36 259.548 52.04 260.615 51.4C261.681 50.76 262.215 49.8427 262.215 48.648C262.215 47.752 261.916 46.984 261.319 46.344C260.764 45.6613 259.932 45.0427 258.823 44.488C257.713 43.9333 255.985 43.1653 253.639 42.184C249.5 40.4347 246.492 38.4933 244.615 36.36C242.737 34.2267 241.799 31.6027 241.799 28.488C241.799 25.928 242.503 23.6453 243.911 21.64C245.361 19.6347 247.367 18.0773 249.927 16.968C252.487 15.8587 255.431 15.304 258.759 15.304C261.489 15.304 263.921 15.5173 266.055 15.944C268.188 16.3707 270.236 17.0533 272.199 17.992V27.912C268.444 25.9493 264.668 24.968 260.871 24.968C258.823 24.968 257.18 25.3093 255.943 25.992C254.748 26.632 254.151 27.5707 254.151 28.808C254.151 30.0453 254.769 31.048 256.007 31.816C257.244 32.584 259.527 33.6293 262.855 34.952C265.884 36.1893 268.231 37.4053 269.895 38.6C271.601 39.7947 272.839 41.1813 273.607 42.76C274.375 44.3387 274.759 46.344 274.759 48.776C274.759 52.9147 273.244 56.1573 270.215 58.504C267.228 60.808 262.748 61.96 256.775 61.96ZM294.62 16.264H305.948V61H294.62V16.264ZM350.147 61.96C345.283 61.96 340.995 61.0213 337.283 59.144C333.613 57.2667 330.776 54.5787 328.771 51.08C326.765 47.5387 325.763 43.4 325.763 38.664C325.763 33.928 326.765 29.8107 328.771 26.312C330.776 22.7707 333.613 20.0613 337.283 18.184C340.995 16.264 345.283 15.304 350.147 15.304C353.389 15.304 356.248 15.624 358.723 16.264C361.24 16.8613 363.565 17.8427 365.699 19.208V29.96C363.821 28.4667 361.688 27.4 359.299 26.76C356.952 26.0773 354.243 25.736 351.171 25.736C348.525 25.736 346.157 26.2693 344.067 27.336C342.019 28.36 340.397 29.8533 339.203 31.816C338.008 33.7787 337.411 36.0613 337.411 38.664C337.411 42.7173 338.584 45.9173 340.931 48.264C343.32 50.6107 346.541 51.784 350.595 51.784C352.856 51.784 354.755 51.4 356.291 50.632V43.464H349.443V35.528H367.043V57.8C362.477 60.5733 356.845 61.96 350.147 61.96ZM386.903 16.264H398.103L414.551 42.888V16.264H425.879V61H414.743L398.231 34.312V61H386.903V16.264ZM484.122 16.264H500.186C505.093 16.264 509.381 17.16 513.05 18.952C516.72 20.744 519.536 23.3253 521.498 26.696C523.504 30.024 524.506 33.928 524.506 38.408C524.506 45.832 522.33 51.464 517.978 55.304C513.626 59.1013 507.589 61 499.866 61H484.122V16.264ZM500.826 51.464C504.709 51.464 507.674 50.2907 509.722 47.944C511.813 45.5973 512.858 42.4187 512.858 38.408C512.858 34.7387 511.813 31.7307 509.722 29.384C507.674 26.9947 504.837 25.8 501.21 25.8H495.45V51.464H500.826ZM544.358 16.264H555.686V61H544.358V16.264ZM599.884 61.96C595.02 61.96 590.732 61.0213 587.02 59.144C583.351 57.2667 580.513 54.5787 578.508 51.08C576.503 47.5387 575.5 43.4 575.5 38.664C575.5 33.928 576.503 29.8107 578.508 26.312C580.513 22.7707 583.351 20.0613 587.02 18.184C590.732 16.264 595.02 15.304 599.884 15.304C603.127 15.304 605.985 15.624 608.46 16.264C610.977 16.8613 613.303 17.8427 615.436 19.208V29.96C613.559 28.4667 611.425 27.4 609.036 26.76C606.689 26.0773 603.98 25.736 600.908 25.736C598.263 25.736 595.895 26.2693 593.804 27.336C591.756 28.36 590.135 29.8533 588.94 31.816C587.745 33.7787 587.148 36.0613 587.148 38.664C587.148 42.7173 588.321 45.9173 590.668 48.264C593.057 50.6107 596.279 51.784 600.332 51.784C602.593 51.784 604.492 51.4 606.028 50.632V43.464H599.18V35.528H616.78V57.8C612.215 60.5733 606.583 61.96 599.884 61.96ZM636.64 16.264H647.968V61H636.64V16.264ZM679.43 25.8H666.822V16.264H703.43V25.8H690.758V61H679.43V25.8ZM730.937 16.264H742.073L759.929 61H748.345L744.761 51.784H728.249L724.665 61H713.017L730.937 16.264ZM741.945 43.08L736.505 28.04L731.001 43.08H741.945ZM779.782 16.264H791.11V51.464H810.566V61H779.782V16.264ZM17.217 141.96C14.401 141.96 11.6063 141.683 8.83301 141.128C6.05968 140.616 3.77701 139.891 1.98501 138.952V128.776C4.28901 129.971 6.67834 130.867 9.15301 131.464C11.6703 132.061 14.0597 132.36 16.321 132.36C18.4117 132.36 19.9903 132.04 21.057 131.4C22.1237 130.76 22.657 129.843 22.657 128.648C22.657 127.752 22.3583 126.984 21.761 126.344C21.2063 125.661 20.3743 125.043 19.265 124.488C18.1557 123.933 16.4277 123.165 14.081 122.184C9.94234 120.435 6.93434 118.493 5.05701 116.36C3.17968 114.227 2.24101 111.603 2.24101 108.488C2.24101 105.928 2.94501 103.645 4.35301 101.64C5.80368 99.6347 7.80901 98.0773 10.369 96.968C12.929 95.8587 15.873 95.304 19.201 95.304C21.9317 95.304 24.3637 95.5173 26.497 95.944C28.6303 96.3707 30.6783 97.0533 32.641 97.992V107.912C28.8863 105.949 25.1103 104.968 21.313 104.968C19.265 104.968 17.6223 105.309 16.385 105.992C15.1903 106.632 14.593 107.571 14.593 108.808C14.593 110.045 15.2117 111.048 16.449 111.816C17.6863 112.584 19.969 113.629 23.297 114.952C26.3263 116.189 28.673 117.405 30.337 118.6C32.0437 119.795 33.281 121.181 34.049 122.76C34.817 124.339 35.201 126.344 35.201 128.776C35.201 132.915 33.6863 136.157 30.657 138.504C27.6703 140.808 23.1903 141.96 17.217 141.96ZM55.0625 96.264H86.8065V105.8H66.3905V114.184H81.3025V123.08H66.3905V131.464H86.8065V141H55.0625V96.264ZM106.673 96.264H126.769C132.017 96.264 136.113 97.5867 139.057 100.232C142.043 102.877 143.537 106.675 143.537 111.624C143.537 114.952 142.811 117.789 141.361 120.136C139.91 122.483 137.862 124.232 135.217 125.384L143.153 141H131.505L124.401 126.984H118.001V141H106.673V96.264ZM124.785 117.448C127.046 117.448 128.795 117.021 130.033 116.168C131.27 115.272 131.889 113.757 131.889 111.624C131.889 109.405 131.27 107.891 130.033 107.08C128.838 106.227 127.089 105.8 124.785 105.8H118.001V117.448H124.785ZM157.94 96.264H170.036L181.428 126.024L192.82 96.264H204.852L186.996 141H175.86L157.94 96.264ZM224.705 96.264H236.033V141H224.705V96.264ZM280.232 141.96C275.368 141.96 271.08 141.021 267.368 139.144C263.698 137.267 260.861 134.579 258.856 131.08C256.85 127.539 255.848 123.4 255.848 118.664C255.848 113.928 256.85 109.811 258.856 106.312C260.861 102.771 263.698 100.061 267.368 98.184C271.08 96.264 275.368 95.304 280.232 95.304C283.432 95.304 286.29 95.624 288.808 96.264C291.325 96.904 293.65 97.9067 295.784 99.272V110.024C293.906 108.531 291.773 107.443 289.384 106.76C287.037 106.077 284.328 105.736 281.256 105.736C276.861 105.736 273.469 106.888 271.08 109.192C268.69 111.453 267.496 114.611 267.496 118.664C267.496 122.717 268.69 125.896 271.08 128.2C273.512 130.504 276.904 131.656 281.256 131.656C284.328 131.656 287.08 131.293 289.512 130.568C291.944 129.843 294.205 128.691 296.296 127.112V137.8C292.242 140.573 286.888 141.96 280.232 141.96ZM316.113 96.264H347.857V105.8H327.441V114.184H342.353V123.08H327.441V131.464H347.857V141H316.113V96.264ZM381.674 141.96C378.858 141.96 376.064 141.683 373.29 141.128C370.517 140.616 368.234 139.891 366.442 138.952V128.776C368.746 129.971 371.136 130.867 373.61 131.464C376.128 132.061 378.517 132.36 380.778 132.36C382.869 132.36 384.448 132.04 385.514 131.4C386.581 130.76 387.115 129.843 387.115 128.648C387.115 127.752 386.816 126.984 386.219 126.344C385.664 125.661 384.832 125.043 383.722 124.488C382.613 123.933 380.885 123.165 378.538 122.184C374.4 120.435 371.392 118.493 369.514 116.36C367.637 114.227 366.698 111.603 366.698 108.488C366.698 105.928 367.402 103.645 368.81 101.64C370.261 99.6347 372.266 98.0773 374.826 96.968C377.386 95.8587 380.33 95.304 383.658 95.304C386.389 95.304 388.821 95.5173 390.955 95.944C393.088 96.3707 395.136 97.0533 397.098 97.992V107.912C393.344 105.949 389.568 104.968 385.771 104.968C383.722 104.968 382.08 105.309 380.842 105.992C379.648 106.632 379.05 107.571 379.05 108.808C379.05 110.045 379.669 111.048 380.906 111.816C382.144 112.584 384.426 113.629 387.754 114.952C390.784 116.189 393.131 117.405 394.795 118.6C396.501 119.795 397.738 121.181 398.507 122.76C399.275 124.339 399.659 126.344 399.659 128.776C399.659 132.915 398.144 136.157 395.115 138.504C392.128 140.808 387.648 141.96 381.674 141.96ZM470.582 141.96C467.766 141.96 464.971 141.683 462.198 141.128C459.425 140.616 457.142 139.891 455.35 138.952V128.776C457.654 129.971 460.043 130.867 462.518 131.464C465.035 132.061 467.425 132.36 469.686 132.36C471.777 132.36 473.355 132.04 474.422 131.4C475.489 130.76 476.022 129.843 476.022 128.648C476.022 127.752 475.723 126.984 475.126 126.344C474.571 125.661 473.739 125.043 472.63 124.488C471.521 123.933 469.793 123.165 467.446 122.184C463.307 120.435 460.299 118.493 458.422 116.36C456.545 114.227 455.606 111.603 455.606 108.488C455.606 105.928 456.31 103.645 457.718 101.64C459.169 99.6347 461.174 98.0773 463.734 96.968C466.294 95.8587 469.238 95.304 472.566 95.304C475.297 95.304 477.729 95.5173 479.862 95.944C481.995 96.3707 484.043 97.0533 486.006 97.992V107.912C482.251 105.949 478.475 104.968 474.678 104.968C472.63 104.968 470.987 105.309 469.75 105.992C468.555 106.632 467.958 107.571 467.958 108.808C467.958 110.045 468.577 111.048 469.814 111.816C471.051 112.584 473.334 113.629 476.662 114.952C479.691 116.189 482.038 117.405 483.702 118.6C485.409 119.795 486.646 121.181 487.414 122.76C488.182 124.339 488.566 126.344 488.566 128.776C488.566 132.915 487.051 136.157 484.022 138.504C481.035 140.808 476.555 141.96 470.582 141.96ZM508.428 96.264H519.756V141H508.428V96.264ZM540.85 96.264H552.05L568.498 122.888V96.264H579.826V141H568.69L552.178 114.312V141H540.85V96.264ZM624.064 141.96C619.2 141.96 614.912 141.021 611.2 139.144C607.531 137.267 604.693 134.579 602.688 131.08C600.683 127.539 599.68 123.4 599.68 118.664C599.68 113.928 600.683 109.811 602.688 106.312C604.693 102.771 607.531 100.061 611.2 98.184C614.912 96.264 619.2 95.304 624.064 95.304C627.264 95.304 630.123 95.624 632.64 96.264C635.157 96.904 637.483 97.9067 639.616 99.272V110.024C637.739 108.531 635.605 107.443 633.216 106.76C630.869 106.077 628.16 105.736 625.088 105.736C620.693 105.736 617.301 106.888 614.912 109.192C612.523 111.453 611.328 114.611 611.328 118.664C611.328 122.717 612.523 125.896 614.912 128.2C617.344 130.504 620.736 131.656 625.088 131.656C628.16 131.656 630.912 131.293 633.344 130.568C635.776 129.843 638.037 128.691 640.128 127.112V137.8C636.075 140.573 630.72 141.96 624.064 141.96ZM659.945 96.264H691.689V105.8H671.273V114.184H686.185V123.08H671.273V131.464H691.689V141H659.945V96.264ZM747.385 134.536L754.489 128.072L757.561 125.32C760.078 123.101 761.998 121.331 763.321 120.008C764.686 118.685 765.796 117.341 766.649 115.976C767.545 114.611 767.993 113.267 767.993 111.944C767.993 107.976 765.753 105.992 761.273 105.992C759.097 105.992 756.942 106.376 754.809 107.144C752.718 107.912 750.777 108.979 748.985 110.344V99.528C750.905 98.2053 753.145 97.1813 755.705 96.456C758.265 95.688 760.996 95.304 763.897 95.304C767.225 95.304 770.105 95.9227 772.537 97.16C774.969 98.3973 776.825 100.104 778.105 102.28C779.385 104.456 780.025 106.909 780.025 109.64C780.025 112.925 779.257 115.805 777.721 118.28C776.228 120.712 773.796 123.464 770.425 126.536L764.729 131.72H781.433V141H747.385V134.536ZM820.603 141.96C816.464 141.96 812.838 141.043 809.723 139.208C806.608 137.331 804.198 134.643 802.491 131.144C800.827 127.645 799.995 123.485 799.995 118.664C799.995 113.843 800.827 109.683 802.491 106.184C804.155 102.685 806.523 99.9973 809.595 98.12C812.71 96.2427 816.379 95.304 820.603 95.304C824.827 95.304 828.475 96.2427 831.547 98.12C834.662 99.9973 837.051 102.685 838.715 106.184C840.379 109.683 841.211 113.843 841.211 118.664C841.211 123.485 840.358 127.645 838.651 131.144C836.987 134.643 834.598 137.331 831.483 139.208C828.368 141.043 824.742 141.96 820.603 141.96ZM820.603 131.336C823.462 131.336 825.68 130.227 827.259 128.008C828.838 125.789 829.627 122.717 829.627 118.792C829.627 114.824 828.838 111.709 827.259 109.448C825.723 107.144 823.504 105.992 820.603 105.992C817.702 105.992 815.462 107.144 813.883 109.448C812.347 111.709 811.579 114.824 811.579 118.792C811.579 122.717 812.368 125.789 813.947 128.008C815.526 130.227 817.744 131.336 820.603 131.336ZM868.881 108.872L859.793 115.464V104.328L870.801 96.264H880.209V141H868.881V108.872ZM914.299 141.96C911.142 141.96 908.433 141.597 906.171 140.872V131.272C908.134 132.296 910.545 132.808 913.403 132.808C916.646 132.808 919.291 131.955 921.339 130.248C923.43 128.541 924.689 126.003 925.115 122.632C924.091 123.699 922.683 124.552 920.891 125.192C919.099 125.789 917.158 126.088 915.067 126.088C912.123 126.088 909.521 125.491 907.259 124.296C904.998 123.101 903.227 121.373 901.947 119.112C900.667 116.851 900.027 114.163 900.027 111.048C900.027 108.019 900.71 105.331 902.075 102.984C903.483 100.595 905.553 98.7173 908.283 97.352C911.057 95.9867 914.406 95.304 918.331 95.304C924.262 95.304 928.849 97.1387 932.091 100.808C935.377 104.435 937.019 109.448 937.019 115.848C937.019 121.395 936.038 126.131 934.075 130.056C932.155 133.981 929.489 136.947 926.075 138.952C922.662 140.957 918.737 141.96 914.299 141.96ZM918.331 117.384C920.209 117.384 921.787 116.744 923.067 115.464C924.347 114.184 924.987 112.627 924.987 110.792C924.987 108.915 924.347 107.336 923.067 106.056C921.787 104.776 920.209 104.136 918.331 104.136C916.497 104.136 914.939 104.797 913.659 106.12C912.379 107.4 911.739 108.957 911.739 110.792C911.739 112.627 912.379 114.184 913.659 115.464C914.939 116.744 916.497 117.384 918.331 117.384Z" fill="#202831"/>
<mask id="mask0_1580_55379" style="mask-type:alpha" maskUnits="userSpaceOnUse" x="1" y="15" width="937" height="127">
<path d="M130.978 16.264H147.042C151.948 16.264 156.236 17.16 159.906 18.952C163.575 20.744 166.391 23.3253 168.354 26.696C170.359 30.024 171.362 33.928 171.362 38.408C171.362 45.832 169.186 51.464 164.834 55.304C160.482 59.1013 154.444 61 146.722 61H130.978V16.264ZM147.682 51.464C151.564 51.464 154.53 50.2907 156.578 47.944C158.668 45.5973 159.714 42.4187 159.714 38.408C159.714 34.7387 158.668 31.7307 156.578 29.384C154.53 26.9947 151.692 25.8 148.066 25.8H142.306V51.464H147.682ZM191.213 16.264H222.957V25.8H202.541V34.184H217.453V43.08H202.541V51.464H222.957V61H191.213V16.264ZM256.775 61.96C253.959 61.96 251.164 61.6827 248.391 61.128C245.617 60.616 243.335 59.8907 241.543 58.952V48.776C243.847 49.9707 246.236 50.8667 248.711 51.464C251.228 52.0613 253.617 52.36 255.879 52.36C257.969 52.36 259.548 52.04 260.615 51.4C261.681 50.76 262.215 49.8427 262.215 48.648C262.215 47.752 261.916 46.984 261.319 46.344C260.764 45.6613 259.932 45.0427 258.823 44.488C257.713 43.9333 255.985 43.1653 253.639 42.184C249.5 40.4347 246.492 38.4933 244.615 36.36C242.737 34.2267 241.799 31.6027 241.799 28.488C241.799 25.928 242.503 23.6453 243.911 21.64C245.361 19.6347 247.367 18.0773 249.927 16.968C252.487 15.8587 255.431 15.304 258.759 15.304C261.489 15.304 263.921 15.5173 266.055 15.944C268.188 16.3707 270.236 17.0533 272.199 17.992V27.912C268.444 25.9493 264.668 24.968 260.871 24.968C258.823 24.968 257.18 25.3093 255.943 25.992C254.748 26.632 254.151 27.5707 254.151 28.808C254.151 30.0453 254.769 31.048 256.007 31.816C257.244 32.584 259.527 33.6293 262.855 34.952C265.884 36.1893 268.231 37.4053 269.895 38.6C271.601 39.7947 272.839 41.1813 273.607 42.76C274.375 44.3387 274.759 46.344 274.759 48.776C274.759 52.9147 273.244 56.1573 270.215 58.504C267.228 60.808 262.748 61.96 256.775 61.96ZM294.62 16.264H305.948V61H294.62V16.264ZM350.147 61.96C345.283 61.96 340.995 61.0213 337.283 59.144C333.613 57.2667 330.776 54.5787 328.771 51.08C326.765 47.5387 325.763 43.4 325.763 38.664C325.763 33.928 326.765 29.8107 328.771 26.312C330.776 22.7707 333.613 20.0613 337.283 18.184C340.995 16.264 345.283 15.304 350.147 15.304C353.389 15.304 356.248 15.624 358.723 16.264C361.24 16.8613 363.565 17.8427 365.699 19.208V29.96C363.821 28.4667 361.688 27.4 359.299 26.76C356.952 26.0773 354.243 25.736 351.171 25.736C348.525 25.736 346.157 26.2693 344.067 27.336C342.019 28.36 340.397 29.8533 339.203 31.816C338.008 33.7787 337.411 36.0613 337.411 38.664C337.411 42.7173 338.584 45.9173 340.931 48.264C343.32 50.6107 346.541 51.784 350.595 51.784C352.856 51.784 354.755 51.4 356.291 50.632V43.464H349.443V35.528H367.043V57.8C362.477 60.5733 356.845 61.96 350.147 61.96ZM386.903 16.264H398.103L414.551 42.888V16.264H425.879V61H414.743L398.231 34.312V61H386.903V16.264ZM484.122 16.264H500.186C505.093 16.264 509.381 17.16 513.05 18.952C516.72 20.744 519.536 23.3253 521.498 26.696C523.504 30.024 524.506 33.928 524.506 38.408C524.506 45.832 522.33 51.464 517.978 55.304C513.626 59.1013 507.589 61 499.866 61H484.122V16.264ZM500.826 51.464C504.709 51.464 507.674 50.2907 509.722 47.944C511.813 45.5973 512.858 42.4187 512.858 38.408C512.858 34.7387 511.813 31.7307 509.722 29.384C507.674 26.9947 504.837 25.8 501.21 25.8H495.45V51.464H500.826ZM544.358 16.264H555.686V61H544.358V16.264ZM599.884 61.96C595.02 61.96 590.732 61.0213 587.02 59.144C583.351 57.2667 580.513 54.5787 578.508 51.08C576.503 47.5387 575.5 43.4 575.5 38.664C575.5 33.928 576.503 29.8107 578.508 26.312C580.513 22.7707 583.351 20.0613 587.02 18.184C590.732 16.264 595.02 15.304 599.884 15.304C603.127 15.304 605.985 15.624 608.46 16.264C610.977 16.8613 613.303 17.8427 615.436 19.208V29.96C613.559 28.4667 611.425 27.4 609.036 26.76C606.689 26.0773 603.98 25.736 600.908 25.736C598.263 25.736 595.895 26.2693 593.804 27.336C591.756 28.36 590.135 29.8533 588.94 31.816C587.745 33.7787 587.148 36.0613 587.148 38.664C587.148 42.7173 588.321 45.9173 590.668 48.264C593.057 50.6107 596.279 51.784 600.332 51.784C602.593 51.784 604.492 51.4 606.028 50.632V43.464H599.18V35.528H616.78V57.8C612.215 60.5733 606.583 61.96 599.884 61.96ZM636.64 16.264H647.968V61H636.64V16.264ZM679.43 25.8H666.822V16.264H703.43V25.8H690.758V61H679.43V25.8ZM730.937 16.264H742.073L759.929 61H748.345L744.761 51.784H728.249L724.665 61H713.017L730.937 16.264ZM741.945 43.08L736.505 28.04L731.001 43.08H741.945ZM779.782 16.264H791.11V51.464H810.566V61H779.782V16.264ZM17.217 141.96C14.401 141.96 11.6063 141.683 8.83301 141.128C6.05968 140.616 3.77701 139.891 1.98501 138.952V128.776C4.28901 129.971 6.67834 130.867 9.15301 131.464C11.6703 132.061 14.0597 132.36 16.321 132.36C18.4117 132.36 19.9903 132.04 21.057 131.4C22.1237 130.76 22.657 129.843 22.657 128.648C22.657 127.752 22.3583 126.984 21.761 126.344C21.2063 125.661 20.3743 125.043 19.265 124.488C18.1557 123.933 16.4277 123.165 14.081 122.184C9.94234 120.435 6.93434 118.493 5.05701 116.36C3.17968 114.227 2.24101 111.603 2.24101 108.488C2.24101 105.928 2.94501 103.645 4.35301 101.64C5.80368 99.6347 7.80901 98.0773 10.369 96.968C12.929 95.8587 15.873 95.304 19.201 95.304C21.9317 95.304 24.3637 95.5173 26.497 95.944C28.6303 96.3707 30.6783 97.0533 32.641 97.992V107.912C28.8863 105.949 25.1103 104.968 21.313 104.968C19.265 104.968 17.6223 105.309 16.385 105.992C15.1903 106.632 14.593 107.571 14.593 108.808C14.593 110.045 15.2117 111.048 16.449 111.816C17.6863 112.584 19.969 113.629 23.297 114.952C26.3263 116.189 28.673 117.405 30.337 118.6C32.0437 119.795 33.281 121.181 34.049 122.76C34.817 124.339 35.201 126.344 35.201 128.776C35.201 132.915 33.6863 136.157 30.657 138.504C27.6703 140.808 23.1903 141.96 17.217 141.96ZM55.0625 96.264H86.8065V105.8H66.3905V114.184H81.3025V123.08H66.3905V131.464H86.8065V141H55.0625V96.264ZM106.673 96.264H126.769C132.017 96.264 136.113 97.5867 139.057 100.232C142.043 102.877 143.537 106.675 143.537 111.624C143.537 114.952 142.811 117.789 141.361 120.136C139.91 122.483 137.862 124.232 135.217 125.384L143.153 141H131.505L124.401 126.984H118.001V141H106.673V96.264ZM124.785 117.448C127.046 117.448 128.795 117.021 130.033 116.168C131.27 115.272 131.889 113.757 131.889 111.624C131.889 109.405 131.27 107.891 130.033 107.08C128.838 106.227 127.089 105.8 124.785 105.8H118.001V117.448H124.785ZM157.94 96.264H170.036L181.428 126.024L192.82 96.264H204.852L186.996 141H175.86L157.94 96.264ZM224.705 96.264H236.033V141H224.705V96.264ZM280.232 141.96C275.368 141.96 271.08 141.021 267.368 139.144C263.698 137.267 260.861 134.579 258.856 131.08C256.85 127.539 255.848 123.4 255.848 118.664C255.848 113.928 256.85 109.811 258.856 106.312C260.861 102.771 263.698 100.061 267.368 98.184C271.08 96.264 275.368 95.304 280.232 95.304C283.432 95.304 286.29 95.624 288.808 96.264C291.325 96.904 293.65 97.9067 295.784 99.272V110.024C293.906 108.531 291.773 107.443 289.384 106.76C287.037 106.077 284.328 105.736 281.256 105.736C276.861 105.736 273.469 106.888 271.08 109.192C268.69 111.453 267.496 114.611 267.496 118.664C267.496 122.717 268.69 125.896 271.08 128.2C273.512 130.504 276.904 131.656 281.256 131.656C284.328 131.656 287.08 131.293 289.512 130.568C291.944 129.843 294.205 128.691 296.296 127.112V137.8C292.242 140.573 286.888 141.96 280.232 141.96ZM316.113 96.264H347.857V105.8H327.441V114.184H342.353V123.08H327.441V131.464H347.857V141H316.113V96.264ZM381.674 141.96C378.858 141.96 376.064 141.683 373.29 141.128C370.517 140.616 368.234 139.891 366.442 138.952V128.776C368.746 129.971 371.136 130.867 373.61 131.464C376.128 132.061 378.517 132.36 380.778 132.36C382.869 132.36 384.448 132.04 385.514 131.4C386.581 130.76 387.115 129.843 387.115 128.648C387.115 127.752 386.816 126.984 386.219 126.344C385.664 125.661 384.832 125.043 383.722 124.488C382.613 123.933 380.885 123.165 378.538 122.184C374.4 120.435 371.392 118.493 369.514 116.36C367.637 114.227 366.698 111.603 366.698 108.488C366.698 105.928 367.402 103.645 368.81 101.64C370.261 99.6347 372.266 98.0773 374.826 96.968C377.386 95.8587 380.33 95.304 383.658 95.304C386.389 95.304 388.821 95.5173 390.955 95.944C393.088 96.3707 395.136 97.0533 397.098 97.992V107.912C393.344 105.949 389.568 104.968 385.771 104.968C383.722 104.968 382.08 105.309 380.842 105.992C379.648 106.632 379.05 107.571 379.05 108.808C379.05 110.045 379.669 111.048 380.906 111.816C382.144 112.584 384.426 113.629 387.754 114.952C390.784 116.189 393.131 117.405 394.795 118.6C396.501 119.795 397.738 121.181 398.507 122.76C399.275 124.339 399.659 126.344 399.659 128.776C399.659 132.915 398.144 136.157 395.115 138.504C392.128 140.808 387.648 141.96 381.674 141.96ZM470.582 141.96C467.766 141.96 464.971 141.683 462.198 141.128C459.425 140.616 457.142 139.891 455.35 138.952V128.776C457.654 129.971 460.043 130.867 462.518 131.464C465.035 132.061 467.425 132.36 469.686 132.36C471.777 132.36 473.355 132.04 474.422 131.4C475.489 130.76 476.022 129.843 476.022 128.648C476.022 127.752 475.723 126.984 475.126 126.344C474.571 125.661 473.739 125.043 472.63 124.488C471.521 123.933 469.793 123.165 467.446 122.184C463.307 120.435 460.299 118.493 458.422 116.36C456.545 114.227 455.606 111.603 455.606 108.488C455.606 105.928 456.31 103.645 457.718 101.64C459.169 99.6347 461.174 98.0773 463.734 96.968C466.294 95.8587 469.238 95.304 472.566 95.304C475.297 95.304 477.729 95.5173 479.862 95.944C481.995 96.3707 484.043 97.0533 486.006 97.992V107.912C482.251 105.949 478.475 104.968 474.678 104.968C472.63 104.968 470.987 105.309 469.75 105.992C468.555 106.632 467.958 107.571 467.958 108.808C467.958 110.045 468.577 111.048 469.814 111.816C471.051 112.584 473.334 113.629 476.662 114.952C479.691 116.189 482.038 117.405 483.702 118.6C485.409 119.795 486.646 121.181 487.414 122.76C488.182 124.339 488.566 126.344 488.566 128.776C488.566 132.915 487.051 136.157 484.022 138.504C481.035 140.808 476.555 141.96 470.582 141.96ZM508.428 96.264H519.756V141H508.428V96.264ZM540.85 96.264H552.05L568.498 122.888V96.264H579.826V141H568.69L552.178 114.312V141H540.85V96.264ZM624.064 141.96C619.2 141.96 614.912 141.021 611.2 139.144C607.531 137.267 604.693 134.579 602.688 131.08C600.683 127.539 599.68 123.4 599.68 118.664C599.68 113.928 600.683 109.811 602.688 106.312C604.693 102.771 607.531 100.061 611.2 98.184C614.912 96.264 619.2 95.304 624.064 95.304C627.264 95.304 630.123 95.624 632.64 96.264C635.157 96.904 637.483 97.9067 639.616 99.272V110.024C637.739 108.531 635.605 107.443 633.216 106.76C630.869 106.077 628.16 105.736 625.088 105.736C620.693 105.736 617.301 106.888 614.912 109.192C612.523 111.453 611.328 114.611 611.328 118.664C611.328 122.717 612.523 125.896 614.912 128.2C617.344 130.504 620.736 131.656 625.088 131.656C628.16 131.656 630.912 131.293 633.344 130.568C635.776 129.843 638.037 128.691 640.128 127.112V137.8C636.075 140.573 630.72 141.96 624.064 141.96ZM659.945 96.264H691.689V105.8H671.273V114.184H686.185V123.08H671.273V131.464H691.689V141H659.945V96.264ZM747.385 134.536L754.489 128.072L757.561 125.32C760.078 123.101 761.998 121.331 763.321 120.008C764.686 118.685 765.796 117.341 766.649 115.976C767.545 114.611 767.993 113.267 767.993 111.944C767.993 107.976 765.753 105.992 761.273 105.992C759.097 105.992 756.942 106.376 754.809 107.144C752.718 107.912 750.777 108.979 748.985 110.344V99.528C750.905 98.2053 753.145 97.1813 755.705 96.456C758.265 95.688 760.996 95.304 763.897 95.304C767.225 95.304 770.105 95.9227 772.537 97.16C774.969 98.3973 776.825 100.104 778.105 102.28C779.385 104.456 780.025 106.909 780.025 109.64C780.025 112.925 779.257 115.805 777.721 118.28C776.228 120.712 773.796 123.464 770.425 126.536L764.729 131.72H781.433V141H747.385V134.536ZM820.603 141.96C816.464 141.96 812.838 141.043 809.723 139.208C806.608 137.331 804.198 134.643 802.491 131.144C800.827 127.645 799.995 123.485 799.995 118.664C799.995 113.843 800.827 109.683 802.491 106.184C804.155 102.685 806.523 99.9973 809.595 98.12C812.71 96.2427 816.379 95.304 820.603 95.304C824.827 95.304 828.475 96.2427 831.547 98.12C834.662 99.9973 837.051 102.685 838.715 106.184C840.379 109.683 841.211 113.843 841.211 118.664C841.211 123.485 840.358 127.645 838.651 131.144C836.987 134.643 834.598 137.331 831.483 139.208C828.368 141.043 824.742 141.96 820.603 141.96ZM820.603 131.336C823.462 131.336 825.68 130.227 827.259 128.008C828.838 125.789 829.627 122.717 829.627 118.792C829.627 114.824 828.838 111.709 827.259 109.448C825.723 107.144 823.504 105.992 820.603 105.992C817.702 105.992 815.462 107.144 813.883 109.448C812.347 111.709 811.579 114.824 811.579 118.792C811.579 122.717 812.368 125.789 813.947 128.008C815.526 130.227 817.744 131.336 820.603 131.336ZM868.881 108.872L859.793 115.464V104.328L870.801 96.264H880.209V141H868.881V108.872ZM914.299 141.96C911.142 141.96 908.433 141.597 906.171 140.872V131.272C908.134 132.296 910.545 132.808 913.403 132.808C916.646 132.808 919.291 131.955 921.339 130.248C923.43 128.541 924.689 126.003 925.115 122.632C924.091 123.699 922.683 124.552 920.891 125.192C919.099 125.789 917.158 126.088 915.067 126.088C912.123 126.088 909.521 125.491 907.259 124.296C904.998 123.101 903.227 121.373 901.947 119.112C900.667 116.851 900.027 114.163 900.027 111.048C900.027 108.019 900.71 105.331 902.075 102.984C903.483 100.595 905.553 98.7173 908.283 97.352C911.057 95.9867 914.406 95.304 918.331 95.304C924.262 95.304 928.849 97.1387 932.091 100.808C935.377 104.435 937.019 109.448 937.019 115.848C937.019 121.395 936.038 126.131 934.075 130.056C932.155 133.981 929.489 136.947 926.075 138.952C922.662 140.957 918.737 141.96 914.299 141.96ZM918.331 117.384C920.209 117.384 921.787 116.744 923.067 115.464C924.347 114.184 924.987 112.627 924.987 110.792C924.987 108.915 924.347 107.336 923.067 106.056C921.787 104.776 920.209 104.136 918.331 104.136C916.497 104.136 914.939 104.797 913.659 106.12C912.379 107.4 911.739 108.957 911.739 110.792C911.739 112.627 912.379 114.184 913.659 115.464C914.939 116.744 916.497 117.384 918.331 117.384Z" fill="#202831"/>
</mask>
<g mask="url(#mask0_1580_55379)">
<path d="M342.933 -17.0783L266.612 192.61L315.946 210.566L392.267 0.877744L342.933 -17.0783Z" fill="#EA4136"/>
<path fill-rule="evenodd" clip-rule="evenodd" d="M392.267 0.877744L409.879 -47.512L539.159 -0.457892L503.591 41.3963L392.267 0.877744ZM315.946 210.566L349.461 222.765L313.892 264.619L298.334 258.956L315.946 210.566Z" fill="#EA4136"/>
<path fill-rule="evenodd" clip-rule="evenodd" d="M636.006 47.5405L622.491 84.6727L528.559 342.751L577.892 360.707L689.438 54.239L644.281 37.8034L636.006 47.5405Z" fill="#EA4136"/>
<path d="M399.879 295.916L419.014 302.88L608.713 79.6576L556.213 60.5492L402.083 241.917L366.514 283.772L399.879 295.916Z" fill="#EA4136"/>
<path d="M556.213 60.5492L608.713 79.6576L636.006 47.5405L640.104 36.283L591.781 18.695L556.213 60.5492Z" fill="#EA4136"/>
<path d="M608.713 79.6576L622.491 84.6727L636.006 47.5405L608.713 79.6576Z" fill="#EA4136"/>
<path d="M644.281 37.8034L640.104 36.283L636.006 47.5405L644.281 37.8034Z" fill="#EA4136"/>
<path d="M266.612 192.61L249 241L298.334 258.956L315.946 210.566L266.612 192.61Z" fill="#EA4136"/>
<path d="M360.545 -65.468L342.933 -17.0783L392.267 0.877744L409.879 -47.512L360.545 -65.468Z" fill="#EA4136"/>
<path d="M93.9328 -17.0783L17.6124 192.61L66.9463 210.566L143.267 0.877744L93.9328 -17.0783Z" fill="#EA4136"/>
<path fill-rule="evenodd" clip-rule="evenodd" d="M143.267 0.877744L160.879 -47.512L290.159 -0.457892L254.591 41.3963L143.267 0.877744ZM66.9463 210.566L100.461 222.765L64.8921 264.619L49.3339 258.956L66.9463 210.566Z" fill="#EA4136"/>
<path fill-rule="evenodd" clip-rule="evenodd" d="M387.006 47.5405L373.491 84.6727L279.559 342.751L328.892 360.707L440.438 54.239L395.281 37.8034L387.006 47.5405Z" fill="#EA4136"/>
<path d="M150.879 295.916L170.014 302.88L359.713 79.6576L307.213 60.5492L153.083 241.917L117.514 283.772L150.879 295.916Z" fill="#EA4136"/>
<path d="M307.213 60.5492L359.713 79.6576L387.006 47.5405L391.104 36.283L342.781 18.695L307.213 60.5492Z" fill="#EA4136"/>
<path d="M359.713 79.6576L373.491 84.6727L387.006 47.5405L359.713 79.6576Z" fill="#EA4136"/>
<path d="M395.281 37.8034L391.104 36.283L387.006 47.5405L395.281 37.8034Z" fill="#EA4136"/>
<path d="M17.6124 192.61L0 241L49.3339 258.956L66.9463 210.566L17.6124 192.61Z" fill="#EA4136"/>
<path d="M111.545 -65.468L93.9328 -17.0783L143.267 0.877744L160.879 -47.512L111.545 -65.468Z" fill="#EA4136"/>
<path d="M592.933 -17.0783L516.612 192.61L565.946 210.566L642.267 0.877744L592.933 -17.0783Z" fill="#EA4136"/>
<path fill-rule="evenodd" clip-rule="evenodd" d="M642.267 0.877744L659.879 -47.512L789.159 -0.457892L753.591 41.3963L642.267 0.877744ZM565.946 210.566L599.461 222.765L563.892 264.619L548.334 258.956L565.946 210.566Z" fill="#EA4136"/>
<path fill-rule="evenodd" clip-rule="evenodd" d="M886.006 47.5405L872.491 84.6727L778.559 342.751L827.892 360.707L939.438 54.239L894.281 37.8034L886.006 47.5405Z" fill="#EA4136"/>
<path d="M649.879 295.916L669.014 302.88L858.713 79.6576L806.213 60.5492L652.083 241.917L616.514 283.772L649.879 295.916Z" fill="#EA4136"/>
<path d="M806.213 60.5492L858.713 79.6576L886.006 47.5405L890.104 36.283L841.781 18.695L806.213 60.5492Z" fill="#EA4136"/>
<path d="M858.713 79.6576L872.491 84.6727L886.006 47.5405L858.713 79.6576Z" fill="#EA4136"/>
<path d="M894.281 37.8034L890.104 36.283L886.006 47.5405L894.281 37.8034Z" fill="#EA4136"/>
<path d="M516.612 192.61L499 241L548.334 258.956L565.946 210.566L516.612 192.61Z" fill="#EA4136"/>
<path d="M610.545 -65.468L592.933 -17.0783L642.267 0.877744L659.879 -47.512L610.545 -65.468Z" fill="#EA4136"/>
</g>
</svg>
