<svg width="1141" height="80" viewBox="0 0 1141 80" fill="none" xmlns="http://www.w3.org/2000/svg">
<mask id="mask0_2734_160467" style="mask-type:alpha" maskUnits="userSpaceOnUse" x="3" y="15" width="1136" height="47">
<path d="M3.59252 16.264H23.3045C28.5099 16.264 32.6699 17.6293 35.7845 20.36C38.8992 23.0907 40.4565 26.9093 40.4565 31.816C40.4565 36.8507 38.8992 40.7547 35.7845 43.528C32.7125 46.2587 28.5525 47.624 23.3045 47.624H14.9205V61H3.59252V16.264ZM21.5125 38.088C23.7739 38.088 25.5445 37.6187 26.8245 36.68C28.1472 35.7413 28.8085 34.12 28.8085 31.816C28.8085 29.512 28.1685 27.9333 26.8885 27.08C25.6085 26.2267 23.8165 25.8 21.5125 25.8H14.9205V38.088H21.5125ZM59.64 16.264H79.736C84.984 16.264 89.08 17.5867 92.024 20.232C95.0107 22.8773 96.504 26.6747 96.504 31.624C96.504 34.952 95.7787 37.7893 94.328 40.136C92.8774 42.4827 90.8294 44.232 88.184 45.384L96.12 61H84.472L77.368 46.984H70.968V61H59.64V16.264ZM77.752 37.448C80.0134 37.448 81.7627 37.0213 83 36.168C84.2374 35.272 84.856 33.7573 84.856 31.624C84.856 29.4053 84.2374 27.8907 83 27.08C81.8054 26.2267 80.056 25.8 77.752 25.8H70.968V37.448H77.752ZM138.222 61.96C133.699 61.96 129.603 60.9787 125.934 59.016C122.307 57.0533 119.427 54.3227 117.294 50.824C115.203 47.2827 114.158 43.2293 114.158 38.664C114.158 34.0987 115.203 30.0453 117.294 26.504C119.427 22.9627 122.307 20.2107 125.934 18.248C129.603 16.2853 133.699 15.304 138.222 15.304C142.702 15.304 146.755 16.2853 150.382 18.248C154.051 20.2107 156.931 22.9627 159.022 26.504C161.112 30.0453 162.158 34.0987 162.158 38.664C162.158 43.2293 161.112 47.2827 159.022 50.824C156.931 54.3227 154.051 57.0533 150.382 59.016C146.755 60.9787 142.702 61.96 138.222 61.96ZM138.222 51.336C140.483 51.336 142.552 50.824 144.43 49.8C146.307 48.776 147.8 47.304 148.91 45.384C150.019 43.464 150.574 41.224 150.574 38.664C150.574 36.104 150.019 33.8853 148.91 32.008C147.843 30.088 146.371 28.616 144.494 27.592C142.616 26.5253 140.526 25.992 138.222 25.992C135.875 25.992 133.763 26.5253 131.886 27.592C130.008 28.616 128.515 30.088 127.406 32.008C126.339 33.8853 125.806 36.104 125.806 38.664C125.806 41.224 126.339 43.464 127.406 45.384C128.515 47.304 130.008 48.776 131.886 49.8C133.806 50.824 135.918 51.336 138.222 51.336ZM181.985 16.264H198.049C202.956 16.264 207.244 17.16 210.913 18.952C214.582 20.744 217.398 23.3253 219.361 26.696C221.366 30.024 222.369 33.928 222.369 38.408C222.369 45.832 220.193 51.464 215.841 55.304C211.489 59.1013 205.452 61 197.729 61H181.985V16.264ZM198.689 51.464C202.572 51.464 205.537 50.2907 207.585 47.944C209.676 45.5973 210.721 42.4187 210.721 38.408C210.721 34.7387 209.676 31.7307 207.585 29.384C205.537 26.9947 202.7 25.8 199.073 25.8H193.313V51.464H198.689ZM262.252 61.96C255.511 61.96 250.433 60.168 247.02 56.584C243.607 52.9573 241.9 48.1787 241.9 42.248V16.264H253.228V42.376C253.228 45.3627 254.017 47.624 255.596 49.16C257.217 50.696 259.436 51.464 262.252 51.464C265.068 51.464 267.265 50.696 268.844 49.16C270.423 47.624 271.212 45.3627 271.212 42.376V16.264H282.54V42.248C282.54 48.2213 280.833 53 277.42 56.584C274.049 60.168 268.993 61.96 262.252 61.96ZM326.434 61.96C321.57 61.96 317.282 61.0213 313.57 59.144C309.901 57.2667 307.063 54.5787 305.058 51.08C303.053 47.5387 302.05 43.4 302.05 38.664C302.05 33.928 303.053 29.8107 305.058 26.312C307.063 22.7707 309.901 20.0613 313.57 18.184C317.282 16.264 321.57 15.304 326.434 15.304C329.634 15.304 332.493 15.624 335.01 16.264C337.527 16.904 339.853 17.9067 341.986 19.272V30.024C340.109 28.5307 337.975 27.4427 335.586 26.76C333.239 26.0773 330.53 25.736 327.458 25.736C323.063 25.736 319.671 26.888 317.282 29.192C314.893 31.4533 313.698 34.6107 313.698 38.664C313.698 42.7173 314.893 45.896 317.282 48.2C319.714 50.504 323.106 51.656 327.458 51.656C330.53 51.656 333.282 51.2933 335.714 50.568C338.146 49.8427 340.407 48.6907 342.498 47.112V57.8C338.445 60.5733 333.09 61.96 326.434 61.96ZM372.371 25.8H359.763V16.264H396.371V25.8H383.699V61H372.371V25.8ZM452.348 16.264H468.412C473.318 16.264 477.606 17.16 481.276 18.952C484.945 20.744 487.761 23.3253 489.724 26.696C491.729 30.024 492.732 33.928 492.732 38.408C492.732 45.832 490.556 51.464 486.204 55.304C481.852 59.1013 475.814 61 468.092 61H452.348V16.264ZM469.052 51.464C472.934 51.464 475.9 50.2907 477.948 47.944C480.038 45.5973 481.084 42.4187 481.084 38.408C481.084 34.7387 480.038 31.7307 477.948 29.384C475.9 26.9947 473.062 25.8 469.436 25.8H463.676V51.464H469.052ZM512.583 16.264H544.327V25.8H523.911V34.184H538.823V43.08H523.911V51.464H544.327V61H512.583V16.264ZM578.145 61.96C575.329 61.96 572.534 61.6827 569.76 61.128C566.987 60.616 564.705 59.8907 562.913 58.952V48.776C565.217 49.9707 567.606 50.8667 570.081 51.464C572.598 52.0613 574.987 52.36 577.249 52.36C579.339 52.36 580.918 52.04 581.985 51.4C583.051 50.76 583.585 49.8427 583.585 48.648C583.585 47.752 583.286 46.984 582.689 46.344C582.134 45.6613 581.302 45.0427 580.193 44.488C579.083 43.9333 577.355 43.1653 575.009 42.184C570.87 40.4347 567.862 38.4933 565.985 36.36C564.107 34.2267 563.169 31.6027 563.169 28.488C563.169 25.928 563.873 23.6453 565.281 21.64C566.731 19.6347 568.737 18.0773 571.297 16.968C573.857 15.8587 576.801 15.304 580.128 15.304C582.859 15.304 585.291 15.5173 587.425 15.944C589.558 16.3707 591.606 17.0533 593.569 17.992V27.912C589.814 25.9493 586.038 24.968 582.241 24.968C580.193 24.968 578.55 25.3093 577.312 25.992C576.118 26.632 575.521 27.5707 575.521 28.808C575.521 30.0453 576.139 31.048 577.377 31.816C578.614 32.584 580.897 33.6293 584.225 34.952C587.254 36.1893 589.601 37.4053 591.265 38.6C592.971 39.7947 594.209 41.1813 594.977 42.76C595.745 44.3387 596.129 46.344 596.129 48.776C596.129 52.9147 594.614 56.1573 591.585 58.504C588.598 60.808 584.118 61.96 578.145 61.96ZM615.99 16.264H627.318V61H615.99V16.264ZM671.517 61.96C666.653 61.96 662.365 61.0213 658.653 59.144C654.983 57.2667 652.146 54.5787 650.141 51.08C648.135 47.5387 647.133 43.4 647.133 38.664C647.133 33.928 648.135 29.8107 650.141 26.312C652.146 22.7707 654.983 20.0613 658.653 18.184C662.365 16.264 666.653 15.304 671.517 15.304C674.759 15.304 677.618 15.624 680.093 16.264C682.61 16.8613 684.935 17.8427 687.069 19.208V29.96C685.191 28.4667 683.058 27.4 680.669 26.76C678.322 26.0773 675.613 25.736 672.541 25.736C669.895 25.736 667.527 26.2693 665.437 27.336C663.389 28.36 661.767 29.8533 660.573 31.816C659.378 33.7787 658.781 36.0613 658.781 38.664C658.781 42.7173 659.954 45.9173 662.301 48.264C664.69 50.6107 667.911 51.784 671.965 51.784C674.226 51.784 676.125 51.4 677.661 50.632V43.464H670.813V35.528H688.413V57.8C683.847 60.5733 678.215 61.96 671.517 61.96ZM708.273 16.264H719.473L735.921 42.888V16.264H747.249V61H736.113L719.601 34.312V61H708.273V16.264ZM822.133 16.264H833.269L851.125 61H839.541L835.957 51.784H819.445L815.861 61H804.213L822.133 16.264ZM833.141 43.08L827.701 28.04L822.197 43.08H833.141ZM890.582 61.96C885.718 61.96 881.43 61.0213 877.718 59.144C874.048 57.2667 871.211 54.5787 869.206 51.08C867.2 47.5387 866.198 43.4 866.198 38.664C866.198 33.928 867.2 29.8107 869.206 26.312C871.211 22.7707 874.048 20.0613 877.718 18.184C881.43 16.264 885.718 15.304 890.582 15.304C893.824 15.304 896.683 15.624 899.158 16.264C901.675 16.8613 904 17.8427 906.134 19.208V29.96C904.256 28.4667 902.123 27.4 899.734 26.76C897.387 26.0773 894.678 25.736 891.606 25.736C888.96 25.736 886.592 26.2693 884.502 27.336C882.454 28.36 880.832 29.8533 879.638 31.816C878.443 33.7787 877.846 36.0613 877.846 38.664C877.846 42.7173 879.019 45.9173 881.366 48.264C883.755 50.6107 886.976 51.784 891.03 51.784C893.291 51.784 895.19 51.4 896.726 50.632V43.464H889.878V35.528H907.478V57.8C902.912 60.5733 897.28 61.96 890.582 61.96ZM927.338 16.264H959.082V25.8H938.666V34.184H953.578V43.08H938.666V51.464H959.082V61H927.338V16.264ZM978.948 16.264H990.148L1006.6 42.888V16.264H1017.92V61H1006.79L990.276 34.312V61H978.948V16.264ZM1062.16 61.96C1057.3 61.96 1053.01 61.0213 1049.3 59.144C1045.63 57.2667 1042.79 54.5787 1040.79 51.08C1038.78 47.5387 1037.78 43.4 1037.78 38.664C1037.78 33.928 1038.78 29.8107 1040.79 26.312C1042.79 22.7707 1045.63 20.0613 1049.3 18.184C1053.01 16.264 1057.3 15.304 1062.16 15.304C1065.36 15.304 1068.22 15.624 1070.74 16.264C1073.25 16.904 1075.58 17.9067 1077.71 19.272V30.024C1075.84 28.5307 1073.7 27.4427 1071.31 26.76C1068.97 26.0773 1066.26 25.736 1063.19 25.736C1058.79 25.736 1055.4 26.888 1053.01 29.192C1050.62 31.4533 1049.43 34.6107 1049.43 38.664C1049.43 42.7173 1050.62 45.896 1053.01 48.2C1055.44 50.504 1058.83 51.656 1063.19 51.656C1066.26 51.656 1069.01 51.2933 1071.44 50.568C1073.87 49.8427 1076.13 48.6907 1078.23 47.112V57.8C1074.17 60.5733 1068.82 61.96 1062.16 61.96ZM1110.4 43.976L1093.89 16.264H1105.98L1116.1 33.608L1126.66 16.264H1138.69L1121.73 43.976V61H1110.4V43.976Z" fill="#EA4136"/>
</mask>
<g mask="url(#mask0_2734_160467)">
<path d="M3.59252 16.264H23.3045C28.5099 16.264 32.6699 17.6293 35.7845 20.36C38.8992 23.0907 40.4565 26.9093 40.4565 31.816C40.4565 36.8507 38.8992 40.7547 35.7845 43.528C32.7125 46.2587 28.5525 47.624 23.3045 47.624H14.9205V61H3.59252V16.264ZM21.5125 38.088C23.7739 38.088 25.5445 37.6187 26.8245 36.68C28.1472 35.7413 28.8085 34.12 28.8085 31.816C28.8085 29.512 28.1685 27.9333 26.8885 27.08C25.6085 26.2267 23.8165 25.8 21.5125 25.8H14.9205V38.088H21.5125ZM59.64 16.264H79.736C84.984 16.264 89.08 17.5867 92.024 20.232C95.0107 22.8773 96.504 26.6747 96.504 31.624C96.504 34.952 95.7787 37.7893 94.328 40.136C92.8774 42.4827 90.8294 44.232 88.184 45.384L96.12 61H84.472L77.368 46.984H70.968V61H59.64V16.264ZM77.752 37.448C80.0134 37.448 81.7627 37.0213 83 36.168C84.2374 35.272 84.856 33.7573 84.856 31.624C84.856 29.4053 84.2374 27.8907 83 27.08C81.8054 26.2267 80.056 25.8 77.752 25.8H70.968V37.448H77.752ZM138.222 61.96C133.699 61.96 129.603 60.9787 125.934 59.016C122.307 57.0533 119.427 54.3227 117.294 50.824C115.203 47.2827 114.158 43.2293 114.158 38.664C114.158 34.0987 115.203 30.0453 117.294 26.504C119.427 22.9627 122.307 20.2107 125.934 18.248C129.603 16.2853 133.699 15.304 138.222 15.304C142.702 15.304 146.755 16.2853 150.382 18.248C154.051 20.2107 156.931 22.9627 159.022 26.504C161.112 30.0453 162.158 34.0987 162.158 38.664C162.158 43.2293 161.112 47.2827 159.022 50.824C156.931 54.3227 154.051 57.0533 150.382 59.016C146.755 60.9787 142.702 61.96 138.222 61.96ZM138.222 51.336C140.483 51.336 142.552 50.824 144.43 49.8C146.307 48.776 147.8 47.304 148.91 45.384C150.019 43.464 150.574 41.224 150.574 38.664C150.574 36.104 150.019 33.8853 148.91 32.008C147.843 30.088 146.371 28.616 144.494 27.592C142.616 26.5253 140.526 25.992 138.222 25.992C135.875 25.992 133.763 26.5253 131.886 27.592C130.008 28.616 128.515 30.088 127.406 32.008C126.339 33.8853 125.806 36.104 125.806 38.664C125.806 41.224 126.339 43.464 127.406 45.384C128.515 47.304 130.008 48.776 131.886 49.8C133.806 50.824 135.918 51.336 138.222 51.336ZM181.985 16.264H198.049C202.956 16.264 207.244 17.16 210.913 18.952C214.582 20.744 217.398 23.3253 219.361 26.696C221.366 30.024 222.369 33.928 222.369 38.408C222.369 45.832 220.193 51.464 215.841 55.304C211.489 59.1013 205.452 61 197.729 61H181.985V16.264ZM198.689 51.464C202.572 51.464 205.537 50.2907 207.585 47.944C209.676 45.5973 210.721 42.4187 210.721 38.408C210.721 34.7387 209.676 31.7307 207.585 29.384C205.537 26.9947 202.7 25.8 199.073 25.8H193.313V51.464H198.689ZM262.252 61.96C255.511 61.96 250.433 60.168 247.02 56.584C243.607 52.9573 241.9 48.1787 241.9 42.248V16.264H253.228V42.376C253.228 45.3627 254.017 47.624 255.596 49.16C257.217 50.696 259.436 51.464 262.252 51.464C265.068 51.464 267.265 50.696 268.844 49.16C270.423 47.624 271.212 45.3627 271.212 42.376V16.264H282.54V42.248C282.54 48.2213 280.833 53 277.42 56.584C274.049 60.168 268.993 61.96 262.252 61.96ZM326.434 61.96C321.57 61.96 317.282 61.0213 313.57 59.144C309.901 57.2667 307.063 54.5787 305.058 51.08C303.053 47.5387 302.05 43.4 302.05 38.664C302.05 33.928 303.053 29.8107 305.058 26.312C307.063 22.7707 309.901 20.0613 313.57 18.184C317.282 16.264 321.57 15.304 326.434 15.304C329.634 15.304 332.493 15.624 335.01 16.264C337.527 16.904 339.853 17.9067 341.986 19.272V30.024C340.109 28.5307 337.975 27.4427 335.586 26.76C333.239 26.0773 330.53 25.736 327.458 25.736C323.063 25.736 319.671 26.888 317.282 29.192C314.893 31.4533 313.698 34.6107 313.698 38.664C313.698 42.7173 314.893 45.896 317.282 48.2C319.714 50.504 323.106 51.656 327.458 51.656C330.53 51.656 333.282 51.2933 335.714 50.568C338.146 49.8427 340.407 48.6907 342.498 47.112V57.8C338.445 60.5733 333.09 61.96 326.434 61.96ZM372.371 25.8H359.763V16.264H396.371V25.8H383.699V61H372.371V25.8ZM452.348 16.264H468.412C473.318 16.264 477.606 17.16 481.276 18.952C484.945 20.744 487.761 23.3253 489.724 26.696C491.729 30.024 492.732 33.928 492.732 38.408C492.732 45.832 490.556 51.464 486.204 55.304C481.852 59.1013 475.814 61 468.092 61H452.348V16.264ZM469.052 51.464C472.934 51.464 475.9 50.2907 477.948 47.944C480.038 45.5973 481.084 42.4187 481.084 38.408C481.084 34.7387 480.038 31.7307 477.948 29.384C475.9 26.9947 473.062 25.8 469.436 25.8H463.676V51.464H469.052ZM512.583 16.264H544.327V25.8H523.911V34.184H538.823V43.08H523.911V51.464H544.327V61H512.583V16.264ZM578.145 61.96C575.329 61.96 572.534 61.6827 569.76 61.128C566.987 60.616 564.705 59.8907 562.913 58.952V48.776C565.217 49.9707 567.606 50.8667 570.081 51.464C572.598 52.0613 574.987 52.36 577.249 52.36C579.339 52.36 580.918 52.04 581.985 51.4C583.051 50.76 583.585 49.8427 583.585 48.648C583.585 47.752 583.286 46.984 582.689 46.344C582.134 45.6613 581.302 45.0427 580.193 44.488C579.083 43.9333 577.355 43.1653 575.009 42.184C570.87 40.4347 567.862 38.4933 565.985 36.36C564.107 34.2267 563.169 31.6027 563.169 28.488C563.169 25.928 563.873 23.6453 565.281 21.64C566.731 19.6347 568.737 18.0773 571.297 16.968C573.857 15.8587 576.801 15.304 580.128 15.304C582.859 15.304 585.291 15.5173 587.425 15.944C589.558 16.3707 591.606 17.0533 593.569 17.992V27.912C589.814 25.9493 586.038 24.968 582.241 24.968C580.193 24.968 578.55 25.3093 577.312 25.992C576.118 26.632 575.521 27.5707 575.521 28.808C575.521 30.0453 576.139 31.048 577.377 31.816C578.614 32.584 580.897 33.6293 584.225 34.952C587.254 36.1893 589.601 37.4053 591.265 38.6C592.971 39.7947 594.209 41.1813 594.977 42.76C595.745 44.3387 596.129 46.344 596.129 48.776C596.129 52.9147 594.614 56.1573 591.585 58.504C588.598 60.808 584.118 61.96 578.145 61.96ZM615.99 16.264H627.318V61H615.99V16.264ZM671.517 61.96C666.653 61.96 662.365 61.0213 658.653 59.144C654.983 57.2667 652.146 54.5787 650.141 51.08C648.135 47.5387 647.133 43.4 647.133 38.664C647.133 33.928 648.135 29.8107 650.141 26.312C652.146 22.7707 654.983 20.0613 658.653 18.184C662.365 16.264 666.653 15.304 671.517 15.304C674.759 15.304 677.618 15.624 680.093 16.264C682.61 16.8613 684.935 17.8427 687.069 19.208V29.96C685.191 28.4667 683.058 27.4 680.669 26.76C678.322 26.0773 675.613 25.736 672.541 25.736C669.895 25.736 667.527 26.2693 665.437 27.336C663.389 28.36 661.767 29.8533 660.573 31.816C659.378 33.7787 658.781 36.0613 658.781 38.664C658.781 42.7173 659.954 45.9173 662.301 48.264C664.69 50.6107 667.911 51.784 671.965 51.784C674.226 51.784 676.125 51.4 677.661 50.632V43.464H670.813V35.528H688.413V57.8C683.847 60.5733 678.215 61.96 671.517 61.96ZM708.273 16.264H719.473L735.921 42.888V16.264H747.249V61H736.113L719.601 34.312V61H708.273V16.264ZM822.133 16.264H833.269L851.125 61H839.541L835.957 51.784H819.445L815.861 61H804.213L822.133 16.264ZM833.141 43.08L827.701 28.04L822.197 43.08H833.141ZM890.582 61.96C885.718 61.96 881.43 61.0213 877.718 59.144C874.048 57.2667 871.211 54.5787 869.206 51.08C867.2 47.5387 866.198 43.4 866.198 38.664C866.198 33.928 867.2 29.8107 869.206 26.312C871.211 22.7707 874.048 20.0613 877.718 18.184C881.43 16.264 885.718 15.304 890.582 15.304C893.824 15.304 896.683 15.624 899.158 16.264C901.675 16.8613 904 17.8427 906.134 19.208V29.96C904.256 28.4667 902.123 27.4 899.734 26.76C897.387 26.0773 894.678 25.736 891.606 25.736C888.96 25.736 886.592 26.2693 884.502 27.336C882.454 28.36 880.832 29.8533 879.638 31.816C878.443 33.7787 877.846 36.0613 877.846 38.664C877.846 42.7173 879.019 45.9173 881.366 48.264C883.755 50.6107 886.976 51.784 891.03 51.784C893.291 51.784 895.19 51.4 896.726 50.632V43.464H889.878V35.528H907.478V57.8C902.912 60.5733 897.28 61.96 890.582 61.96ZM927.338 16.264H959.082V25.8H938.666V34.184H953.578V43.08H938.666V51.464H959.082V61H927.338V16.264ZM978.948 16.264H990.148L1006.6 42.888V16.264H1017.92V61H1006.79L990.276 34.312V61H978.948V16.264ZM1062.16 61.96C1057.3 61.96 1053.01 61.0213 1049.3 59.144C1045.63 57.2667 1042.79 54.5787 1040.79 51.08C1038.78 47.5387 1037.78 43.4 1037.78 38.664C1037.78 33.928 1038.78 29.8107 1040.79 26.312C1042.79 22.7707 1045.63 20.0613 1049.3 18.184C1053.01 16.264 1057.3 15.304 1062.16 15.304C1065.36 15.304 1068.22 15.624 1070.74 16.264C1073.25 16.904 1075.58 17.9067 1077.71 19.272V30.024C1075.84 28.5307 1073.7 27.4427 1071.31 26.76C1068.97 26.0773 1066.26 25.736 1063.19 25.736C1058.79 25.736 1055.4 26.888 1053.01 29.192C1050.62 31.4533 1049.43 34.6107 1049.43 38.664C1049.43 42.7173 1050.62 45.896 1053.01 48.2C1055.44 50.504 1058.83 51.656 1063.19 51.656C1066.26 51.656 1069.01 51.2933 1071.44 50.568C1073.87 49.8427 1076.13 48.6907 1078.23 47.112V57.8C1074.17 60.5733 1068.82 61.96 1062.16 61.96ZM1110.4 43.976L1093.89 16.264H1105.98L1116.1 33.608L1126.66 16.264H1138.69L1121.73 43.976V61H1110.4V43.976Z" fill="#202831"/>
<path d="M462.433 -17.0783L386.112 192.61L435.446 210.566L511.767 0.877805L462.433 -17.0783Z" fill="#EA4136"/>
<path fill-rule="evenodd" clip-rule="evenodd" d="M511.767 0.877805L529.379 -47.5119L658.659 -0.457831L623.091 41.3964L511.767 0.877805ZM435.446 210.566L468.961 222.765L433.392 264.619L417.834 258.956L435.446 210.566Z" fill="#EA4136"/>
<path fill-rule="evenodd" clip-rule="evenodd" d="M755.506 47.5405L741.991 84.6727L648.059 342.751L697.392 360.707L808.938 54.2391L763.781 37.8035L755.506 47.5405Z" fill="#EA4136"/>
<path d="M519.379 295.916L538.514 302.88L728.213 79.6577L675.713 60.5493L521.583 241.918L486.014 283.772L519.379 295.916Z" fill="#EA4136"/>
<path d="M675.713 60.5493L728.213 79.6577L755.506 47.5405L759.604 36.283L711.281 18.695L675.713 60.5493Z" fill="#EA4136"/>
<path d="M728.213 79.6577L741.991 84.6727L755.506 47.5405L728.213 79.6577Z" fill="#EA4136"/>
<path d="M763.781 37.8035L759.604 36.283L755.506 47.5405L763.781 37.8035Z" fill="#EA4136"/>
<path d="M386.112 192.61L368.5 241L417.834 258.956L435.446 210.566L386.112 192.61Z" fill="#EA4136"/>
<path d="M480.045 -65.4679L462.433 -17.0783L511.767 0.877805L529.379 -47.5119L480.045 -65.4679Z" fill="#EA4136"/>
<path d="M213.433 -17.0783L137.112 192.61L186.446 210.566L262.767 0.877805L213.433 -17.0783Z" fill="#EA4136"/>
<path fill-rule="evenodd" clip-rule="evenodd" d="M262.767 0.877805L280.379 -47.5119L409.659 -0.457831L374.091 41.3964L262.767 0.877805ZM186.446 210.566L219.961 222.765L184.392 264.619L168.834 258.956L186.446 210.566Z" fill="#EA4136"/>
<path fill-rule="evenodd" clip-rule="evenodd" d="M506.506 47.5405L492.991 84.6727L399.059 342.751L448.392 360.707L559.938 54.2391L514.781 37.8035L506.506 47.5405Z" fill="#EA4136"/>
<path d="M270.379 295.916L289.514 302.88L479.213 79.6577L426.713 60.5493L272.583 241.918L237.014 283.772L270.379 295.916Z" fill="#EA4136"/>
<path d="M426.713 60.5493L479.213 79.6577L506.506 47.5405L510.604 36.283L462.281 18.695L426.713 60.5493Z" fill="#EA4136"/>
<path d="M479.213 79.6577L492.991 84.6727L506.506 47.5405L479.213 79.6577Z" fill="#EA4136"/>
<path d="M514.781 37.8035L510.604 36.283L506.506 47.5405L514.781 37.8035Z" fill="#EA4136"/>
<path d="M137.112 192.61L119.5 241L168.834 258.956L186.446 210.566L137.112 192.61Z" fill="#EA4136"/>
<path d="M231.045 -65.4679L213.433 -17.0783L262.767 0.877805L280.379 -47.5119L231.045 -65.4679Z" fill="#EA4136"/>
<path d="M712.433 -17.0783L636.112 192.61L685.446 210.566L761.767 0.877805L712.433 -17.0783Z" fill="#EA4136"/>
<path fill-rule="evenodd" clip-rule="evenodd" d="M761.767 0.877805L779.379 -47.5119L908.659 -0.457831L873.091 41.3964L761.767 0.877805ZM685.446 210.566L718.961 222.765L683.392 264.619L667.834 258.956L685.446 210.566Z" fill="#EA4136"/>
<path fill-rule="evenodd" clip-rule="evenodd" d="M1005.51 47.5405L991.991 84.6727L898.059 342.751L947.392 360.707L1058.94 54.2391L1013.78 37.8035L1005.51 47.5405Z" fill="#EA4136"/>
<path d="M769.379 295.916L788.514 302.88L978.213 79.6577L925.713 60.5493L771.583 241.918L736.014 283.772L769.379 295.916Z" fill="#EA4136"/>
<path d="M925.713 60.5493L978.213 79.6577L1005.51 47.5405L1009.6 36.283L961.281 18.695L925.713 60.5493Z" fill="#EA4136"/>
<path d="M978.213 79.6577L991.991 84.6727L1005.51 47.5405L978.213 79.6577Z" fill="#EA4136"/>
<path d="M1013.78 37.8035L1009.6 36.283L1005.51 47.5405L1013.78 37.8035Z" fill="#EA4136"/>
<path d="M636.112 192.61L618.5 241L667.834 258.956L685.446 210.566L636.112 192.61Z" fill="#EA4136"/>
<path d="M730.045 -65.4679L712.433 -17.0783L761.767 0.877805L779.379 -47.5119L730.045 -65.4679Z" fill="#EA4136"/>
</g>
</svg>
