<svg width="670" height="342" viewBox="0 0 670 342" fill="none" xmlns="http://www.w3.org/2000/svg">
<g clip-path="url(#clip0_4_11)">
<rect width="670" height="342" fill="white"/>
<path fill-rule="evenodd" clip-rule="evenodd" d="M217.819 306.192H190.421H0V341.844H226.125V309.211L217.819 306.192Z" fill="#E5E9EE"/>
<path d="M0 213.2V227.028L190.421 296.235V258.295L35.7039 202.064L0 189.088V213.2Z" fill="#E5E9EE"/>
<path d="M190.421 258.295V296.235L217.819 306.192H226.125V271.271L190.421 258.295Z" fill="#E5E9EE"/>
<path d="M190.421 296.235V306.192H217.819L190.421 296.235Z" fill="#E5E9EE"/>
<path d="M226.125 309.211V306.192H217.819L226.125 309.211Z" fill="#E5E9EE"/>
<path fill-rule="evenodd" clip-rule="evenodd" d="M605.267 270.198L605.267 279.258L605.267 342.228L617.058 342.228L617.058 267.451L606.265 267.451L605.267 270.198Z" fill="#E5E9EE"/>
<path d="M574.512 342.228L579.086 342.228L601.974 279.258L589.426 279.258L570.83 330.421L566.538 342.228L574.512 342.228Z" fill="#E5E9EE"/>
<path d="M589.426 279.258L601.974 279.258L605.267 270.198L605.267 267.451L593.718 267.451L589.426 279.258Z" fill="#E5E9EE"/>
<path d="M601.974 279.258L605.267 279.258L605.267 270.198L601.974 279.258Z" fill="#E5E9EE"/>
<path d="M606.265 267.451L605.267 267.451L605.267 270.198L606.265 267.451Z" fill="#E5E9EE"/>
<path fill-rule="evenodd" clip-rule="evenodd" d="M547.24 294.126L547.24 303.186L547.24 366.156L559.031 366.156L559.031 291.379L548.239 291.379L547.24 294.126Z" fill="#E5E9EE"/>
<path d="M516.486 366.156L521.059 366.156L543.947 303.186L531.4 303.186L512.803 354.349L508.511 366.156L516.486 366.156Z" fill="#E5E9EE"/>
<path d="M531.4 303.186L543.947 303.186L547.24 294.126L547.24 291.379L535.691 291.379L531.4 303.186Z" fill="#E5E9EE"/>
<path d="M543.947 303.186L547.24 303.186L547.24 294.126L543.947 303.186Z" fill="#E5E9EE"/>
<path d="M548.239 291.379L547.24 291.379L547.24 294.126L548.239 291.379Z" fill="#E5E9EE"/>
<path d="M626.425 0H139.29V43.5379H626.425V0Z" fill="#E5E9EE"/>
<path fill-rule="evenodd" clip-rule="evenodd" d="M626.425 43.5379H670V157.629L626.425 141.783V43.5379ZM139.29 43.5379V73.1148L95.7143 57.2683V43.5379H139.29Z" fill="#E5E9EE"/>
<path d="M139.29 0H95.7143V43.5379H139.29V0Z" fill="#E5E9EE"/>
<path d="M670 0H626.425V43.5379H670V0Z" fill="#E5E9EE"/>
</g>
<defs>
<clipPath id="clip0_4_11">
<rect width="670" height="342" fill="white"/>
</clipPath>
</defs>
</svg>
