<svg width="512" height="291" viewBox="0 0 512 291" fill="none" xmlns="http://www.w3.org/2000/svg">
<g clip-path="url(#clip0_3_30)">
<rect width="512" height="291" fill="white"/>
<path d="M480.435 0H127.565V31.4873H480.435V0Z" fill="#E5E9EE"/>
<path fill-rule="evenodd" clip-rule="evenodd" d="M480.435 31.4873H512V114L480.435 102.54V31.4873ZM127.565 31.4873V52.8777L96 41.4173V31.4873H127.565Z" fill="#E5E9EE"/>
<path d="M127.565 0H96V31.4873H127.565V0Z" fill="#E5E9EE"/>
<path d="M512 0H480.435V31.4873H512V0Z" fill="#E5E9EE"/>
<path fill-rule="evenodd" clip-rule="evenodd" d="M145.453 267.208H127.158H0V291H151V269.222L145.453 267.208Z" fill="#E5E9EE"/>
<path d="M0 205.15V214.378L127.158 260.563V235.244L23.8421 197.719L0 189.059V205.15Z" fill="#E5E9EE"/>
<path d="M127.158 235.244V260.563L145.453 267.208H151V243.903L127.158 235.244Z" fill="#E5E9EE"/>
<path d="M127.158 260.563V267.208H145.453L127.158 260.563Z" fill="#E5E9EE"/>
<path d="M151 269.222V267.208H145.453L151 269.222Z" fill="#E5E9EE"/>
<path fill-rule="evenodd" clip-rule="evenodd" d="M471.136 237.094L471.136 244L471.136 292L480 292L480 235L471.887 235L471.136 237.094Z" fill="#E5E9EE"/>
<path d="M448.017 292L451.455 292L468.661 244L459.228 244L445.248 283L442.022 292L448.017 292Z" fill="#E5E9EE"/>
<path d="M459.228 244L468.661 244L471.136 237.094L471.136 235L462.454 235L459.228 244Z" fill="#E5E9EE"/>
<path d="M468.661 244L471.136 244L471.136 237.094L468.661 244Z" fill="#E5E9EE"/>
<path d="M471.887 235L471.136 235L471.136 237.094L471.887 235Z" fill="#E5E9EE"/>
<path fill-rule="evenodd" clip-rule="evenodd" d="M427.136 255.094L427.136 262L427.136 310L436 310L436 253L427.887 253L427.136 255.094Z" fill="#E5E9EE"/>
<path d="M404.017 310L407.455 310L424.661 262L415.228 262L401.248 301L398.022 310L404.017 310Z" fill="#E5E9EE"/>
<path d="M415.228 262L424.661 262L427.136 255.094L427.136 253L418.454 253L415.228 262Z" fill="#E5E9EE"/>
<path d="M424.661 262L427.136 262L427.136 255.094L424.661 262Z" fill="#E5E9EE"/>
<path d="M427.887 253L427.136 253L427.136 255.094L427.887 253Z" fill="#E5E9EE"/>
</g>
<defs>
<clipPath id="clip0_3_30">
<rect width="512" height="291" fill="white"/>
</clipPath>
</defs>
</svg>
