<svg width="286" height="434" viewBox="0 0 286 434" fill="none" xmlns="http://www.w3.org/2000/svg">
<g clip-path="url(#clip0_1_8)">
<rect width="286" height="434" fill="white"/>
<path d="M264.299 0H21.7009V22.0963H264.299V0Z" fill="#E5E9EE"/>
<path fill-rule="evenodd" clip-rule="evenodd" d="M264.299 22.0963H286V80L264.299 71.9576V22.0963ZM21.7009 22.0963V37.1072L0 29.0648V22.0963H21.7009Z" fill="#E5E9EE"/>
<path d="M21.7009 0H0V22.0963H21.7009V0Z" fill="#E5E9EE"/>
<path d="M286 0H264.299V22.0963H286V0Z" fill="#E5E9EE"/>
<path fill-rule="evenodd" clip-rule="evenodd" d="M6.9977 393.616L6.9977 398.947L6.9977 436L-2.34604e-06 436L-4.22737e-07 392L6.40517 392L6.9977 393.616Z" fill="#E5E9EE"/>
<path d="M25.25 436L22.5359 436L8.95213 398.947L16.3989 398.947L27.4357 429.053L29.9827 436L25.25 436Z" fill="#E5E9EE"/>
<path d="M16.3989 398.947L8.95213 398.947L6.9977 393.616L6.9977 392L13.852 392L16.3989 398.947Z" fill="#E5E9EE"/>
<path d="M8.95213 398.947L6.9977 398.947L6.9977 393.616L8.95213 398.947Z" fill="#E5E9EE"/>
<path d="M6.40517 392L6.9977 392L6.9977 393.616L6.40517 392Z" fill="#E5E9EE"/>
<path fill-rule="evenodd" clip-rule="evenodd" d="M40.9977 407.653L40.9977 413.105L40.9977 451L34 451L34 406L40.4052 406L40.9977 407.653Z" fill="#E5E9EE"/>
<path d="M59.25 451L56.5359 451L42.9521 413.105L50.3989 413.105L61.4357 443.895L63.9827 451L59.25 451Z" fill="#E5E9EE"/>
<path d="M50.3989 413.105L42.9521 413.105L40.9977 407.653L40.9977 406L47.852 406L50.3989 413.105Z" fill="#E5E9EE"/>
<path d="M42.9521 413.105L40.9977 413.105L40.9977 407.653L42.9521 413.105Z" fill="#E5E9EE"/>
<path d="M40.4052 406L40.9977 406L40.9977 407.653L40.4052 406Z" fill="#E5E9EE"/>
<path fill-rule="evenodd" clip-rule="evenodd" d="M279.002 393.616L279.002 398.947L279.002 436L286 436L286 392L279.595 392L279.002 393.616Z" fill="#E5E9EE"/>
<path d="M260.75 436L263.464 436L277.048 398.947L269.601 398.947L258.564 429.053L256.017 436L260.75 436Z" fill="#E5E9EE"/>
<path d="M269.601 398.947L277.048 398.947L279.002 393.616L279.002 392L272.148 392L269.601 398.947Z" fill="#E5E9EE"/>
<path d="M277.048 398.947L279.002 398.947L279.002 393.616L277.048 398.947Z" fill="#E5E9EE"/>
<path d="M279.595 392L279.002 392L279.002 393.616L279.595 392Z" fill="#E5E9EE"/>
<path fill-rule="evenodd" clip-rule="evenodd" d="M245.002 407.653L245.002 413.105L245.002 451L252 451L252 406L245.595 406L245.002 407.653Z" fill="#E5E9EE"/>
<path d="M226.75 451L229.464 451L243.048 413.105L235.601 413.105L224.564 443.895L222.017 451L226.75 451Z" fill="#E5E9EE"/>
<path d="M235.601 413.105L243.048 413.105L245.002 407.653L245.002 406L238.148 406L235.601 413.105Z" fill="#E5E9EE"/>
<path d="M243.048 413.105L245.002 413.105L245.002 407.653L243.048 413.105Z" fill="#E5E9EE"/>
<path d="M245.595 406L245.002 406L245.002 407.653L245.595 406Z" fill="#E5E9EE"/>
</g>
<defs>
<clipPath id="clip0_1_8">
<rect width="286" height="434" fill="white"/>
</clipPath>
</defs>
</svg>
